<!DOCTYPE svg PUBLIC "-//W3C//DTD SVG 20010904//EN" "http://www.w3.org/TR/2001/REC-SVG-20010904/DTD/svg10.dtd">
<svg version="1.0" xmlns="http://www.w3.org/2000/svg" width="322px" height="322px" viewBox="0 0 3220 3220" preserveAspectRatio="xMidYMid meet">
<g id="layer101" fill="#e86320" stroke="none">
 <path d="M1400 2596 c0 -36 4 -67 9 -70 11 -7 21 -86 27 -205 7 -121 5 -124 -43 -107 -21 7 -68 17 -103 21 -36 4 -103 20 -150 37 -47 16 -123 42 -170 58 -94 32 -127 46 -210 91 -30 16 -62 29 -71 29 -21 0 -36 -20 -22 -29 11 -7 20 -53 29 -151 3 -36 10 -71 16 -77 6 -7 8 -22 5 -32 -3 -11 2 -29 10 -41 8 -11 12 -28 9 -36 -3 -8 0 -25 8 -37 12 -20 25 -68 32 -122 2 -22 22 -80 36 -108 5 -10 11 -39 13 -64 3 -25 10 -52 15 -58 6 -7 20 -50 31 -96 12 -46 26 -93 32 -104 6 -11 10 -25 9 -31 -1 -6 5 -17 13 -24 8 -7 15 -23 15 -36 0 -12 5 -26 10 -29 6 -3 10 -16 10 -29 0 -12 4 -26 9 -31 5 -6 23 -48 41 -95 45 -118 58 -146 99 -215 20 -33 42 -73 49 -88 7 -16 18 -27 25 -25 18 6 21 47 5 66 -8 9 -27 46 -42 82 -39 93 -41 97 -80 180 -39 85 -54 124 -98 260 -16 52 -34 100 -38 105 -4 6 -18 44 -30 85 -12 41 -26 83 -31 92 -5 10 -9 27 -9 37 0 11 -4 22 -9 25 -5 3 -11 23 -13 43 -5 38 -35 161 -48 198 -21 58 -47 194 -49 255 -2 70 5 84 30 54 7 -8 30 -24 50 -35 44 -22 104 -61 139 -90 34 -28 99 -69 109 -69 4 0 20 -11 35 -25 15 -14 36 -25 46 -25 10 0 45 -16 77 -35 32 -19 63 -35 69 -35 6 0 17 -7 24 -14 6 -8 33 -24 58 -36 104 -47 99 -41 107 -120 2 -19 13 -78 25 -130 11 -52 23 -105 24 -117 2 -11 8 -32 12 -45 4 -12 7 -30 6 -39 -2 -9 4 -22 13 -29 10 -8 15 -30 15 -61 0 -27 4 -49 9 -49 6 0 9 -8 9 -17 -3 -33 12 -71 29 -77 27 -11 33 6 25 74 -14 131 24 419 58 440 7 4 43 -8 81 -26 38 -19 75 -34 82 -34 7 0 31 -8 53 -19 21 -10 55 -22 74 -26 41 -9 74 -24 67 -32 -3 -3 -27 -7 -54 -9 -54 -5 -103 -22 -103 -36 0 -5 -32 -44 -71 -87 -91 -99 -107 -143 -109 -301 -2 -134 6 -228 21 -246 6 -7 8 -17 6 -21 -6 -9 6 -39 54 -139 16 -34 29 -66 29 -73 0 -6 4 -11 9 -11 5 0 14 -14 21 -31 32 -77 214 -260 306 -307 22 -11 46 -28 53 -36 8 -9 19 -16 25 -16 7 0 30 -8 52 -19 74 -35 159 -44 226 -24 60 17 200 92 212 112 5 9 32 39 60 67 66 67 76 80 76 101 0 10 9 33 20 51 11 18 20 43 20 55 0 13 5 28 10 33 8 8 8 19 0 38 -5 15 -8 32 -4 37 12 20 15 66 5 104 -5 22 -15 67 -21 100 -13 66 -88 215 -155 310 -56 79 -171 181 -279 247 -31 18 -108 47 -170 62 -38 9 -81 23 -97 31 -15 8 -42 15 -59 15 -16 0 -30 3 -30 8 0 4 -28 18 -62 31 -35 13 -81 32 -104 42 -23 10 -44 19 -48 19 -4 0 -23 7 -44 17 -62 27 -106 43 -124 43 -24 0 -23 6 12 73 41 80 105 167 122 167 4 0 17 8 28 17 14 12 41 18 85 20 65 3 135 27 142 50 2 6 -4 13 -14 15 -28 6 -161 -18 -177 -31 -16 -14 -157 -13 -301 1 -168 17 -152 8 -158 91 -3 39 -11 113 -17 162 -7 50 -13 104 -14 120 -5 60 -18 105 -32 105 -11 0 -14 -16 -14 -64z m-453 -282 c-3 -3 -12 -4 -19 -1 -8 3 -5 6 6 6 11 1 17 -2 13 -5z m37 -13 c3 -5 23 -12 43 -16 21 -4 43 -10 48 -14 13 -10 140 -49 180 -55 17 -3 61 -12 100 -21 38 -8 71 -15 73 -15 8 0 25 -63 29 -112 l5 -57 -178 90 c-97 50 -192 102 -209 115 -18 13 -36 24 -41 24 -11 0 -74 55 -74 64 0 9 18 7 24 -3z m651 -146 c55 -3 128 -8 161 -11 l61 -5 -59 -62 c-32 -34 -64 -74 -71 -89 -6 -16 -15 -28 -19 -28 -5 0 -8 -4 -8 -9 0 -5 -5 -22 -11 -38 -9 -24 -12 -26 -22 -13 -7 8 -30 23 -52 34 -107 50 -109 52 -118 103 -8 47 -10 81 -8 117 1 14 6 17 24 13 12 -3 67 -8 122 -12z m-88 -228 c4 -7 24 -19 43 -27 19 -8 45 -20 56 -27 24 -15 23 -32 -10 -127 -9 -27 -17 -85 -18 -132 -2 -77 -8 -98 -22 -76 -3 5 -7 19 -9 33 -3 14 -10 42 -16 64 -30 111 -51 218 -51 259 0 45 11 59 27 33z m648 -274 c17 -3 35 -10 42 -15 7 -5 20 -7 31 -4 10 3 27 -1 38 -9 10 -8 36 -15 56 -15 88 0 301 -156 381 -278 123 -187 163 -307 154 -465 -6 -104 -16 -146 -57 -226 -55 -109 -156 -198 -294 -258 -57 -25 -216 -4 -277 37 -16 11 -41 28 -57 39 -15 10 -37 21 -48 25 -33 10 -243 235 -244 260 0 5 -6 17 -14 25 -31 36 -106 191 -106 219 0 16 -8 47 -17 68 -14 32 -18 68 -18 194 0 177 0 174 89 283 73 87 118 115 187 118 30 1 63 6 74 10 11 4 27 5 35 3 8 -3 29 -8 45 -11z"/>
 </g>

</svg>