<svg id="svg" version="1.1" width="400" height="112.85266457680251" viewBox="0 0 400 112.85266457680251" xmlns="http://www.w3.org/2000/svg" xmlns:xlink="http://www.w3.org/1999/xlink" ><g id="svgg"><path id="path0" d="M192.487 9.084 C 192.298 9.273,191.757 9.345,190.273 9.376 C 188.603 9.411,188.285 9.460,188.147 9.708 C 188.031 9.916,187.776 10.000,187.268 10.000 C 186.761 10.000,186.463 10.098,186.248 10.336 L 185.944 10.672 185.586 10.336 C 185.072 9.853,184.763 9.916,184.036 10.650 C 183.520 11.172,183.271 11.300,182.778 11.300 C 182.257 11.300,182.021 11.440,181.216 12.233 C 180.694 12.747,180.135 13.167,179.972 13.167 C 179.576 13.167,177.500 15.229,177.500 15.623 C 177.500 16.019,176.499 17.000,176.095 17.000 C 175.716 17.000,175.000 17.747,175.000 18.142 C 175.000 18.534,174.676 18.833,174.251 18.833 C 173.829 18.833,172.333 20.366,172.333 20.798 C 172.333 20.965,172.071 21.356,171.750 21.667 C 171.429 21.978,171.167 22.393,171.167 22.590 C 171.167 22.787,171.017 23.084,170.833 23.250 C 170.650 23.416,170.500 23.720,170.500 23.925 C 170.500 24.307,170.217 24.500,169.653 24.500 C 169.387 24.500,169.333 24.621,169.333 25.221 C 169.333 25.840,169.240 26.033,168.669 26.596 C 168.112 27.145,168.005 27.359,168.003 27.933 C 168.001 28.401,167.895 28.710,167.667 28.917 C 167.483 29.083,167.333 29.397,167.333 29.614 C 167.333 29.832,167.221 30.054,167.083 30.106 C 166.942 30.161,166.833 30.409,166.833 30.679 C 166.833 30.984,166.714 31.219,166.500 31.333 C 166.292 31.445,166.167 31.682,166.167 31.966 C 166.167 32.239,166.034 32.503,165.833 32.628 C 165.650 32.742,165.500 33.011,165.500 33.226 C 165.500 33.440,165.350 33.751,165.167 33.917 C 164.983 34.083,164.833 34.397,164.833 34.614 C 164.833 34.832,164.721 35.054,164.583 35.106 C 164.446 35.159,164.333 35.383,164.333 35.603 C 164.333 35.823,164.183 36.132,164.000 36.289 C 163.817 36.446,163.667 36.746,163.667 36.955 C 163.667 37.165,163.517 37.465,163.333 37.622 C 163.051 37.863,163.000 38.114,163.000 39.247 C 163.000 40.441,162.961 40.611,162.638 40.813 L 162.276 41.039 162.680 41.353 L 163.083 41.667 162.734 41.958 C 162.244 42.367,162.222 46.748,162.708 47.020 C 162.916 47.136,163.000 47.391,163.000 47.899 C 163.000 48.403,163.099 48.704,163.333 48.917 C 163.517 49.083,163.667 49.378,163.667 49.572 C 163.667 50.035,165.639 52.000,166.104 52.000 C 166.293 52.000,166.584 52.150,166.750 52.333 C 166.916 52.517,167.215 52.667,167.416 52.667 C 167.627 52.667,168.039 52.947,168.397 53.333 C 168.798 53.768,169.158 54.000,169.429 54.000 C 169.657 54.000,169.887 54.112,169.940 54.250 C 170.011 54.435,170.305 54.500,171.075 54.500 C 171.903 54.500,172.176 54.568,172.417 54.833 C 172.669 55.112,172.930 55.167,174.016 55.167 C 175.129 55.167,175.348 55.215,175.550 55.503 C 175.777 55.827,175.936 55.838,180.018 55.795 L 184.250 55.750 184.308 55.333 C 184.387 54.759,184.636 54.500,185.109 54.500 C 185.330 54.500,185.554 54.387,185.606 54.250 C 185.681 54.055,186.011 54.000,187.100 54.000 C 188.317 54.000,188.524 53.957,188.705 53.667 C 188.861 53.418,189.094 53.333,189.625 53.333 C 190.130 53.333,190.419 53.237,190.622 53.000 C 190.779 52.817,191.067 52.667,191.261 52.667 C 191.456 52.667,191.751 52.517,191.917 52.333 C 192.129 52.099,192.430 52.000,192.934 52.000 C 193.431 52.000,193.698 51.914,193.807 51.720 C 193.909 51.538,194.208 51.428,194.666 51.406 C 195.275 51.377,195.493 51.249,196.314 50.436 C 197.132 49.626,197.346 49.500,197.900 49.500 C 198.620 49.500,203.167 45.214,203.167 44.535 C 203.167 44.361,203.317 44.083,203.500 43.917 C 203.764 43.678,203.833 43.403,203.833 42.595 C 203.833 41.780,203.901 41.516,204.167 41.289 C 204.350 41.132,204.500 40.855,204.500 40.674 C 204.500 40.493,204.350 40.265,204.167 40.167 C 203.804 39.972,203.659 38.333,204.005 38.333 C 204.445 38.333,204.325 37.803,203.766 37.276 C 203.273 36.811,203.167 36.593,203.167 36.048 C 203.167 35.603,203.060 35.289,202.843 35.092 C 202.665 34.931,202.496 34.600,202.468 34.358 C 202.426 33.995,202.321 33.907,201.875 33.864 C 201.424 33.821,201.333 33.743,201.333 33.400 C 201.333 32.817,199.174 30.667,198.589 30.667 C 198.245 30.667,198.167 30.586,198.167 30.232 C 198.167 29.919,197.889 29.529,197.175 28.842 C 196.159 27.863,195.996 27.316,196.610 26.950 C 196.742 26.871,196.833 26.520,196.833 26.088 C 196.833 25.444,196.911 25.293,197.500 24.789 C 198.071 24.300,198.167 24.123,198.167 23.552 C 198.167 22.992,198.270 22.791,198.818 22.284 C 199.414 21.733,199.463 21.624,199.382 21.021 C 199.308 20.474,199.353 20.324,199.647 20.141 C 199.922 19.969,200.000 19.754,200.000 19.167 C 200.000 18.594,200.080 18.364,200.333 18.205 C 200.636 18.016,200.667 17.817,200.667 16.004 C 200.667 14.182,200.638 13.996,200.333 13.833 C 200.142 13.731,200.000 13.484,200.000 13.254 C 200.000 12.663,198.032 10.667,197.450 10.667 C 197.182 10.667,196.942 10.537,196.833 10.333 C 196.734 10.148,196.484 10.000,196.270 10.000 C 196.058 10.000,195.749 9.850,195.583 9.667 C 195.369 9.430,195.070 9.333,194.552 9.333 C 194.058 9.333,193.792 9.253,193.727 9.083 C 193.603 8.760,192.811 8.761,192.487 9.084 M211.333 10.333 C 211.227 10.532,210.984 10.667,210.731 10.667 C 209.790 10.667,208.949 12.116,209.667 12.500 C 209.970 12.662,210.000 12.849,210.000 14.567 C 210.000 16.203,210.045 16.512,210.333 16.879 C 210.542 17.144,210.667 17.555,210.667 17.979 C 210.667 18.484,210.751 18.700,211.000 18.833 C 211.188 18.934,211.333 19.182,211.333 19.402 C 211.333 19.617,211.446 19.886,211.583 20.000 C 211.721 20.114,211.833 20.368,211.833 20.565 C 211.833 20.779,212.233 21.322,212.830 21.919 C 213.377 22.468,213.827 23.063,213.830 23.241 C 213.835 23.682,214.648 24.500,215.082 24.500 C 215.276 24.500,215.692 24.766,216.007 25.091 C 216.825 25.934,217.560 25.871,217.636 24.950 C 217.684 24.361,217.601 24.227,216.427 23.021 C 215.643 22.215,215.167 21.589,215.167 21.364 C 215.167 21.166,215.017 20.909,214.833 20.795 C 214.438 20.548,214.401 20.240,214.750 20.106 C 214.887 20.054,215.000 19.904,215.000 19.773 C 215.000 19.642,214.887 19.492,214.750 19.440 C 214.580 19.375,214.500 19.109,214.500 18.614 C 214.500 18.097,214.403 17.797,214.167 17.583 C 213.858 17.304,213.833 17.070,213.833 14.466 L 213.833 11.651 213.008 10.825 C 212.127 9.944,211.621 9.796,211.333 10.333 M193.727 11.583 C 193.780 11.721,193.975 11.833,194.161 11.833 C 194.348 11.833,194.650 11.983,194.833 12.167 C 195.017 12.350,195.326 12.500,195.522 12.500 C 196.201 12.500,197.500 13.978,197.500 14.750 C 197.500 15.220,197.602 15.513,197.833 15.711 C 198.112 15.950,198.167 16.203,198.167 17.250 C 198.167 18.297,198.112 18.550,197.833 18.789 C 197.601 18.987,197.500 19.280,197.500 19.753 C 197.500 20.325,197.396 20.534,196.836 21.080 C 196.236 21.667,196.182 21.787,196.272 22.348 C 196.355 22.866,196.313 22.999,196.019 23.157 C 195.719 23.317,195.667 23.497,195.667 24.372 C 195.667 26.727,194.208 27.027,192.204 25.084 C 191.393 24.297,190.780 23.835,190.548 23.834 C 190.345 23.834,190.098 23.683,190.000 23.500 C 189.895 23.303,189.651 23.167,189.406 23.167 C 189.143 23.167,188.792 22.951,188.454 22.583 C 187.952 22.036,187.855 22.000,186.878 22.000 C 186.017 22.000,185.800 21.942,185.628 21.667 C 185.513 21.483,185.262 21.333,185.069 21.333 C 184.876 21.333,184.583 21.183,184.417 21.000 C 183.993 20.532,183.474 20.585,182.930 21.153 C 182.347 21.761,182.482 22.000,183.409 22.000 C 184.027 22.000,184.207 22.085,184.644 22.583 C 184.947 22.928,185.312 23.167,185.537 23.168 C 185.770 23.169,186.142 23.427,186.500 23.833 C 186.909 24.299,187.218 24.497,187.536 24.498 C 187.817 24.499,188.056 24.627,188.167 24.834 C 188.315 25.110,188.456 25.151,188.973 25.068 C 189.670 24.957,189.931 25.147,190.026 25.833 C 190.067 26.132,190.202 26.266,190.500 26.306 C 191.061 26.381,191.804 27.111,191.866 27.648 C 191.903 27.969,192.026 28.098,192.333 28.139 C 192.885 28.213,193.667 28.969,193.667 29.427 C 193.667 29.866,193.938 30.115,194.500 30.192 C 194.798 30.234,194.933 30.368,194.973 30.667 C 195.044 31.202,195.797 32.000,196.230 32.000 C 196.682 32.000,197.500 32.809,197.500 33.255 C 197.500 33.453,197.650 33.751,197.833 33.917 C 198.067 34.128,198.167 34.430,198.167 34.925 C 198.167 35.399,198.249 35.663,198.417 35.727 C 198.554 35.780,198.667 36.001,198.667 36.219 C 198.667 36.437,198.817 36.751,199.000 36.917 C 199.183 37.083,199.333 37.394,199.333 37.608 C 199.333 37.822,199.483 38.091,199.667 38.205 C 199.943 38.378,200.000 38.594,200.000 39.472 C 200.000 40.359,200.059 40.578,200.365 40.825 L 200.730 41.121 200.365 41.316 C 200.065 41.477,200.000 41.659,200.000 42.333 C 200.000 42.984,199.931 43.192,199.667 43.333 C 199.473 43.437,199.333 43.682,199.333 43.919 C 199.333 44.418,198.000 45.710,197.357 45.835 C 197.029 45.898,196.898 46.044,196.833 46.417 C 196.765 46.811,196.644 46.932,196.249 47.000 C 195.873 47.064,195.736 47.188,195.692 47.501 C 195.613 48.075,195.364 48.333,194.891 48.333 C 194.670 48.333,194.446 48.446,194.394 48.583 C 194.341 48.721,194.117 48.833,193.897 48.833 C 193.677 48.833,193.368 48.983,193.211 49.167 C 193.054 49.350,192.786 49.500,192.614 49.500 C 192.443 49.500,192.121 49.643,191.899 49.817 C 191.678 49.992,191.363 50.100,191.201 50.057 C 191.003 50.005,190.731 50.196,190.380 50.634 C 189.936 51.186,189.733 51.301,189.069 51.376 C 188.593 51.430,188.224 51.570,188.133 51.732 C 188.020 51.935,187.722 52.000,186.910 52.000 C 186.017 52.000,185.801 52.056,185.628 52.333 C 185.473 52.582,185.239 52.667,184.708 52.667 C 184.203 52.667,183.914 52.763,183.711 53.000 C 183.471 53.281,183.220 53.333,182.106 53.333 C 181.072 53.333,180.743 53.393,180.586 53.608 C 180.311 53.984,176.578 53.956,176.158 53.576 C 175.974 53.409,175.500 53.333,174.638 53.333 C 173.597 53.333,173.334 53.277,173.083 53.000 C 172.871 52.765,172.570 52.667,172.063 52.667 C 171.516 52.667,171.303 52.588,171.167 52.333 C 171.069 52.150,170.819 52.000,170.611 52.000 C 170.402 52.000,169.977 51.742,169.659 51.422 C 169.342 51.104,168.937 50.842,168.759 50.839 C 168.353 50.832,167.500 50.032,167.500 49.658 C 167.500 49.504,167.350 49.188,167.167 48.955 C 166.983 48.721,166.833 48.376,166.833 48.188 C 166.833 47.999,166.683 47.765,166.500 47.667 C 166.188 47.500,166.167 47.318,166.167 44.865 C 166.167 42.447,166.193 42.218,166.500 41.955 C 166.761 41.732,166.833 41.464,166.833 40.723 C 166.833 40.093,166.922 39.679,167.097 39.484 C 167.243 39.324,167.404 38.868,167.455 38.471 C 167.507 38.075,167.650 37.690,167.774 37.617 C 167.908 37.538,168.000 37.193,168.000 36.768 C 168.000 36.263,168.099 35.962,168.333 35.750 C 168.517 35.584,168.667 35.275,168.667 35.063 C 168.667 34.849,168.814 34.599,169.000 34.500 C 169.249 34.367,169.333 34.151,169.333 33.645 C 169.333 33.222,169.458 32.811,169.667 32.545 C 169.853 32.309,170.000 31.869,170.000 31.550 C 170.000 31.112,170.137 30.849,170.583 30.427 C 170.959 30.073,171.167 29.723,171.167 29.445 C 171.167 29.182,171.298 28.941,171.500 28.833 C 171.714 28.719,171.833 28.484,171.833 28.179 C 171.833 27.909,171.942 27.661,172.083 27.606 C 172.221 27.554,172.333 27.332,172.333 27.114 C 172.333 26.897,172.483 26.583,172.667 26.417 C 172.850 26.251,173.000 25.942,173.000 25.730 C 173.000 25.518,173.145 25.267,173.323 25.172 C 173.517 25.068,173.666 24.785,173.698 24.458 C 173.744 23.980,173.818 23.907,174.333 23.833 C 174.835 23.762,174.925 23.680,174.973 23.250 C 175.004 22.975,175.173 22.616,175.348 22.452 C 175.523 22.288,175.667 22.022,175.667 21.862 C 175.667 21.465,180.151 17.000,180.549 17.000 C 180.721 17.000,181.265 16.587,181.757 16.083 C 182.325 15.502,182.792 15.166,183.034 15.165 C 183.270 15.164,183.641 14.909,184.000 14.500 C 184.387 14.060,184.724 13.836,185.002 13.835 C 185.238 13.834,185.510 13.688,185.628 13.500 C 185.786 13.248,186.017 13.167,186.579 13.167 C 187.151 13.167,187.363 13.090,187.500 12.833 C 187.616 12.617,187.849 12.500,188.164 12.500 C 188.454 12.500,188.716 12.382,188.814 12.208 C 188.957 11.953,189.216 11.922,190.881 11.957 C 192.599 11.993,192.814 11.964,193.085 11.665 C 193.444 11.268,193.599 11.249,193.727 11.583 M52.208 18.277 C 52.081 18.328,52.000 18.681,52.000 19.181 C 52.000 19.877,51.952 20.000,51.680 20.000 C 51.076 20.000,50.833 20.195,50.833 20.679 C 50.833 20.984,50.714 21.219,50.500 21.333 C 50.314 21.433,50.167 21.682,50.167 21.897 C 50.167 22.108,50.017 22.417,49.833 22.583 C 49.650 22.749,49.500 23.049,49.500 23.250 C 49.500 23.451,49.350 23.751,49.167 23.917 C 48.943 24.119,48.833 24.430,48.833 24.864 C 48.833 25.394,48.728 25.602,48.250 26.022 C 47.888 26.340,47.667 26.686,47.667 26.934 C 47.667 27.178,47.431 27.556,47.064 27.903 C 46.576 28.363,46.454 28.606,46.427 29.175 C 46.406 29.609,46.286 29.956,46.113 30.082 C 45.959 30.195,45.833 30.476,45.833 30.706 C 45.833 30.952,45.678 31.236,45.458 31.392 L 45.083 31.658 45.458 31.980 C 46.000 32.447,45.923 32.863,45.167 33.563 C 44.744 33.954,44.500 34.327,44.500 34.582 C 44.500 34.803,44.384 35.048,44.242 35.128 C 44.092 35.212,43.953 35.577,43.912 35.995 C 43.872 36.392,43.726 36.842,43.587 36.996 C 43.418 37.183,43.333 37.618,43.333 38.299 C 43.333 39.151,43.278 39.351,43.000 39.500 C 42.720 39.650,42.667 39.849,42.667 40.750 C 42.667 41.651,42.614 41.850,42.333 42.000 C 42.033 42.161,42.000 42.349,42.000 43.914 C 42.000 45.324,41.950 45.678,41.736 45.798 C 41.263 46.063,41.233 49.060,41.699 49.494 L 42.063 49.833 41.712 50.160 C 41.229 50.610,41.248 52.779,41.740 53.322 C 42.050 53.665,42.050 53.677,41.742 53.902 C 41.141 54.341,41.348 56.106,42.076 56.754 C 42.413 57.054,42.667 57.436,42.667 57.645 C 42.667 58.177,44.169 59.667,44.706 59.667 C 44.940 59.667,45.174 59.779,45.227 59.917 C 45.303 60.116,45.660 60.167,46.969 60.167 C 48.403 60.167,48.654 60.210,48.917 60.500 C 49.302 60.926,49.847 60.926,50.211 60.500 C 50.437 60.236,50.703 60.167,51.490 60.167 C 52.229 60.167,52.522 60.098,52.633 59.899 C 52.726 59.734,53.096 59.597,53.600 59.542 C 54.049 59.493,54.477 59.351,54.550 59.226 C 54.623 59.102,54.902 59.000,55.169 59.000 C 55.484 59.000,55.718 58.883,55.833 58.667 C 55.971 58.410,56.182 58.333,56.754 58.333 C 57.317 58.333,57.548 58.252,57.705 58.000 C 57.831 57.799,58.094 57.667,58.368 57.667 C 58.652 57.667,58.889 57.541,59.001 57.331 C 59.280 56.809,63.394 56.848,63.962 57.378 L 64.340 57.731 64.596 57.366 C 64.794 57.084,65.020 57.000,65.585 57.000 C 66.060 57.000,66.366 56.913,66.456 56.752 C 66.532 56.615,66.957 56.454,67.400 56.393 C 68.383 56.258,69.604 55.200,69.695 54.403 C 69.740 54.004,69.819 53.926,70.131 53.970 C 70.534 54.026,71.500 53.162,71.500 52.746 C 71.500 52.280,71.718 52.000,72.081 52.000 C 72.633 52.000,72.893 52.403,72.781 53.089 C 72.706 53.554,72.753 53.718,73.010 53.878 C 73.188 53.989,73.333 54.255,73.333 54.470 C 73.333 55.099,74.195 55.833,74.932 55.833 C 75.280 55.833,75.692 55.956,75.862 56.109 C 76.145 56.366,76.188 56.366,76.471 56.109 C 76.701 55.902,77.104 55.833,78.096 55.832 L 79.417 55.830 80.000 55.167 C 80.321 54.802,80.733 54.502,80.917 54.502 C 81.100 54.501,81.662 54.093,82.167 53.595 L 83.083 52.691 83.542 53.126 C 83.794 53.366,84.000 53.720,84.000 53.913 C 84.000 54.119,84.345 54.590,84.831 55.049 L 85.662 55.833 87.549 55.833 L 89.437 55.833 90.010 55.170 C 90.405 54.714,90.720 54.506,91.024 54.504 C 91.266 54.502,91.505 54.395,91.554 54.266 C 91.604 54.137,91.867 53.982,92.140 53.923 C 92.424 53.860,93.008 53.434,93.509 52.923 L 94.382 52.033 95.191 52.842 C 95.889 53.540,96.000 53.742,96.000 54.318 C 96.000 55.255,96.593 55.833,97.554 55.833 C 98.053 55.833,98.343 55.931,98.545 56.167 C 98.907 56.590,99.260 56.590,99.622 56.167 C 99.821 55.935,100.114 55.833,100.586 55.833 C 101.396 55.833,106.500 50.984,106.500 50.214 C 106.500 50.006,106.650 49.742,106.833 49.628 C 107.017 49.513,107.167 49.245,107.167 49.030 C 107.167 48.572,108.115 47.549,108.336 47.770 C 108.418 47.851,108.507 48.556,108.534 49.334 L 108.583 50.750 109.117 50.802 C 110.056 50.892,110.050 51.941,109.111 52.032 C 108.421 52.099,108.209 53.514,108.823 53.945 C 109.079 54.124,109.167 54.368,109.167 54.897 C 109.167 56.062,111.195 57.071,112.073 56.342 C 112.436 56.041,112.308 53.557,111.915 53.270 C 111.599 53.038,111.598 53.019,111.888 52.698 C 112.145 52.414,112.194 52.004,112.229 49.856 C 112.262 47.832,112.321 47.289,112.536 47.048 C 112.683 46.884,112.829 46.563,112.860 46.333 C 112.902 46.025,113.031 45.903,113.358 45.866 C 113.600 45.838,113.931 45.669,114.092 45.491 C 114.468 45.075,115.034 45.077,115.413 45.496 C 115.686 45.797,115.967 45.830,118.647 45.871 L 121.583 45.917 121.635 46.364 C 121.671 46.679,121.585 46.865,121.343 46.995 C 120.828 47.271,120.819 50.952,121.333 51.417 C 121.517 51.583,121.667 51.871,121.667 52.058 C 121.667 53.249,125.745 54.024,126.622 53.000 C 126.779 52.817,127.067 52.667,127.261 52.667 C 127.456 52.667,127.747 52.521,127.908 52.343 C 128.069 52.165,128.400 51.996,128.642 51.968 C 128.967 51.930,129.099 51.808,129.141 51.505 C 129.217 50.969,129.970 50.212,130.499 50.140 C 130.809 50.098,130.936 49.960,130.999 49.598 C 131.064 49.224,131.217 49.068,131.667 48.917 C 132.086 48.777,132.266 48.609,132.306 48.319 C 132.337 48.098,132.613 47.678,132.919 47.387 C 133.234 47.087,133.499 46.653,133.529 46.387 C 133.608 45.702,134.335 45.649,135.003 46.280 L 135.500 46.749 135.500 49.023 C 135.500 50.891,135.545 51.315,135.750 51.394 C 135.887 51.446,136.000 51.680,136.000 51.913 C 136.000 52.146,136.150 52.465,136.333 52.622 C 136.517 52.779,136.667 53.074,136.667 53.277 C 136.667 53.842,137.333 54.005,139.000 53.849 C 139.248 53.826,139.201 53.382,138.940 53.282 C 138.815 53.234,138.664 52.824,138.603 52.364 C 138.537 51.865,138.394 51.495,138.246 51.438 C 138.048 51.362,138.000 50.957,138.000 49.364 C 138.000 47.592,137.965 47.353,137.664 47.081 L 137.328 46.777 137.664 46.419 C 138.118 45.937,138.104 45.049,137.634 44.549 L 137.269 44.160 137.634 43.904 C 138.413 43.359,138.096 40.667,137.254 40.667 C 136.569 40.667,134.859 38.692,134.801 37.833 C 134.754 37.138,134.714 37.079,134.251 37.027 C 133.692 36.963,133.506 36.760,133.503 36.208 C 133.500 35.901,133.402 35.830,132.958 35.813 C 132.660 35.801,131.904 35.771,131.277 35.745 L 130.138 35.698 128.598 37.266 C 127.678 38.202,126.924 38.833,126.727 38.833 C 126.304 38.833,125.558 39.613,125.411 40.208 C 125.328 40.540,125.153 40.704,124.774 40.801 C 124.394 40.899,124.234 41.048,124.192 41.343 C 124.161 41.567,123.992 41.884,123.817 42.048 C 123.643 42.212,123.500 42.497,123.500 42.681 C 123.500 43.958,120.358 45.211,119.720 44.189 C 119.580 43.966,119.328 43.879,118.819 43.879 C 118.357 43.879,118.043 43.784,117.913 43.606 C 117.803 43.456,117.524 43.333,117.294 43.333 C 117.050 43.333,116.761 43.176,116.604 42.958 L 116.333 42.583 116.063 42.958 C 115.856 43.246,115.628 43.333,115.083 43.333 C 114.534 43.333,114.317 43.249,114.120 42.958 L 113.866 42.583 113.510 42.958 C 112.646 43.868,112.316 43.456,112.256 41.397 C 112.201 39.513,111.785 38.833,110.686 38.833 C 109.545 38.833,109.167 39.451,109.164 41.323 L 109.161 42.917 108.497 43.571 C 107.948 44.112,107.833 44.338,107.833 44.876 C 107.833 45.466,107.717 45.640,106.583 46.745 C 105.796 47.512,105.333 48.095,105.333 48.320 C 105.333 48.516,105.082 48.897,104.776 49.167 C 104.469 49.436,104.147 49.902,104.061 50.203 C 103.940 50.627,103.795 50.768,103.412 50.834 C 103.022 50.902,102.902 51.024,102.834 51.418 C 102.769 51.793,102.645 51.931,102.332 51.974 C 101.763 52.053,101.529 52.278,101.468 52.804 C 101.418 53.241,101.389 53.251,100.105 53.299 C 98.334 53.365,97.845 52.958,97.838 51.412 C 97.834 50.617,97.764 50.348,97.500 50.122 C 96.963 49.663,97.267 48.566,97.833 48.917 C 98.231 49.163,98.500 48.633,98.500 47.603 C 98.500 46.751,98.557 46.544,98.843 46.366 C 99.033 46.247,99.163 46.016,99.134 45.844 C 99.106 45.675,99.217 45.388,99.381 45.206 C 99.634 44.926,99.672 44.617,99.631 43.147 L 99.583 41.417 98.871 41.365 C 98.060 41.307,96.500 42.665,96.500 43.429 C 96.500 43.632,96.388 43.841,96.250 43.894 C 96.055 43.968,96.000 44.301,96.000 45.406 C 96.000 46.651,95.960 46.843,95.667 47.000 C 95.482 47.099,95.333 47.349,95.333 47.561 C 95.333 47.823,94.835 48.444,93.766 49.514 C 92.794 50.487,92.177 51.242,92.141 51.500 C 92.090 51.865,91.991 51.923,91.333 51.966 C 90.700 52.007,90.489 52.119,89.976 52.682 C 89.375 53.343,89.358 53.350,88.309 53.300 L 87.250 53.250 87.199 52.170 C 87.167 51.473,87.054 50.985,86.882 50.795 C 86.637 50.524,86.638 50.475,86.891 50.195 C 87.082 49.983,87.167 49.588,87.167 48.899 C 87.167 48.114,87.236 47.848,87.500 47.622 C 87.683 47.465,87.833 47.184,87.833 46.997 C 87.833 46.810,88.096 46.426,88.417 46.144 C 88.757 45.845,89.000 45.477,89.000 45.259 C 89.000 45.053,89.150 44.749,89.333 44.583 C 89.517 44.417,89.667 44.115,89.667 43.911 C 89.667 43.708,89.779 43.447,89.917 43.333 C 90.054 43.219,90.167 43.031,90.167 42.914 C 90.167 42.798,90.054 42.659,89.917 42.606 C 89.779 42.554,89.667 42.364,89.667 42.186 C 89.667 41.514,89.484 41.333,88.803 41.333 C 88.063 41.333,87.167 42.043,87.167 42.628 C 87.167 42.805,86.754 43.354,86.250 43.848 C 85.424 44.659,85.333 44.817,85.333 45.456 C 85.333 45.983,85.248 46.217,85.000 46.372 C 84.752 46.527,84.667 46.761,84.667 47.287 C 84.667 47.948,84.586 48.071,83.417 49.199 C 82.618 49.970,82.167 50.535,82.167 50.765 C 82.167 51.199,81.763 51.573,81.431 51.445 C 81.133 51.331,80.883 51.620,80.808 52.167 C 80.766 52.464,80.631 52.600,80.333 52.641 C 80.104 52.672,79.782 52.841,79.619 53.016 C 79.367 53.284,79.079 53.333,77.777 53.333 C 75.950 53.333,75.833 53.254,75.833 52.021 C 75.833 51.407,75.743 51.010,75.558 50.805 C 75.301 50.521,75.301 50.479,75.558 50.195 C 75.751 49.981,75.833 49.585,75.833 48.868 C 75.833 48.016,75.889 47.815,76.167 47.667 C 76.352 47.567,76.500 47.318,76.500 47.103 C 76.500 46.892,76.650 46.583,76.833 46.417 C 77.017 46.251,77.167 45.956,77.167 45.761 C 77.167 45.567,77.317 45.279,77.500 45.122 C 77.683 44.965,77.833 44.656,77.833 44.436 C 77.833 44.216,77.949 43.991,78.091 43.937 C 78.611 43.737,78.352 41.428,77.803 41.365 C 77.488 41.329,77.301 41.415,77.172 41.657 C 77.016 41.948,76.828 42.000,75.921 42.000 C 74.746 42.000,74.382 41.757,74.972 41.366 C 75.198 41.216,75.333 40.953,75.333 40.664 C 75.333 40.407,75.444 40.160,75.583 40.106 C 75.752 40.042,75.833 39.777,75.833 39.292 C 75.833 38.769,75.928 38.493,76.184 38.274 L 76.534 37.974 76.184 37.601 C 75.991 37.396,75.833 37.095,75.833 36.933 C 75.833 36.513,75.014 35.694,74.681 35.781 C 74.528 35.821,74.264 35.699,74.093 35.510 C 73.712 35.090,72.487 35.031,72.167 35.417 C 72.042 35.567,71.678 35.667,71.255 35.667 C 70.763 35.667,70.461 35.767,70.250 36.000 C 70.084 36.183,69.809 36.333,69.639 36.333 C 69.469 36.333,69.202 36.483,69.045 36.667 C 68.888 36.850,68.598 37.000,68.401 37.000 C 67.936 37.000,63.333 41.578,63.333 42.040 C 63.333 42.217,62.921 42.765,62.417 43.257 C 61.620 44.035,61.500 44.236,61.500 44.792 C 61.500 45.319,61.382 45.547,60.833 46.083 C 60.277 46.627,60.167 46.844,60.167 47.396 C 60.167 47.790,60.050 48.186,59.877 48.377 C 59.648 48.630,59.575 49.084,59.527 50.557 C 59.480 51.978,59.402 52.489,59.194 52.723 C 58.941 53.008,58.942 53.046,59.211 53.242 C 59.774 53.654,59.613 55.167,59.006 55.167 C 58.686 55.167,58.450 55.282,58.337 55.492 C 58.196 55.757,57.953 55.827,57.041 55.867 C 55.938 55.916,55.917 55.925,55.833 56.417 L 55.748 56.917 54.293 56.965 C 53.047 57.006,52.813 57.060,52.663 57.340 C 52.567 57.520,52.315 57.667,52.103 57.667 C 51.892 57.667,51.583 57.817,51.417 58.000 C 51.029 58.429,50.396 58.429,50.167 58.000 C 49.907 57.515,48.589 57.523,48.328 58.010 C 48.070 58.492,47.765 58.327,47.667 57.653 C 47.586 57.103,47.555 57.082,46.776 57.032 C 46.068 56.987,45.878 56.888,45.234 56.225 L 44.500 55.469 44.500 54.146 C 44.500 53.124,44.443 52.801,44.250 52.727 C 44.109 52.673,44.000 52.425,44.000 52.158 C 44.000 51.861,43.865 51.591,43.634 51.430 L 43.269 51.173 43.634 50.784 C 43.948 50.450,44.000 50.205,44.000 49.049 C 44.000 48.006,44.056 47.681,44.250 47.606 C 44.444 47.532,44.500 47.208,44.500 46.170 C 44.500 45.041,44.552 44.786,44.830 44.547 C 45.159 44.266,45.159 44.263,44.814 43.897 L 44.469 43.528 44.818 43.342 C 45.115 43.182,45.167 43.000,45.167 42.103 C 45.167 41.263,45.234 40.991,45.500 40.750 C 45.760 40.515,45.833 40.237,45.833 39.486 C 45.833 38.879,45.920 38.437,46.069 38.288 C 46.199 38.158,46.357 37.705,46.421 37.281 C 46.484 36.858,46.641 36.424,46.768 36.318 C 46.896 36.212,47.000 35.834,47.000 35.478 C 47.000 35.036,47.106 34.739,47.333 34.545 C 47.565 34.346,47.667 34.053,47.667 33.583 C 47.667 33.114,47.768 32.820,48.000 32.622 C 48.230 32.425,48.333 32.130,48.333 31.668 C 48.333 31.222,48.444 30.889,48.667 30.667 C 48.850 30.483,49.000 30.154,49.000 29.934 C 49.000 29.715,49.112 29.492,49.250 29.440 C 49.387 29.387,49.500 29.166,49.500 28.948 C 49.500 28.730,49.650 28.416,49.833 28.250 C 50.017 28.084,50.167 27.784,50.167 27.583 C 50.167 27.383,50.317 27.083,50.500 26.917 C 50.683 26.751,50.833 26.437,50.833 26.219 C 50.833 26.001,50.937 25.783,51.065 25.734 C 51.192 25.685,51.338 25.433,51.390 25.173 C 51.446 24.893,51.863 24.343,52.409 23.826 C 52.939 23.325,53.333 22.807,53.333 22.614 C 53.333 22.428,53.457 22.139,53.609 21.971 C 53.867 21.687,53.864 21.643,53.567 21.314 C 53.254 20.965,53.255 20.957,53.625 20.710 C 54.105 20.389,54.193 18.443,53.736 18.268 C 53.429 18.150,52.510 18.155,52.208 18.277 M289.090 18.493 C 288.873 18.733,288.575 18.833,288.082 18.833 C 287.320 18.833,285.833 20.147,285.833 20.821 C 285.833 20.989,285.721 21.219,285.583 21.333 C 285.446 21.447,285.333 21.708,285.333 21.911 C 285.333 22.115,285.183 22.417,285.000 22.583 C 284.741 22.818,284.667 23.097,284.667 23.834 C 284.667 24.764,284.648 24.800,283.750 25.682 C 282.926 26.490,282.833 26.652,282.833 27.285 C 282.833 27.823,282.753 28.031,282.492 28.171 C 282.203 28.326,282.158 28.488,282.200 29.219 L 282.250 30.083 283.417 30.167 L 284.583 30.250 284.634 31.031 C 284.675 31.678,284.625 31.844,284.342 31.995 C 284.149 32.099,284.000 32.346,284.000 32.563 C 284.000 32.775,283.846 33.088,283.658 33.258 C 283.382 33.507,283.336 33.690,283.421 34.191 C 283.508 34.708,283.467 34.851,283.180 35.031 C 282.920 35.192,282.833 35.419,282.833 35.931 C 282.833 36.403,282.730 36.708,282.500 36.917 C 282.265 37.129,282.167 37.430,282.167 37.937 C 282.167 38.484,282.088 38.697,281.833 38.833 C 281.624 38.945,281.500 39.182,281.500 39.469 C 281.500 39.720,281.350 40.054,281.167 40.211 C 280.943 40.403,280.833 40.703,280.833 41.125 C 280.833 41.737,280.226 42.667,279.827 42.667 C 279.739 42.667,279.667 42.880,279.667 43.141 C 279.667 43.403,279.518 43.750,279.333 43.917 C 279.150 44.083,279.000 44.392,279.000 44.603 C 279.000 44.818,278.852 45.067,278.667 45.167 C 278.470 45.272,278.333 45.516,278.333 45.761 C 278.333 46.023,278.118 46.375,277.750 46.712 C 277.429 47.007,277.167 47.405,277.167 47.598 C 277.167 47.791,277.017 48.084,276.833 48.250 C 276.650 48.416,276.500 48.716,276.500 48.917 C 276.500 49.117,276.350 49.417,276.167 49.583 C 275.983 49.749,275.833 50.033,275.833 50.214 C 275.833 50.629,273.816 52.667,273.406 52.667 C 272.464 52.667,272.167 51.924,272.167 49.578 C 272.167 47.604,272.134 47.355,271.837 47.086 C 271.533 46.811,271.503 46.533,271.462 43.519 L 271.417 40.250 270.250 40.217 L 269.083 40.185 268.333 41.079 C 267.782 41.736,267.464 41.976,267.135 41.986 C 266.541 42.004,266.377 41.701,266.815 41.394 C 267.009 41.259,267.167 40.976,267.167 40.766 C 267.167 40.523,267.501 40.057,268.083 39.485 C 268.602 38.977,269.000 38.438,269.000 38.246 C 269.000 38.054,269.400 37.510,269.917 37.000 C 270.708 36.219,270.833 36.008,270.833 35.462 C 270.833 35.036,270.942 34.737,271.167 34.545 C 271.400 34.345,271.500 34.053,271.500 33.572 C 271.500 33.097,271.603 32.792,271.833 32.583 C 272.121 32.323,272.167 32.070,272.167 30.732 L 272.167 29.183 271.339 28.355 L 270.512 27.528 269.240 27.560 C 268.252 27.584,267.920 27.656,267.757 27.879 C 267.617 28.070,267.318 28.167,266.863 28.167 C 266.287 28.167,266.076 28.271,265.520 28.833 C 265.156 29.200,264.726 29.500,264.564 29.500 C 264.153 29.500,263.334 30.323,263.330 30.740 C 263.329 30.953,262.604 31.808,261.414 33.000 C 260.168 34.249,259.501 35.041,259.500 35.274 C 259.500 35.470,259.387 35.674,259.250 35.727 C 259.112 35.780,259.000 35.998,259.000 36.211 C 259.000 36.444,258.734 36.859,258.333 37.250 C 257.967 37.608,257.667 38.059,257.667 38.251 C 257.667 38.444,257.404 38.856,257.083 39.167 C 256.762 39.478,256.500 39.893,256.500 40.090 C 256.500 40.287,256.350 40.584,256.167 40.750 C 255.983 40.916,255.833 41.211,255.833 41.405 C 255.833 41.600,255.683 41.888,255.500 42.045 C 255.238 42.269,255.167 42.536,255.167 43.296 C 255.167 44.245,255.151 44.276,254.250 45.167 C 253.425 45.982,253.333 46.143,253.333 46.780 C 253.333 47.318,253.253 47.531,253.000 47.667 C 252.817 47.765,252.664 48.011,252.661 48.214 C 252.643 49.484,250.262 50.056,249.276 49.027 C 249.027 48.767,248.862 48.448,248.910 48.319 C 249.044 47.955,248.798 47.702,248.249 47.640 C 247.590 47.565,247.420 46.367,247.984 45.767 C 248.320 45.410,248.320 45.405,247.995 45.202 C 247.487 44.885,247.492 39.377,248.000 38.917 C 248.266 38.676,248.333 38.403,248.333 37.566 C 248.333 36.755,248.397 36.481,248.614 36.359 C 248.802 36.254,248.899 35.979,248.906 35.535 C 248.912 35.147,249.038 34.734,249.208 34.546 C 249.387 34.348,249.500 33.957,249.500 33.534 C 249.500 33.016,249.582 32.801,249.833 32.667 C 250.094 32.527,250.167 32.318,250.167 31.701 C 250.167 31.094,250.243 30.866,250.500 30.705 C 250.754 30.547,250.833 30.317,250.833 29.743 C 250.833 29.256,250.915 28.958,251.063 28.901 C 251.191 28.852,251.341 28.455,251.400 28.007 C 251.459 27.564,251.618 27.110,251.753 26.997 C 251.950 26.834,252.000 26.308,252.000 24.396 L 252.000 22.000 250.895 22.000 C 249.706 22.000,248.333 22.953,248.333 23.778 C 248.333 23.954,248.033 24.392,247.667 24.750 C 247.299 25.109,247.000 25.561,247.000 25.758 C 247.000 25.954,246.850 26.251,246.667 26.417 C 246.483 26.583,246.333 26.868,246.333 27.051 C 246.333 27.233,246.071 27.638,245.750 27.950 C 245.429 28.261,245.167 28.660,245.167 28.835 C 245.167 29.010,244.867 29.451,244.500 29.814 C 244.133 30.177,243.831 30.611,243.828 30.779 C 243.820 31.250,243.092 31.968,242.561 32.029 C 242.183 32.072,242.072 32.177,242.032 32.532 C 241.995 32.850,241.357 33.597,239.827 35.115 C 238.502 36.429,237.672 37.379,237.670 37.586 C 237.668 37.790,236.913 38.673,235.750 39.833 C 234.680 40.900,233.833 41.881,233.833 42.054 C 233.833 42.619,232.984 43.333,232.313 43.333 C 231.545 43.333,231.155 42.941,231.656 42.672 C 231.883 42.551,232.000 42.323,232.000 42.000 C 232.000 41.682,232.116 41.449,232.333 41.333 C 232.625 41.177,232.667 40.984,232.667 39.784 C 232.667 38.626,232.715 38.383,232.978 38.219 C 233.242 38.054,233.288 37.818,233.281 36.661 C 233.274 35.550,233.324 35.269,233.553 35.141 C 233.748 35.031,233.833 34.765,233.833 34.268 C 233.833 33.763,233.932 33.462,234.167 33.250 C 234.402 33.037,234.500 32.737,234.500 32.230 C 234.500 31.682,234.579 31.469,234.833 31.333 C 235.084 31.199,235.167 30.984,235.167 30.466 C 235.167 30.075,235.279 29.652,235.427 29.489 C 235.734 29.149,235.896 26.214,235.625 25.875 C 235.528 25.752,235.071 25.667,234.515 25.667 C 233.065 25.667,232.000 26.778,232.000 28.292 C 232.000 29.151,231.945 29.351,231.667 29.500 C 231.459 29.611,231.333 29.849,231.333 30.132 C 231.333 30.406,231.201 30.669,231.000 30.795 C 230.817 30.909,230.667 31.181,230.667 31.398 C 230.667 31.615,230.554 31.886,230.417 32.000 C 230.279 32.114,230.167 32.371,230.167 32.570 C 230.167 32.772,229.876 33.216,229.509 33.575 C 229.147 33.928,228.828 34.412,228.800 34.650 C 228.759 35.004,228.651 35.093,228.208 35.136 C 227.689 35.186,227.667 35.217,227.667 35.907 C 227.667 36.686,227.480 36.936,226.833 37.026 C 226.512 37.070,226.404 37.196,226.360 37.578 C 226.330 37.850,226.161 38.173,225.985 38.296 C 225.810 38.418,225.667 38.694,225.667 38.909 C 225.667 39.146,225.438 39.500,225.083 39.811 C 224.762 40.093,224.500 40.479,224.500 40.669 C 224.500 40.861,224.095 41.436,223.588 41.964 C 223.086 42.486,222.632 43.114,222.578 43.359 C 222.524 43.605,222.372 43.847,222.240 43.898 C 222.108 43.948,222.000 44.165,222.000 44.379 C 222.000 44.608,221.731 45.039,221.345 45.429 C 220.811 45.969,220.680 46.229,220.636 46.837 C 220.590 47.490,220.531 47.590,220.167 47.639 C 219.609 47.714,218.833 48.471,218.833 48.940 C 218.833 49.147,218.714 49.384,218.568 49.465 C 218.422 49.547,218.250 49.870,218.186 50.182 C 218.098 50.619,217.976 50.763,217.660 50.806 C 217.123 50.879,216.333 51.635,216.333 52.077 C 216.333 52.269,216.183 52.554,216.000 52.711 C 215.817 52.868,215.667 53.185,215.667 53.415 C 215.667 53.752,215.584 53.833,215.242 53.833 C 214.247 53.833,212.648 56.099,213.430 56.399 C 214.046 56.635,215.331 56.502,215.667 56.167 C 215.850 55.983,216.155 55.833,216.345 55.833 C 216.771 55.833,218.167 54.410,218.167 53.976 C 218.167 53.802,218.579 53.240,219.083 52.728 C 219.588 52.216,220.000 51.663,220.000 51.499 C 220.000 51.335,220.594 50.612,221.319 49.892 C 222.122 49.096,222.660 48.421,222.694 48.168 C 222.733 47.880,222.878 47.726,223.167 47.668 C 223.746 47.550,224.500 46.844,224.500 46.419 C 224.500 46.225,224.762 45.811,225.083 45.500 C 225.416 45.177,225.667 44.770,225.667 44.552 C 225.667 44.342,225.817 44.076,226.000 43.961 C 226.183 43.847,226.333 43.579,226.333 43.366 C 226.333 43.105,226.740 42.577,227.583 41.745 C 228.271 41.066,228.834 40.377,228.836 40.214 C 228.840 39.786,229.099 39.438,229.315 39.572 C 229.417 39.635,229.500 39.889,229.500 40.136 C 229.500 40.407,229.634 40.670,229.837 40.797 C 230.161 40.999,230.150 41.030,229.503 41.663 C 228.718 42.433,228.558 43.455,229.156 43.874 C 229.386 44.035,229.494 44.339,229.531 44.925 L 229.583 45.750 231.261 45.797 C 232.770 45.840,232.969 45.810,233.245 45.505 C 233.414 45.319,233.696 45.167,233.873 45.167 C 234.381 45.167,237.000 42.484,237.000 41.964 C 237.000 41.534,237.264 41.333,237.828 41.333 C 238.041 41.333,238.162 41.161,238.239 40.750 C 238.329 40.270,238.422 40.167,238.760 40.167 C 239.276 40.167,242.000 37.544,242.000 37.047 C 242.000 36.866,242.150 36.583,242.333 36.417 C 242.517 36.251,242.667 35.953,242.667 35.755 C 242.667 35.309,243.485 34.500,243.936 34.500 C 244.120 34.500,244.488 34.274,244.752 33.998 L 245.234 33.495 244.864 33.236 C 244.337 32.867,244.560 32.667,245.500 32.667 C 246.412 32.667,246.683 32.883,246.173 33.201 C 245.921 33.359,245.833 33.590,245.833 34.098 C 245.833 34.570,245.730 34.875,245.500 35.083 C 245.317 35.249,245.167 35.544,245.167 35.739 C 245.167 35.933,245.002 36.234,244.800 36.407 L 244.433 36.720 244.800 36.964 C 245.262 37.271,245.271 37.854,244.820 38.262 L 244.474 38.576 244.862 38.891 L 245.250 39.207 244.875 39.457 C 244.589 39.648,244.500 39.868,244.500 40.382 C 244.500 40.791,244.385 41.184,244.208 41.379 C 243.766 41.868,243.757 45.380,244.197 45.778 C 244.364 45.928,244.500 46.227,244.500 46.441 C 244.500 46.655,244.650 46.924,244.833 47.039 C 245.077 47.191,245.167 47.427,245.167 47.920 C 245.167 48.856,247.083 50.833,247.991 50.833 C 248.302 50.833,248.679 50.943,248.827 51.078 C 249.007 51.240,249.651 51.355,250.755 51.421 C 251.843 51.486,252.504 51.603,252.678 51.760 C 253.068 52.113,256.304 52.104,256.440 51.750 C 256.504 51.583,256.766 51.500,257.229 51.500 C 257.852 51.500,258.022 51.401,258.919 50.508 C 259.498 49.933,260.091 49.496,260.333 49.467 C 260.649 49.429,260.769 49.297,260.833 48.917 C 260.899 48.531,261.016 48.405,261.348 48.367 C 261.605 48.337,262.138 47.952,262.675 47.408 C 263.168 46.909,263.696 46.500,263.847 46.500 C 263.998 46.500,264.312 46.350,264.545 46.167 C 264.779 45.983,265.092 45.833,265.243 45.833 C 265.700 45.833,267.167 44.244,267.167 43.747 C 267.167 43.075,268.225 43.199,268.303 43.881 C 268.333 44.136,268.501 44.435,268.678 44.546 C 269.101 44.810,269.094 45.528,268.667 45.795 C 268.479 45.912,268.333 46.183,268.333 46.417 C 268.333 46.650,268.479 46.921,268.667 47.039 C 268.969 47.227,269.000 47.427,269.000 49.181 C 269.000 50.903,269.036 51.148,269.333 51.417 C 269.517 51.583,269.667 51.896,269.667 52.114 C 269.667 52.357,269.889 52.705,270.240 53.013 C 270.560 53.294,270.836 53.710,270.865 53.954 C 270.902 54.271,271.053 54.435,271.417 54.551 C 271.692 54.638,272.049 54.826,272.211 54.967 C 272.477 55.198,272.525 55.196,272.715 54.936 C 272.836 54.770,273.273 54.600,273.753 54.531 C 274.507 54.423,274.588 54.368,274.666 53.915 C 274.732 53.533,274.851 53.405,275.175 53.367 C 275.704 53.306,278.333 50.687,278.333 50.223 C 278.333 50.046,278.633 49.608,279.000 49.250 C 279.544 48.719,279.667 48.484,279.667 47.974 C 279.667 47.288,280.277 46.500,280.808 46.500 C 281.268 46.500,281.500 46.153,281.500 45.466 C 281.500 44.946,281.619 44.717,282.167 44.186 C 282.596 43.770,282.833 43.390,282.833 43.121 C 282.833 42.891,282.936 42.663,283.062 42.615 C 283.188 42.566,283.343 42.315,283.407 42.055 C 283.472 41.796,283.781 41.340,284.096 41.042 C 284.445 40.711,284.667 40.341,284.667 40.090 C 284.667 39.849,284.805 39.604,285.000 39.500 C 285.279 39.351,285.333 39.151,285.333 38.280 L 285.333 37.239 286.250 36.333 L 287.167 35.428 287.167 33.573 C 287.167 31.930,287.205 31.684,287.500 31.417 C 287.732 31.206,287.833 30.903,287.833 30.417 C 287.833 29.930,287.934 29.627,288.167 29.417 C 288.350 29.251,288.500 28.947,288.500 28.742 C 288.500 28.537,288.612 28.326,288.750 28.273 C 288.950 28.196,289.000 27.829,289.000 26.428 C 289.000 24.849,289.033 24.661,289.333 24.500 C 289.788 24.257,289.785 23.408,289.329 23.164 C 288.941 22.956,289.039 22.667,289.497 22.667 C 290.972 22.667,291.380 20.143,290.110 18.868 C 289.399 18.154,289.397 18.154,289.090 18.493 M299.060 20.417 C 298.996 20.584,298.733 20.667,298.266 20.667 C 297.490 20.667,297.167 20.889,297.167 21.421 C 297.167 21.622,296.915 21.986,296.583 22.262 C 296.036 22.718,296.000 22.810,295.997 23.749 C 295.995 24.694,295.957 24.787,295.331 25.404 C 294.711 26.014,294.667 26.122,294.667 27.003 C 294.667 27.737,294.592 28.016,294.333 28.250 C 293.904 28.638,293.912 28.968,294.360 29.445 L 294.720 29.829 294.284 30.233 C 294.045 30.455,293.620 30.687,293.341 30.748 C 292.840 30.858,292.833 30.874,292.833 31.920 C 292.833 32.830,292.780 33.019,292.458 33.249 L 292.083 33.517 292.458 33.827 C 292.956 34.238,292.979 35.316,292.500 35.750 C 292.317 35.916,292.167 36.200,292.167 36.381 C 292.167 36.562,291.897 36.965,291.567 37.276 C 291.009 37.803,290.889 38.333,291.328 38.333 C 291.602 38.333,291.543 39.994,291.266 40.100 C 291.113 40.159,290.991 40.591,290.916 41.338 C 290.851 41.992,290.700 42.570,290.567 42.680 C 290.411 42.809,290.333 43.228,290.333 43.931 C 290.333 44.818,290.280 45.017,290.000 45.167 C 289.710 45.322,289.667 45.516,289.667 46.658 C 289.667 47.933,289.650 47.989,289.083 48.572 C 288.762 48.902,288.500 49.310,288.500 49.477 C 288.500 49.645,288.354 49.914,288.175 50.076 C 287.962 50.269,287.833 50.636,287.800 51.143 C 287.721 52.359,286.612 52.354,286.533 51.138 C 286.505 50.710,286.374 50.270,286.241 50.160 C 286.109 50.049,286.000 49.720,286.000 49.428 C 286.000 48.582,285.692 48.302,284.827 48.364 C 283.932 48.427,283.726 48.937,284.335 49.585 L 284.698 49.972 284.349 50.158 C 283.662 50.526,283.975 51.407,284.833 51.526 C 285.407 51.605,285.501 52.289,284.991 52.673 C 284.347 53.160,284.736 53.333,286.472 53.333 L 288.091 53.333 289.462 51.955 C 290.354 51.058,290.833 50.447,290.833 50.206 C 290.833 50.003,290.983 49.742,291.167 49.628 C 291.357 49.509,291.500 49.239,291.500 49.000 C 291.500 48.761,291.643 48.491,291.833 48.372 C 292.035 48.246,292.167 47.983,292.167 47.705 C 292.167 47.427,292.298 47.165,292.500 47.039 C 292.683 46.924,292.833 46.655,292.833 46.441 C 292.833 46.227,292.987 45.912,293.176 45.742 L 293.518 45.432 293.152 45.155 C 292.595 44.735,292.904 44.500,294.011 44.500 C 294.797 44.500,295.063 44.569,295.289 44.833 C 295.491 45.070,295.780 45.167,296.286 45.167 C 296.817 45.167,297.050 45.251,297.205 45.500 C 297.366 45.758,297.594 45.833,298.212 45.833 C 299.179 45.833,299.374 46.138,298.856 46.839 C 298.452 47.384,298.360 48.728,298.711 48.950 C 298.826 49.023,298.997 49.308,299.089 49.583 C 299.205 49.929,299.384 50.101,299.670 50.141 C 299.897 50.172,300.218 50.341,300.381 50.516 C 300.545 50.690,300.861 50.833,301.082 50.833 C 301.303 50.833,301.557 50.965,301.647 51.125 C 301.789 51.380,302.090 51.417,304.054 51.417 C 305.957 51.417,306.347 51.372,306.621 51.125 C 306.799 50.964,307.205 50.833,307.529 50.833 C 307.903 50.833,308.224 50.713,308.417 50.500 C 308.630 50.264,308.930 50.167,309.441 50.167 C 309.983 50.167,310.216 50.083,310.372 49.833 C 310.532 49.578,310.761 49.500,311.356 49.500 C 311.891 49.500,312.161 49.423,312.227 49.250 C 312.292 49.081,312.557 49.000,313.044 49.000 C 313.666 49.000,313.855 48.908,314.417 48.333 C 314.775 47.967,315.214 47.667,315.392 47.667 C 315.571 47.667,316.123 47.254,316.619 46.750 C 317.197 46.163,317.660 45.833,317.907 45.833 C 318.119 45.833,318.401 45.671,318.533 45.472 C 318.919 44.891,319.167 45.245,319.167 46.376 C 319.167 47.933,319.616 48.333,321.363 48.333 C 322.483 48.333,322.693 48.287,322.872 48.000 C 323.030 47.747,323.261 47.667,323.833 47.667 C 324.489 47.667,324.647 47.592,325.072 47.083 C 325.466 46.610,325.674 46.500,326.173 46.500 C 326.536 46.500,326.962 46.363,327.212 46.167 C 327.445 45.983,327.790 45.833,327.979 45.833 C 328.167 45.833,328.402 45.683,328.500 45.500 C 328.611 45.292,328.849 45.167,329.132 45.167 C 329.406 45.167,329.669 45.034,329.795 44.833 C 329.910 44.648,330.183 44.500,330.409 44.500 C 330.684 44.500,331.091 44.208,331.672 43.593 C 332.215 43.020,332.693 42.667,332.973 42.635 C 333.302 42.597,333.432 42.475,333.474 42.167 C 333.557 41.569,333.806 41.333,334.354 41.333 C 334.669 41.333,334.833 41.248,334.833 41.083 C 334.833 40.797,335.259 40.745,335.424 41.011 C 335.484 41.109,335.376 41.230,335.183 41.281 C 334.991 41.331,334.833 41.473,334.833 41.597 C 334.833 41.720,334.683 41.902,334.500 42.000 C 334.283 42.116,334.167 42.349,334.167 42.667 C 334.167 42.984,334.050 43.217,333.833 43.333 C 333.619 43.448,333.500 43.682,333.500 43.988 C 333.500 44.258,333.392 44.506,333.250 44.560 C 333.112 44.613,333.000 44.829,333.000 45.039 C 333.000 45.287,332.647 45.768,332.000 46.403 C 331.349 47.042,331.000 47.518,331.000 47.769 C 331.000 47.984,330.853 48.234,330.667 48.333 C 330.470 48.439,330.333 48.682,330.333 48.928 C 330.333 49.190,330.118 49.541,329.750 49.879 C 329.429 50.173,329.167 50.572,329.167 50.765 C 329.167 50.957,329.017 51.251,328.833 51.417 C 328.650 51.583,328.500 51.864,328.500 52.041 C 328.500 52.219,328.350 52.555,328.167 52.788 C 327.983 53.021,327.833 53.354,327.833 53.528 C 327.833 53.702,327.721 53.887,327.583 53.940 C 327.446 53.992,327.333 54.234,327.332 54.476 C 327.331 54.780,327.124 55.098,326.667 55.500 C 326.099 55.999,326.003 56.181,326.002 56.759 C 326.000 57.311,325.893 57.538,325.417 58.000 C 324.940 58.462,324.833 58.689,324.832 59.241 C 324.830 59.819,324.734 60.001,324.167 60.500 C 323.802 60.821,323.500 61.233,323.496 61.417 C 323.481 62.167,322.762 62.667,321.700 62.667 C 320.930 62.667,320.653 62.739,320.417 63.000 C 320.176 63.266,319.903 63.333,319.063 63.333 C 318.182 63.333,317.983 63.387,317.833 63.667 C 317.735 63.850,317.485 64.000,317.277 64.000 C 317.064 64.000,316.652 64.254,316.333 64.583 C 316.022 64.904,315.607 65.167,315.410 65.167 C 315.213 65.167,314.916 65.317,314.750 65.500 C 314.584 65.683,314.289 65.833,314.095 65.833 C 313.900 65.833,313.612 65.983,313.455 66.167 C 313.298 66.350,312.995 66.500,312.781 66.500 C 312.539 66.500,312.206 66.722,311.905 67.083 C 311.637 67.404,311.265 67.667,311.078 67.667 C 310.631 67.667,309.208 69.133,309.138 69.666 C 309.098 69.973,308.960 70.103,308.609 70.166 C 308.015 70.271,302.833 75.416,302.833 75.900 C 302.833 76.075,302.524 76.503,302.146 76.852 C 301.706 77.259,301.494 77.578,301.557 77.741 C 301.621 77.909,301.316 78.322,300.661 78.950 C 299.763 79.810,299.667 79.969,299.667 80.585 C 299.667 81.147,299.563 81.368,299.083 81.833 C 298.754 82.152,298.500 82.564,298.500 82.777 C 298.500 82.985,298.350 83.235,298.167 83.333 C 297.950 83.449,297.833 83.682,297.833 84.000 C 297.833 84.318,297.717 84.551,297.500 84.667 C 297.305 84.771,297.167 85.016,297.167 85.256 C 297.167 85.482,297.017 85.817,296.833 86.000 C 296.584 86.249,296.500 86.556,296.500 87.216 C 296.500 88.002,296.436 88.163,295.922 88.675 C 295.453 89.141,295.343 89.379,295.339 89.933 C 295.335 90.398,295.228 90.711,295.000 90.917 C 294.734 91.158,294.667 91.430,294.667 92.270 C 294.667 93.151,294.613 93.351,294.333 93.500 C 294.150 93.598,294.000 93.839,294.000 94.034 C 294.000 94.230,293.882 94.521,293.738 94.680 C 293.525 94.915,293.478 95.395,293.489 97.228 C 293.502 99.327,293.479 99.500,293.168 99.666 C 292.651 99.943,292.650 105.723,293.167 106.000 C 293.430 106.141,293.500 106.349,293.500 106.988 C 293.500 107.554,293.575 107.827,293.750 107.894 C 293.887 107.946,294.001 108.161,294.003 108.370 C 294.013 109.862,296.435 110.790,297.530 109.720 C 298.128 109.137,298.173 109.121,298.471 109.391 C 299.075 109.937,300.333 108.466,300.333 107.214 C 300.333 106.253,300.346 106.226,301.250 105.333 C 301.754 104.835,302.167 104.283,302.167 104.105 C 302.167 103.927,302.467 103.487,302.833 103.128 C 303.389 102.584,303.500 102.364,303.500 101.815 C 303.500 101.275,303.605 101.060,304.083 100.621 C 304.569 100.175,304.667 99.971,304.667 99.400 C 304.667 98.805,304.755 98.639,305.332 98.149 C 305.813 97.740,305.999 97.454,305.999 97.120 C 306.000 96.862,306.111 96.614,306.250 96.560 C 306.583 96.433,306.566 96.168,306.208 95.907 C 305.934 95.706,305.939 95.669,306.292 95.294 C 306.498 95.075,306.667 94.753,306.667 94.579 C 306.667 94.405,307.079 93.872,307.583 93.396 C 308.147 92.862,308.500 92.389,308.500 92.167 C 308.500 91.944,308.853 91.471,309.417 90.938 C 309.936 90.446,310.333 89.926,310.333 89.736 C 310.333 89.552,310.633 89.108,311.000 88.750 C 311.367 88.392,311.667 87.941,311.667 87.749 C 311.667 87.556,311.929 87.144,312.250 86.833 C 312.737 86.361,312.833 86.151,312.833 85.557 C 312.833 85.016,312.913 84.802,313.167 84.667 C 313.374 84.556,313.500 84.318,313.500 84.036 C 313.500 83.718,313.674 83.444,314.083 83.118 C 314.587 82.716,314.667 82.555,314.667 81.935 C 314.667 81.430,314.765 81.129,315.000 80.917 C 315.183 80.751,315.334 80.458,315.335 80.266 C 315.336 80.069,315.626 79.662,316.000 79.333 C 316.440 78.946,316.664 78.609,316.665 78.332 C 316.666 78.100,316.810 77.824,316.988 77.713 C 317.165 77.602,317.334 77.303,317.363 77.048 C 317.406 76.680,317.519 76.567,317.917 76.500 C 318.379 76.421,318.420 76.356,318.467 75.642 C 318.500 75.136,318.629 74.769,318.842 74.576 C 319.020 74.414,319.167 74.108,319.167 73.897 C 319.167 73.678,319.316 73.432,319.510 73.328 C 319.734 73.208,319.837 73.011,319.804 72.764 C 319.770 72.503,319.949 72.202,320.377 71.798 C 320.759 71.438,321.000 71.056,321.000 70.812 C 321.000 70.593,321.150 70.320,321.333 70.205 C 321.517 70.091,321.667 69.821,321.667 69.605 C 321.667 69.353,321.905 69.013,322.337 68.649 C 322.805 68.254,322.994 67.972,322.962 67.715 C 322.932 67.469,323.124 67.151,323.542 66.757 C 323.885 66.433,324.167 66.031,324.167 65.865 C 324.167 65.468,324.961 64.738,325.542 64.602 C 325.843 64.531,326.000 64.385,326.000 64.177 C 326.000 63.315,326.863 62.975,327.295 63.667 C 327.564 64.099,328.269 64.099,328.539 63.667 C 328.710 63.392,328.927 63.333,329.764 63.333 C 330.570 63.333,330.844 63.403,331.083 63.667 C 331.598 64.235,333.120 64.139,333.722 63.501 L 334.194 63.001 333.693 62.501 C 333.305 62.113,333.044 62.000,332.533 62.000 C 332.151 62.000,331.787 61.895,331.667 61.750 C 331.346 61.364,327.731 61.391,327.298 61.782 C 327.003 62.049,326.960 62.037,326.472 61.549 C 325.962 61.039,325.961 61.033,326.312 60.845 C 326.528 60.729,326.667 60.493,326.667 60.239 C 326.667 59.967,326.897 59.611,327.333 59.210 C 327.700 58.873,328.000 58.441,328.000 58.251 C 328.000 58.053,328.391 57.519,328.917 57.000 C 329.727 56.200,329.833 56.017,329.833 55.421 C 329.833 54.856,329.927 54.670,330.417 54.262 C 330.778 53.960,331.000 53.627,331.000 53.386 C 331.000 53.172,331.150 52.868,331.333 52.711 C 331.517 52.554,331.667 52.271,331.667 52.082 C 331.667 51.887,332.061 51.349,332.583 50.833 C 333.128 50.296,333.500 49.783,333.500 49.571 C 333.500 49.360,333.772 48.983,334.166 48.649 C 334.612 48.270,334.832 47.946,334.833 47.667 C 334.834 47.390,335.051 47.067,335.477 46.705 C 335.971 46.286,336.102 46.068,336.043 45.761 C 335.989 45.478,336.068 45.309,336.317 45.176 C 336.517 45.068,336.667 44.824,336.667 44.603 C 336.667 44.392,336.817 44.083,337.000 43.917 C 337.183 43.751,337.333 43.456,337.333 43.261 C 337.333 43.067,337.483 42.779,337.667 42.622 C 337.850 42.465,338.000 42.176,338.000 41.980 C 338.000 41.783,338.262 41.375,338.583 41.073 C 338.904 40.770,339.167 40.367,339.167 40.176 C 339.167 39.986,339.317 39.702,339.500 39.545 C 339.683 39.388,339.833 39.100,339.833 38.905 C 339.833 38.711,339.983 38.416,340.167 38.250 C 340.350 38.084,340.500 37.803,340.500 37.625 C 340.500 37.448,340.650 37.112,340.833 36.879 C 341.017 36.646,341.167 36.331,341.167 36.179 C 341.167 36.011,341.379 35.840,341.708 35.743 C 342.102 35.627,342.266 35.470,342.308 35.170 C 342.381 34.654,343.677 33.333,344.111 33.333 C 344.612 33.333,344.833 32.996,344.833 32.234 C 344.833 31.544,345.009 31.333,345.588 31.333 C 345.950 31.333,348.000 29.188,348.000 28.810 C 348.000 28.619,348.400 28.080,348.917 27.576 L 349.833 26.681 349.833 25.372 C 349.833 23.613,348.609 22.363,348.000 23.500 C 347.884 23.717,347.651 23.833,347.333 23.833 C 347.016 23.833,346.783 23.950,346.667 24.167 C 346.565 24.356,346.318 24.500,346.094 24.500 C 345.596 24.500,344.167 25.915,344.167 26.407 C 344.167 26.601,344.017 26.888,343.833 27.045 C 343.650 27.202,343.500 27.483,343.500 27.670 C 343.500 27.857,343.238 28.251,342.917 28.546 C 342.524 28.906,342.333 29.229,342.333 29.535 C 342.333 29.818,342.208 30.055,342.000 30.167 C 341.812 30.267,341.667 30.516,341.667 30.735 C 341.667 30.950,341.554 31.219,341.417 31.333 C 341.279 31.447,341.167 31.703,341.167 31.901 C 341.167 32.119,340.775 32.649,340.167 33.250 C 339.533 33.877,339.167 34.377,339.167 34.615 C 339.167 34.899,339.034 35.025,338.625 35.130 C 338.238 35.230,338.067 35.380,338.027 35.657 C 337.913 36.442,335.895 38.242,335.186 38.191 C 334.604 38.149,334.473 38.234,333.346 39.392 C 332.679 40.078,331.934 40.688,331.691 40.748 C 331.449 40.809,331.006 41.115,330.709 41.429 C 330.377 41.779,330.008 42.000,329.756 42.000 C 329.516 42.000,329.271 42.138,329.167 42.333 C 329.061 42.530,328.818 42.667,328.572 42.667 C 328.310 42.667,327.959 42.882,327.621 43.250 C 327.170 43.741,326.974 43.833,326.378 43.833 C 325.850 43.833,325.616 43.918,325.461 44.167 C 325.347 44.350,325.078 44.500,324.864 44.500 C 324.331 44.500,323.500 45.363,323.500 45.916 C 323.500 46.247,323.427 46.344,323.208 46.301 C 322.598 46.183,322.838 44.294,323.558 43.553 C 323.893 43.208,324.167 42.758,324.167 42.552 C 324.167 42.347,324.317 42.098,324.500 42.000 C 324.683 41.902,324.833 41.667,324.833 41.479 C 324.833 41.290,324.983 40.945,325.167 40.712 C 325.362 40.463,325.500 40.036,325.500 39.677 C 325.500 39.197,325.625 38.944,326.083 38.500 C 326.404 38.189,326.667 37.773,326.667 37.576 C 326.667 37.379,326.817 37.083,327.000 36.917 C 327.719 36.266,327.380 33.688,326.599 33.861 C 325.900 34.016,323.500 36.702,323.500 37.329 C 323.500 37.812,323.371 38.082,322.917 38.550 C 322.596 38.880,322.333 39.290,322.333 39.461 C 322.333 39.860,321.494 40.667,321.079 40.667 C 320.898 40.667,320.200 41.245,319.470 42.000 C 318.593 42.907,318.058 43.333,317.797 43.333 C 317.586 43.333,317.318 43.486,317.201 43.673 C 317.085 43.860,316.916 43.968,316.826 43.912 C 316.465 43.689,316.020 44.020,315.968 44.550 C 315.919 45.054,315.876 45.086,315.167 45.136 C 314.731 45.167,314.277 45.318,314.083 45.496 C 313.900 45.666,313.563 45.829,313.334 45.860 C 313.021 45.903,312.898 46.039,312.833 46.417 C 312.750 46.902,312.717 46.918,311.726 46.966 C 310.967 47.002,310.629 47.099,310.410 47.341 C 310.248 47.520,309.920 47.667,309.681 47.667 C 309.427 47.667,309.160 47.805,309.039 48.000 C 308.866 48.277,308.650 48.333,307.757 48.333 C 307.007 48.333,306.643 48.404,306.550 48.568 C 306.343 48.933,305.013 48.971,304.756 48.620 C 304.599 48.405,304.300 48.333,303.557 48.333 C 302.357 48.333,301.974 48.068,302.537 47.629 L 302.917 47.333 302.526 47.029 C 301.852 46.504,302.085 45.928,302.998 45.863 C 303.470 45.830,303.858 45.691,304.047 45.488 C 304.211 45.311,304.514 45.167,304.719 45.167 C 304.925 45.167,305.221 45.017,305.378 44.833 C 305.574 44.604,305.870 44.500,306.325 44.500 C 306.905 44.500,307.097 44.388,307.895 43.583 C 308.395 43.079,308.952 42.667,309.132 42.667 C 309.535 42.667,309.783 42.382,309.859 41.833 C 309.909 41.469,310.011 41.410,310.666 41.363 C 311.079 41.334,311.529 41.212,311.666 41.091 C 311.804 40.971,312.090 40.820,312.301 40.755 C 312.938 40.561,314.833 38.583,314.833 38.112 C 314.833 37.887,314.946 37.659,315.083 37.606 C 315.253 37.541,315.333 37.275,315.333 36.776 C 315.333 35.982,315.518 35.731,316.167 35.641 L 316.583 35.583 316.630 33.349 C 316.672 31.322,316.646 31.083,316.349 30.766 C 316.150 30.553,316.002 30.124,315.969 29.667 L 315.917 28.917 315.143 28.867 C 314.636 28.834,314.269 28.705,314.076 28.492 C 313.680 28.054,312.654 28.054,312.259 28.491 C 312.097 28.669,311.767 28.838,311.524 28.866 C 311.161 28.908,311.069 29.019,311.000 29.500 C 310.929 30.000,310.846 30.091,310.420 30.140 C 310.063 30.180,309.584 30.542,308.709 31.431 C 307.875 32.279,307.369 32.667,307.098 32.667 C 306.714 32.667,306.500 32.941,306.500 33.432 C 306.500 33.564,305.825 34.332,305.000 35.140 C 304.039 36.081,303.500 36.737,303.500 36.964 C 303.500 37.165,303.210 37.588,302.833 37.937 C 302.447 38.294,302.167 38.707,302.167 38.918 C 302.167 39.118,302.017 39.417,301.833 39.583 C 301.650 39.749,301.500 40.063,301.500 40.281 C 301.500 40.499,301.387 40.720,301.250 40.773 C 301.112 40.826,301.000 41.051,301.000 41.273 C 301.000 42.670,298.143 43.986,297.250 43.000 C 297.084 42.817,296.803 42.667,296.626 42.667 C 296.009 42.667,293.904 40.396,294.317 40.175 C 294.588 40.030,294.667 39.829,294.667 39.278 C 294.667 38.669,294.762 38.475,295.333 37.917 C 295.908 37.355,296.000 37.166,296.000 36.544 C 296.000 36.085,296.083 35.791,296.230 35.735 C 296.358 35.686,296.507 35.288,296.567 34.841 C 296.625 34.398,296.784 33.943,296.920 33.831 C 297.118 33.666,297.167 33.125,297.167 31.089 C 297.167 28.785,297.197 28.525,297.492 28.258 C 297.705 28.065,297.834 27.697,297.867 27.190 C 297.915 26.445,297.938 26.414,298.500 26.333 C 299.071 26.252,299.084 26.233,299.102 25.452 C 299.116 24.879,299.209 24.589,299.433 24.425 C 299.738 24.202,299.738 24.189,299.430 23.848 C 299.136 23.523,299.134 23.480,299.391 23.195 C 299.543 23.028,299.667 22.614,299.667 22.277 C 299.667 21.871,299.779 21.567,299.998 21.380 C 300.326 21.099,300.325 21.092,299.883 20.632 C 299.378 20.105,299.198 20.058,299.060 20.417 M287.097 26.812 C 287.038 26.907,286.877 26.942,286.740 26.890 C 286.545 26.815,286.534 26.743,286.689 26.557 C 286.909 26.291,287.277 26.520,287.097 26.812 M285.243 27.155 C 285.366 27.355,285.053 27.552,284.831 27.415 C 284.644 27.300,284.767 27.000,285.000 27.000 C 285.081 27.000,285.190 27.070,285.243 27.155 M169.884 27.914 C 169.902 28.005,169.785 28.104,169.625 28.135 C 169.443 28.170,169.333 28.088,169.333 27.917 C 169.333 27.627,169.826 27.625,169.884 27.914 M269.635 30.699 C 269.671 31.012,269.585 31.199,269.343 31.328 C 269.053 31.483,269.000 31.672,269.000 32.552 C 269.000 33.386,268.934 33.649,268.667 33.878 C 268.483 34.035,268.333 34.335,268.333 34.545 C 268.333 34.754,268.183 35.054,268.000 35.211 C 267.817 35.368,267.667 35.632,267.667 35.798 C 267.667 35.964,267.407 36.358,267.089 36.675 C 266.771 36.991,266.508 37.404,266.505 37.591 C 266.502 37.779,266.200 38.225,265.833 38.583 C 265.467 38.941,265.167 39.376,265.167 39.549 C 265.167 39.722,265.017 40.055,264.833 40.288 C 264.650 40.521,264.500 40.847,264.500 41.012 C 264.500 41.229,264.350 41.327,263.958 41.364 C 263.502 41.408,263.408 41.491,263.362 41.892 C 263.297 42.464,261.360 44.500,260.881 44.500 C 260.483 44.500,260.167 44.811,260.167 45.204 C 260.167 45.633,258.755 47.000,258.312 47.000 C 258.101 47.000,257.686 47.284,257.321 47.680 C 256.559 48.505,255.950 48.544,255.862 47.772 C 255.818 47.388,255.939 47.180,256.487 46.703 C 256.923 46.323,257.167 45.970,257.167 45.717 C 257.167 45.476,257.392 45.125,257.750 44.811 C 258.084 44.518,258.333 44.142,258.333 43.933 C 258.333 43.724,258.625 43.286,259.015 42.909 C 259.681 42.265,259.694 42.231,259.597 41.377 L 259.497 40.503 261.082 38.939 C 261.992 38.041,262.667 37.239,262.667 37.055 C 262.667 36.878,262.967 36.441,263.333 36.083 C 263.700 35.725,264.000 35.277,264.000 35.087 C 264.000 34.896,264.150 34.612,264.333 34.455 C 264.517 34.298,264.667 34.011,264.667 33.817 C 264.667 33.354,265.322 32.673,265.771 32.670 C 265.966 32.668,266.444 32.367,266.833 32.000 C 267.223 31.633,267.675 31.333,267.838 31.333 C 268.000 31.333,268.347 31.075,268.609 30.759 C 269.162 30.091,269.562 30.067,269.635 30.699 M246.917 31.667 C 246.917 31.959,246.205 32.105,245.962 31.862 C 245.696 31.596,245.992 31.310,246.474 31.365 C 246.734 31.395,246.917 31.520,246.917 31.667 M313.236 31.434 C 313.392 31.494,313.500 31.731,313.500 32.012 C 313.500 32.318,313.619 32.552,313.833 32.667 C 314.500 33.023,314.305 34.631,313.500 35.417 C 313.113 35.794,312.833 36.225,312.833 36.442 C 312.833 36.648,312.705 36.889,312.548 36.977 C 312.391 37.064,312.254 37.325,312.244 37.556 C 312.221 38.073,311.534 38.827,311.081 38.830 C 310.884 38.832,310.085 39.485,309.139 40.417 C 308.143 41.399,307.400 42.000,307.184 42.000 C 306.993 42.000,306.742 42.150,306.628 42.333 C 306.468 42.589,306.239 42.667,305.647 42.667 C 305.040 42.667,304.823 42.744,304.635 43.026 C 304.449 43.307,304.299 43.361,303.948 43.273 C 303.182 43.081,303.274 41.189,304.083 40.478 C 304.406 40.195,304.668 39.805,304.669 39.608 C 304.671 39.411,304.971 38.956,305.336 38.596 C 305.701 38.236,306.000 37.795,306.000 37.616 C 306.000 37.180,310.505 32.667,310.941 32.667 C 311.120 32.667,311.559 32.367,311.917 32.000 C 312.573 31.328,312.755 31.250,313.236 31.434 M230.583 37.500 C 230.503 37.630,230.407 37.640,230.296 37.529 C 230.204 37.437,230.183 37.274,230.250 37.167 C 230.331 37.036,230.427 37.027,230.538 37.138 C 230.629 37.229,230.650 37.392,230.583 37.500 M73.800 38.367 C 74.144 38.711,74.052 39.961,73.667 40.167 C 73.459 40.278,73.333 40.516,73.333 40.799 C 73.333 41.073,73.201 41.336,73.000 41.461 C 72.748 41.619,72.667 41.850,72.667 42.411 C 72.667 43.059,72.593 43.211,72.083 43.618 C 71.716 43.911,71.500 44.227,71.500 44.473 C 71.500 44.738,71.100 45.255,70.250 46.089 C 69.504 46.820,69.000 47.452,69.000 47.654 C 69.000 48.105,66.935 50.167,66.484 50.167 C 66.275 50.167,65.660 50.659,64.922 51.417 C 63.673 52.698,62.624 53.106,62.227 52.463 C 62.026 52.138,62.174 50.930,62.432 50.783 C 62.577 50.701,62.667 50.376,62.667 49.934 C 62.667 49.430,62.765 49.129,63.000 48.917 C 63.230 48.708,63.333 48.403,63.333 47.931 C 63.333 47.427,63.421 47.192,63.667 47.039 C 63.850 46.924,64.000 46.655,64.000 46.441 C 64.000 46.227,64.150 45.916,64.333 45.750 C 64.517 45.584,64.667 45.276,64.667 45.066 C 64.667 44.855,64.773 44.623,64.902 44.550 C 65.032 44.477,65.163 44.192,65.194 43.917 C 65.237 43.528,65.343 43.404,65.667 43.361 C 66.185 43.292,67.167 42.375,67.167 41.959 C 67.167 41.550,69.897 38.833,70.307 38.833 C 70.483 38.833,70.715 38.725,70.825 38.593 C 71.172 38.175,73.436 38.003,73.800 38.367 M132.749 38.360 C 133.158 38.769,132.825 40.844,132.370 40.725 C 132.168 40.672,131.771 40.968,131.120 41.657 C 130.450 42.365,130.041 42.667,129.751 42.667 C 129.517 42.667,129.245 42.812,129.128 43.000 C 129.005 43.197,128.739 43.333,128.478 43.333 C 128.232 43.333,127.992 43.448,127.936 43.592 C 127.725 44.144,126.083 43.842,126.083 43.252 C 126.083 42.851,126.166 42.737,126.509 42.668 C 127.156 42.539,127.833 41.925,127.833 41.468 C 127.833 40.941,128.127 40.667,128.689 40.667 C 129.082 40.667,129.153 40.591,129.198 40.125 C 129.244 39.649,129.315 39.577,129.791 39.531 C 130.224 39.489,130.352 39.389,130.430 39.031 C 130.484 38.785,130.555 38.494,130.589 38.384 C 130.649 38.187,132.555 38.166,132.749 38.360 M133.500 42.348 C 133.500 42.931,133.426 43.206,133.250 43.273 C 133.088 43.335,133.000 43.594,133.000 44.012 C 133.000 44.802,132.222 45.785,131.533 45.865 C 131.180 45.905,131.072 46.017,131.030 46.381 C 130.963 46.963,129.123 48.777,128.447 48.927 C 128.189 48.984,127.937 49.137,127.888 49.266 C 127.838 49.395,127.621 49.500,127.406 49.500 C 127.162 49.500,126.780 49.753,126.397 50.167 C 125.812 50.799,125.729 50.833,124.801 50.833 C 123.768 50.833,123.295 50.471,123.891 50.138 C 124.103 50.019,124.167 49.736,124.167 48.914 C 124.167 48.016,124.220 47.817,124.500 47.667 C 124.708 47.555,124.833 47.318,124.833 47.034 C 124.833 46.766,124.965 46.498,125.155 46.379 C 125.332 46.269,125.501 45.969,125.530 45.714 L 125.583 45.250 127.244 45.202 C 128.640 45.161,128.952 45.102,129.208 44.827 C 129.376 44.647,129.680 44.500,129.883 44.500 C 130.087 44.500,130.347 44.350,130.461 44.167 C 130.576 43.983,130.838 43.833,131.044 43.833 C 131.555 43.833,132.833 42.607,132.833 42.117 C 132.833 41.695,133.140 41.297,133.360 41.433 C 133.437 41.481,133.500 41.893,133.500 42.348 M294.667 43.583 C 294.667 43.721,294.559 43.833,294.427 43.833 C 294.148 43.833,293.960 43.595,294.116 43.440 C 294.315 43.241,294.667 43.332,294.667 43.583 M74.467 44.033 C 74.761 44.328,74.710 44.780,74.345 45.120 C 74.142 45.309,74.003 45.697,73.970 46.168 C 73.923 46.823,73.865 46.924,73.500 46.973 C 72.941 47.047,72.167 47.804,72.167 48.275 C 72.167 48.484,72.017 48.735,71.833 48.833 C 71.635 48.940,71.500 49.182,71.500 49.434 C 71.500 49.755,70.942 50.415,69.178 52.178 L 66.857 54.500 65.206 54.500 C 64.298 54.500,63.506 54.451,63.446 54.390 C 63.262 54.207,63.684 53.833,64.075 53.833 C 64.291 53.833,64.642 53.593,64.928 53.250 C 65.230 52.888,65.563 52.667,65.805 52.667 C 66.081 52.667,66.749 52.108,68.094 50.750 C 69.516 49.314,70.098 48.833,70.413 48.833 C 70.760 48.833,70.834 48.753,70.835 48.375 C 70.836 48.051,71.031 47.746,71.500 47.333 C 71.866 47.011,72.164 46.597,72.165 46.408 C 72.166 46.219,72.429 45.811,72.750 45.500 C 73.077 45.183,73.333 44.769,73.333 44.559 C 73.333 43.978,74.070 43.637,74.467 44.033 M321.000 44.126 C 321.000 44.195,320.775 44.463,320.501 44.722 L 320.002 45.193 319.833 44.749 C 319.740 44.505,319.707 44.237,319.759 44.153 C 319.871 43.970,321.000 43.945,321.000 44.126 M322.167 44.264 C 322.167 44.558,321.808 44.507,321.705 44.198 C 321.669 44.089,321.758 44.000,321.903 44.000 C 322.048 44.000,322.167 44.119,322.167 44.264 M108.500 46.657 C 108.500 46.882,108.196 47.038,107.997 46.915 C 107.904 46.857,107.871 46.740,107.924 46.655 C 108.049 46.453,108.500 46.454,108.500 46.657 M319.909 66.258 C 320.431 66.779,320.469 67.502,319.991 67.800 C 319.774 67.936,319.683 68.121,319.741 68.306 C 319.804 68.503,319.616 68.812,319.167 69.250 C 318.800 69.608,318.499 70.055,318.498 70.242 C 318.497 70.430,318.198 70.846,317.833 71.167 C 317.255 71.675,317.170 71.841,317.168 72.463 C 317.167 73.065,317.075 73.261,316.583 73.712 C 316.262 74.007,316.000 74.405,316.000 74.598 C 316.000 74.791,315.850 75.084,315.667 75.250 C 315.483 75.416,315.333 75.716,315.333 75.917 C 315.333 76.117,315.183 76.417,315.000 76.583 C 314.817 76.749,314.667 77.048,314.667 77.247 C 314.667 77.457,314.422 77.813,314.083 78.095 C 313.762 78.363,313.499 78.732,313.498 78.916 C 313.497 79.100,313.197 79.572,312.831 79.966 C 312.466 80.359,312.167 80.819,312.167 80.987 C 312.167 81.155,312.054 81.386,311.917 81.500 C 311.779 81.614,311.665 81.867,311.664 82.062 C 311.662 82.257,311.362 82.711,310.997 83.071 C 310.439 83.622,310.333 83.833,310.333 84.405 C 310.333 84.979,310.242 85.161,309.750 85.572 C 309.250 85.988,309.167 86.160,309.167 86.770 C 309.167 87.281,309.077 87.544,308.848 87.704 C 308.673 87.827,308.504 88.150,308.473 88.422 C 308.425 88.846,308.333 88.929,307.833 89.000 C 307.259 89.082,307.249 89.096,307.199 89.967 C 307.166 90.548,307.066 90.882,306.908 90.943 C 306.775 90.994,306.667 91.179,306.667 91.355 C 306.667 91.530,306.367 92.000,306.000 92.397 C 305.633 92.795,305.333 93.269,305.333 93.451 C 305.333 93.633,305.183 93.917,305.000 94.083 C 304.817 94.249,304.667 94.552,304.667 94.755 C 304.667 94.959,304.554 95.219,304.417 95.333 C 304.279 95.447,304.167 95.716,304.167 95.931 C 304.167 96.151,304.021 96.400,303.833 96.500 C 303.650 96.598,303.500 96.848,303.500 97.055 C 303.500 97.276,303.223 97.703,302.833 98.083 C 302.467 98.441,302.167 98.892,302.167 99.084 C 302.167 99.277,301.904 99.689,301.583 100.000 C 301.120 100.449,301.000 100.695,301.000 101.193 C 301.000 101.704,300.876 101.943,300.333 102.480 C 299.967 102.844,299.667 103.285,299.667 103.462 C 299.667 103.857,297.547 106.000,297.157 106.000 C 296.531 106.000,296.340 104.282,296.941 104.051 C 297.247 103.934,297.228 103.051,296.916 102.876 C 296.716 102.764,296.656 102.266,296.617 100.370 C 296.573 98.247,296.535 97.978,296.242 97.763 C 295.922 97.527,295.922 97.518,296.292 97.172 C 296.498 96.979,296.667 96.633,296.667 96.405 C 296.667 96.176,296.779 95.946,296.917 95.894 C 297.109 95.820,297.167 95.501,297.167 94.510 C 297.167 93.244,297.177 93.211,297.831 92.487 C 298.341 91.921,298.496 91.612,298.498 91.158 C 298.499 90.701,298.634 90.436,299.083 90.000 C 299.650 89.451,299.667 89.398,299.667 88.160 C 299.667 87.097,299.722 86.835,300.000 86.583 C 300.183 86.417,300.333 86.117,300.333 85.917 C 300.333 85.716,300.483 85.416,300.667 85.250 C 300.850 85.084,301.000 84.782,301.000 84.578 C 301.000 84.374,301.105 84.120,301.234 84.014 C 301.362 83.907,301.516 83.625,301.576 83.387 C 301.636 83.149,302.093 82.562,302.592 82.082 C 303.195 81.503,303.500 81.076,303.500 80.812 C 303.500 80.593,303.650 80.320,303.833 80.205 C 304.017 80.091,304.167 79.819,304.167 79.602 C 304.167 79.385,304.279 79.114,304.417 79.000 C 304.554 78.886,304.667 78.643,304.667 78.460 C 304.667 78.255,305.528 77.271,306.917 75.889 C 308.586 74.229,309.167 73.546,309.167 73.242 C 309.167 72.921,309.253 72.833,309.571 72.833 C 309.822 72.833,310.221 72.581,310.628 72.167 C 311.180 71.604,311.388 71.500,311.964 71.500 C 312.657 71.500,312.942 71.288,312.867 70.831 C 312.809 70.476,314.330 69.038,314.833 68.971 C 315.132 68.932,315.266 68.799,315.308 68.500 C 315.397 67.851,315.648 67.667,316.442 67.667 C 316.942 67.667,317.208 67.587,317.273 67.417 C 317.326 67.279,317.505 67.167,317.671 67.167 C 318.248 67.167,318.500 66.967,318.500 66.510 C 318.500 65.693,319.216 65.564,319.909 66.258 " stroke="none" fill="#e76320" fill-rule="evenodd"></path></g></svg>