<svg id="svg" version="1.1" width="400" height="117.27748691099477" viewBox="0 0 400 117.27748691099477" xmlns="http://www.w3.org/2000/svg" xmlns:xlink="http://www.w3.org/1999/xlink" ><g id="svgg"><path id="path1" d="M196.083 8.153 C 193.628 8.534,192.828 8.731,191.838 9.195 C 189.813 10.144,188.428 10.846,188.339 10.971 C 188.186 11.184,186.031 12.667,185.875 12.667 C 185.794 12.667,185.575 12.835,185.390 13.042 C 185.205 13.248,184.648 13.801,184.152 14.270 C 183.128 15.239,182.443 15.981,181.249 17.417 C 180.791 17.967,180.375 18.454,180.324 18.500 C 180.083 18.717,177.974 21.552,177.241 22.645 C 176.151 24.270,175.036 26.177,173.917 28.332 C 173.642 28.862,173.330 29.397,173.223 29.522 C 173.117 29.648,172.899 30.087,172.739 30.500 C 172.579 30.912,172.360 31.363,172.252 31.500 C 172.143 31.637,171.958 32.012,171.840 32.333 C 171.721 32.654,171.412 33.367,171.153 33.917 C 170.894 34.467,170.573 35.254,170.440 35.667 C 170.307 36.079,170.084 36.720,169.945 37.091 C 167.183 44.443,168.032 49.079,172.786 52.600 C 173.500 53.129,174.168 53.624,174.271 53.701 C 174.832 54.116,178.891 55.353,180.167 55.496 C 180.946 55.584,182.267 55.733,183.102 55.828 C 185.727 56.125,190.567 55.733,192.365 55.076 C 193.547 54.645,194.370 54.390,195.250 54.181 C 198.454 53.423,205.000 49.959,207.404 47.750 C 207.604 47.567,208.007 47.215,208.301 46.969 C 210.136 45.428,211.333 42.969,211.333 40.743 C 211.333 39.850,211.389 39.634,211.667 39.461 C 212.156 39.156,212.078 38.880,211.526 38.961 C 211.019 39.035,210.862 38.699,210.583 36.951 C 210.335 35.395,208.928 33.221,206.245 30.250 C 204.386 28.190,204.058 27.730,203.917 26.977 C 203.776 26.225,204.234 24.289,204.740 23.500 C 204.946 23.179,205.211 22.617,205.328 22.250 C 205.446 21.883,205.635 21.471,205.749 21.333 C 205.949 21.092,206.842 19.239,207.062 18.608 C 207.921 16.142,207.759 12.958,206.706 11.635 C 205.343 9.921,203.605 8.623,202.294 8.338 C 201.192 8.100,197.192 7.980,196.083 8.153 M219.071 10.079 C 218.329 11.211,218.397 15.524,219.184 17.273 C 220.304 19.758,220.493 20.082,221.680 21.540 C 222.921 23.065,223.633 23.651,224.307 23.703 C 225.095 23.764,225.071 23.598,223.991 21.435 C 223.537 20.528,223.167 19.696,223.167 19.585 C 223.167 19.475,223.011 18.942,222.820 18.401 C 222.355 17.080,222.014 15.426,222.006 14.453 C 221.995 12.975,220.903 10.297,220.153 9.910 C 219.515 9.580,219.385 9.600,219.071 10.079 M201.581 10.613 C 202.242 10.723,203.782 12.070,204.776 13.409 C 205.378 14.220,205.461 16.245,204.975 18.250 C 204.687 19.441,203.070 23.614,202.607 24.363 C 201.977 25.384,199.682 25.034,198.044 23.666 C 197.686 23.367,196.566 22.833,196.297 22.833 C 196.191 22.833,195.950 22.691,195.761 22.517 C 195.572 22.343,195.044 22.075,194.587 21.923 C 194.131 21.770,193.680 21.580,193.585 21.501 C 193.490 21.422,193.121 21.333,192.765 21.304 C 192.022 21.242,191.737 21.594,192.396 21.760 C 192.627 21.818,192.939 22.052,193.089 22.281 C 193.239 22.510,193.674 22.847,194.056 23.030 C 196.630 24.261,198.675 26.071,202.399 30.417 C 203.586 31.802,204.182 32.551,204.355 32.873 C 204.459 33.069,204.685 33.379,204.856 33.563 C 205.027 33.746,205.167 33.962,205.167 34.043 C 205.167 34.124,205.392 34.517,205.667 34.917 C 205.942 35.316,206.167 35.691,206.167 35.749 C 206.167 35.807,206.430 36.394,206.752 37.054 C 207.751 39.103,207.746 42.608,206.742 43.776 C 206.517 44.037,206.334 44.305,206.334 44.372 C 206.333 44.723,203.854 47.172,202.222 48.433 C 200.084 50.085,194.769 52.405,190.500 53.550 C 187.272 54.415,181.464 54.654,180.000 53.982 C 179.588 53.792,178.790 53.494,178.228 53.318 C 177.666 53.143,177.113 52.887,177.000 52.749 C 176.886 52.612,176.720 52.500,176.631 52.500 C 176.542 52.500,176.043 52.201,175.521 51.835 C 172.507 49.720,171.331 46.057,172.382 42.057 C 172.620 41.155,172.916 39.967,173.042 39.417 C 173.265 38.440,173.282 38.417,173.802 38.448 C 174.352 38.481,174.522 38.275,174.083 38.106 C 173.648 37.939,173.790 36.704,174.420 35.174 C 174.739 34.400,175.000 33.684,175.000 33.585 C 175.000 33.485,175.148 33.114,175.328 32.760 C 175.509 32.405,175.781 31.733,175.933 31.266 C 176.085 30.799,176.304 30.304,176.419 30.167 C 176.535 30.029,176.790 29.579,176.987 29.167 C 177.905 27.243,179.361 24.681,180.113 23.667 C 180.419 23.254,180.924 22.538,181.234 22.076 C 181.545 21.614,181.920 21.136,182.066 21.014 C 182.213 20.892,182.333 20.718,182.333 20.627 C 182.333 20.130,188.586 14.500,189.139 14.500 C 189.237 14.500,189.377 14.402,189.450 14.283 C 189.523 14.164,189.846 13.886,190.167 13.666 C 190.487 13.446,190.787 13.219,190.833 13.162 C 190.912 13.064,192.474 12.246,194.478 11.253 C 195.862 10.567,199.381 10.250,201.581 10.613 M53.299 17.976 C 52.867 18.079,52.576 18.427,51.293 20.386 C 51.042 20.770,50.755 21.285,50.655 21.531 C 50.305 22.399,48.812 25.067,48.636 25.139 C 48.561 25.169,48.500 25.308,48.500 25.446 C 48.500 25.585,48.363 25.898,48.196 26.141 C 48.029 26.384,47.756 26.883,47.589 27.250 C 47.423 27.617,47.138 28.128,46.957 28.387 C 46.775 28.646,46.527 29.171,46.406 29.554 C 46.087 30.560,45.428 32.404,44.908 33.750 C 42.092 41.035,40.754 53.766,42.421 57.411 C 43.613 60.017,47.175 61.689,50.407 61.160 C 52.532 60.812,55.811 59.850,57.083 59.202 C 57.358 59.062,57.846 58.885,58.167 58.808 C 59.970 58.379,62.144 58.007,63.833 57.840 C 65.829 57.641,68.823 56.666,69.277 56.065 C 69.384 55.925,69.770 55.609,70.136 55.363 C 70.502 55.118,71.223 54.594,71.739 54.199 C 72.841 53.356,73.935 53.246,74.243 53.947 C 74.331 54.148,74.576 54.391,74.788 54.487 C 75.000 54.584,75.245 54.851,75.333 55.081 C 75.420 55.312,75.609 55.500,75.753 55.500 C 75.896 55.500,76.319 55.656,76.694 55.847 C 78.000 56.514,83.381 55.304,84.070 54.188 C 84.342 53.749,85.338 53.985,86.146 54.681 C 87.649 55.976,89.387 56.554,90.391 56.092 C 90.680 55.959,91.404 55.690,92.000 55.494 C 92.596 55.298,93.196 55.040,93.333 54.921 C 93.960 54.377,97.000 53.062,97.000 53.335 C 97.000 53.406,97.184 53.510,97.410 53.567 C 97.639 53.624,98.050 54.005,98.343 54.431 C 100.517 57.591,102.453 57.342,106.500 53.382 C 110.180 49.780,110.255 49.724,111.168 49.861 C 111.664 49.936,112.295 51.614,112.524 53.469 C 112.800 55.708,113.171 56.363,114.130 56.300 C 115.080 56.239,115.124 56.123,115.156 53.667 C 115.209 49.456,115.587 47.625,116.616 46.596 C 117.151 46.061,118.043 45.877,118.532 46.202 C 118.852 46.415,118.926 46.407,119.196 46.137 C 119.456 45.877,119.772 45.835,121.375 45.846 C 124.482 45.867,124.977 46.265,124.992 48.751 C 125.019 53.264,127.742 54.878,131.424 52.562 C 132.596 51.825,134.794 50.045,136.483 48.465 C 138.598 46.485,140.000 46.821,140.000 49.306 C 140.000 51.080,141.509 53.848,142.135 53.222 C 142.630 52.727,142.513 46.589,141.982 45.208 C 141.885 44.956,141.667 44.112,141.496 43.333 C 140.740 39.878,139.001 37.335,136.788 36.451 C 135.925 36.106,135.732 35.956,135.645 35.560 L 135.539 35.083 135.520 35.605 C 135.499 36.150,135.229 36.338,134.083 36.605 C 133.351 36.776,131.750 38.122,128.832 41.018 C 124.928 44.893,125.111 44.792,122.948 44.272 C 122.324 44.123,121.558 44.000,121.246 44.000 C 120.934 44.000,120.283 43.856,119.798 43.680 C 119.313 43.504,118.579 43.307,118.167 43.243 C 116.741 43.023,115.745 42.235,115.249 40.937 C 115.013 40.320,114.802 40.073,114.287 39.810 L 113.627 39.473 113.069 40.013 C 112.652 40.418,112.466 40.787,112.330 41.485 C 112.062 42.855,111.846 43.467,111.399 44.125 C 111.180 44.448,111.000 44.860,111.000 45.040 C 111.000 45.219,110.793 45.565,110.539 45.808 C 110.285 46.051,109.984 46.438,109.869 46.667 C 109.660 47.081,109.172 47.801,108.458 48.746 C 107.726 49.715,105.731 51.729,104.391 52.851 L 103.032 53.990 102.181 53.769 C 100.202 53.255,99.897 51.492,101.083 47.417 C 101.918 44.548,101.989 43.268,101.359 42.490 L 101.046 42.104 100.439 42.605 C 99.794 43.136,98.500 45.554,98.500 46.226 C 98.500 46.429,98.238 47.002,97.917 47.500 C 97.596 47.998,97.333 48.468,97.333 48.544 C 97.333 48.620,97.165 48.860,96.958 49.078 C 96.752 49.296,96.358 49.752,96.083 50.092 C 95.242 51.131,93.937 52.334,93.537 52.439 C 93.329 52.494,93.089 52.668,93.004 52.826 C 92.919 52.985,92.348 53.279,91.736 53.480 L 90.622 53.846 90.064 53.465 C 88.947 52.702,88.725 49.959,89.655 48.426 C 89.825 48.146,90.017 47.654,90.081 47.333 C 90.145 47.012,90.385 46.347,90.614 45.854 C 92.648 41.472,90.299 40.913,87.936 45.217 C 87.695 45.657,87.419 46.107,87.323 46.217 C 87.227 46.327,86.797 47.019,86.366 47.755 C 83.534 52.595,79.802 55.183,78.034 53.532 C 77.084 52.644,77.134 49.567,78.141 47.000 C 78.411 46.313,78.741 45.375,78.874 44.917 C 79.049 44.313,79.259 43.991,79.635 43.750 C 80.297 43.325,80.314 43.000,79.675 43.000 C 79.296 43.000,78.951 42.768,78.168 41.988 L 77.153 40.976 77.202 39.701 C 77.246 38.531,77.284 38.408,77.667 38.215 C 78.075 38.009,78.071 38.005,77.458 38.002 C 76.988 38.001,76.833 37.932,76.833 37.723 C 76.833 36.957,76.010 36.020,75.078 35.726 C 73.227 35.143,71.066 36.061,68.167 38.661 C 66.258 40.373,66.323 40.310,65.913 40.854 C 64.638 42.548,63.579 43.929,63.501 44.000 C 63.304 44.180,61.873 46.774,61.754 47.167 C 61.685 47.396,61.495 47.846,61.331 48.167 C 61.027 48.762,60.833 49.616,60.498 51.833 C 60.233 53.581,59.868 54.922,59.476 55.586 C 59.091 56.240,56.426 57.664,55.577 57.670 C 55.305 57.672,54.765 57.818,54.377 57.995 C 52.082 59.036,48.257 59.006,46.862 57.936 C 44.465 56.096,44.082 55.145,44.100 51.083 C 44.113 48.167,44.204 47.250,44.684 45.167 C 44.779 44.754,44.925 44.117,45.009 43.750 C 45.613 41.099,46.567 37.391,46.897 36.417 C 47.114 35.775,47.347 34.987,47.414 34.667 C 47.482 34.346,47.629 33.971,47.741 33.833 C 47.854 33.696,48.039 33.133,48.153 32.583 C 48.267 32.033,48.542 31.228,48.764 30.795 C 48.985 30.361,49.167 29.905,49.167 29.781 C 49.167 29.658,49.354 29.188,49.583 28.737 C 49.812 28.286,50.085 27.654,50.189 27.333 C 50.421 26.624,51.603 24.351,51.930 23.987 C 52.060 23.842,52.167 23.677,52.167 23.620 C 52.167 23.563,52.504 22.809,52.917 21.943 C 53.329 21.078,53.667 20.253,53.667 20.110 C 53.667 19.494,54.050 19.000,54.527 19.000 C 54.951 19.000,55.000 18.943,55.000 18.449 C 55.000 17.855,54.449 17.702,53.299 17.976 M300.351 18.121 C 298.941 18.387,296.333 21.553,296.333 22.998 C 296.333 23.157,296.163 23.541,295.954 23.852 C 295.745 24.162,295.467 24.754,295.336 25.167 C 295.205 25.579,294.963 26.142,294.799 26.417 C 294.421 27.051,294.368 29.406,294.727 29.617 C 295.339 29.975,295.675 31.369,295.351 32.200 C 295.269 32.411,295.119 32.883,295.019 33.250 C 294.253 36.054,293.970 36.925,293.673 37.406 C 293.486 37.708,293.333 38.083,293.333 38.238 C 293.333 38.393,293.033 39.148,292.667 39.917 C 292.300 40.685,292.000 41.352,292.000 41.399 C 292.000 41.447,291.813 41.761,291.583 42.099 C 291.354 42.437,291.167 42.842,291.167 43.000 C 291.167 43.158,290.942 43.571,290.667 43.917 C 290.392 44.263,290.166 44.667,290.166 44.815 C 290.166 44.962,290.000 45.346,289.798 45.667 C 289.596 45.987,289.066 46.962,288.620 47.833 C 288.174 48.704,287.673 49.567,287.507 49.750 C 287.341 49.933,287.084 50.325,286.934 50.620 C 286.785 50.915,286.519 51.234,286.343 51.328 C 286.167 51.423,285.977 51.644,285.921 51.820 C 285.860 52.012,285.509 52.246,285.044 52.404 L 284.268 52.669 283.724 52.141 C 283.340 51.769,283.128 51.363,283.005 50.765 C 282.728 49.412,282.336 46.006,282.335 44.930 C 282.331 41.879,281.736 40.833,280.006 40.833 C 278.207 40.833,278.147 40.159,279.727 37.700 C 282.410 33.523,283.238 28.970,281.500 27.943 C 280.670 27.453,279.373 27.398,278.460 27.814 C 278.034 28.008,277.619 28.167,277.539 28.167 C 277.167 28.167,274.968 29.761,273.917 30.791 C 272.446 32.234,271.167 33.650,271.167 33.834 C 271.167 33.912,271.072 34.075,270.956 34.196 C 270.658 34.508,268.284 38.117,267.850 38.917 C 267.652 39.283,267.255 39.958,266.969 40.417 C 266.430 41.281,265.756 42.484,265.009 43.917 C 264.770 44.375,264.239 45.300,263.829 45.973 C 263.419 46.646,262.923 47.461,262.727 47.784 C 262.531 48.108,262.180 48.549,261.948 48.765 C 261.716 48.980,261.477 49.309,261.418 49.495 C 261.073 50.581,258.397 48.878,257.799 47.191 C 257.478 46.288,257.537 39.796,257.880 38.250 C 258.250 36.578,258.939 34.001,259.171 33.417 C 259.280 33.142,259.509 32.359,259.678 31.677 C 259.848 30.995,260.137 30.057,260.321 29.593 C 260.505 29.129,260.771 28.000,260.912 27.083 C 261.389 23.990,261.652 22.933,262.011 22.660 C 262.415 22.353,262.279 22.167,261.652 22.167 C 261.400 22.167,260.975 22.041,260.707 21.888 C 260.002 21.483,259.310 22.057,256.912 25.034 C 256.786 25.190,256.565 25.546,256.421 25.826 C 256.276 26.105,256.097 26.333,256.022 26.333 C 255.948 26.333,255.793 26.540,255.679 26.792 C 255.456 27.284,254.772 28.253,253.833 29.406 C 253.512 29.801,253.137 30.264,253.000 30.437 C 252.862 30.609,252.450 31.124,252.083 31.582 C 251.717 32.039,251.357 32.489,251.285 32.582 C 251.213 32.674,250.778 33.162,250.320 33.667 C 249.861 34.171,249.376 34.786,249.243 35.033 C 249.109 35.281,248.899 35.543,248.776 35.617 C 248.580 35.733,247.242 37.231,245.988 38.736 C 245.766 39.004,244.909 39.930,244.085 40.795 C 240.812 44.229,240.457 43.629,242.086 37.417 C 242.326 36.500,242.660 35.112,242.828 34.333 C 242.996 33.554,243.219 32.697,243.324 32.428 C 244.336 29.837,244.495 24.667,243.562 24.667 C 243.236 24.667,243.167 24.752,243.167 25.155 C 243.167 25.676,242.862 26.082,242.349 26.245 C 242.175 26.300,241.991 26.513,241.940 26.718 C 241.888 26.922,241.691 27.257,241.501 27.461 C 241.311 27.664,241.003 28.150,240.817 28.541 C 240.199 29.832,239.588 30.920,239.215 31.394 C 239.013 31.651,238.796 32.023,238.734 32.222 C 238.673 32.421,238.394 32.921,238.115 33.333 C 237.836 33.746,237.481 34.273,237.326 34.505 C 237.171 34.737,236.873 35.262,236.664 35.671 C 236.455 36.081,236.199 36.491,236.095 36.583 C 235.908 36.748,235.016 38.080,234.400 39.114 C 234.226 39.407,233.708 40.197,233.250 40.870 C 232.792 41.544,232.342 42.215,232.250 42.362 C 232.158 42.509,231.722 43.144,231.281 43.773 C 230.840 44.402,230.090 45.527,229.614 46.273 C 228.750 47.629,227.727 49.001,226.708 50.169 C 226.410 50.511,226.167 50.846,226.167 50.914 C 226.167 50.982,225.803 51.461,225.358 51.977 C 222.398 55.413,221.909 56.488,223.303 56.497 C 223.542 56.499,224.044 56.166,224.619 55.625 C 226.717 53.652,228.333 52.028,228.335 51.893 C 228.335 51.814,228.767 51.285,229.293 50.717 C 229.819 50.149,230.775 49.034,231.417 48.239 C 232.058 47.444,233.033 46.270,233.583 45.631 C 234.133 44.991,234.702 44.288,234.847 44.069 C 235.239 43.475,236.325 42.333,236.497 42.333 C 236.580 42.333,236.781 42.108,236.943 41.833 C 237.574 40.766,237.953 41.128,238.088 42.923 C 238.268 45.321,239.329 46.216,241.058 45.427 C 241.347 45.295,241.865 45.074,242.208 44.936 C 242.552 44.797,242.833 44.612,242.833 44.525 C 242.833 44.438,243.085 44.218,243.393 44.036 C 244.710 43.259,245.793 42.231,251.674 36.178 C 254.546 33.221,255.311 33.306,254.761 36.520 C 254.629 37.288,254.477 38.554,254.423 39.333 C 254.369 40.112,254.243 41.696,254.144 42.853 C 253.820 46.611,254.866 49.165,257.217 50.357 C 257.602 50.552,257.954 50.770,258.000 50.841 C 258.254 51.231,261.336 52.040,262.891 52.124 C 264.642 52.219,267.172 51.674,268.170 50.988 C 268.401 50.829,269.002 50.504,269.506 50.265 C 270.010 50.026,271.096 49.307,271.920 48.667 C 272.743 48.027,273.698 47.351,274.042 47.165 C 274.385 46.979,274.667 46.752,274.667 46.661 C 274.667 46.483,276.092 45.482,277.212 44.875 C 277.849 44.530,279.167 44.352,279.167 44.611 C 279.167 45.895,280.188 51.206,280.728 52.735 C 281.105 53.800,282.495 55.000,283.353 55.000 C 285.293 55.000,288.999 51.407,291.359 47.238 C 291.511 46.969,292.017 46.127,292.484 45.365 C 292.951 44.603,293.333 43.943,293.333 43.899 C 293.333 43.854,293.596 43.407,293.917 42.905 C 294.237 42.404,294.500 41.956,294.500 41.910 C 294.500 41.864,294.685 41.547,294.911 41.205 C 295.137 40.863,295.412 40.321,295.523 40.000 C 295.633 39.679,295.912 39.130,296.143 38.779 C 296.790 37.793,298.110 34.506,298.597 32.667 C 298.730 32.162,298.908 31.627,298.993 31.477 C 299.077 31.327,299.235 30.727,299.345 30.144 C 299.454 29.561,299.652 28.671,299.784 28.167 C 299.916 27.662,300.206 26.537,300.430 25.667 C 300.653 24.796,300.954 23.733,301.097 23.305 C 301.886 20.947,302.018 19.389,301.502 18.542 C 301.173 18.002,301.107 17.978,300.351 18.121 M309.811 20.458 C 309.479 20.802,309.042 21.434,308.841 21.862 C 308.640 22.290,308.369 22.681,308.238 22.732 C 308.107 22.782,308.000 22.978,308.000 23.167 C 308.000 23.500,307.407 25.197,306.572 27.250 C 306.349 27.800,306.166 28.371,306.166 28.519 C 306.166 28.667,305.938 29.342,305.658 30.019 C 304.802 32.090,304.500 33.179,304.500 34.192 C 304.500 34.823,304.358 35.528,304.095 36.207 C 303.717 37.178,303.404 38.398,302.735 41.500 C 302.586 42.188,302.323 43.220,302.149 43.795 C 301.975 44.370,301.833 44.972,301.833 45.132 C 301.833 45.879,300.270 49.870,299.624 50.772 C 299.418 51.058,299.175 51.413,299.083 51.560 C 298.814 51.991,298.004 51.471,297.424 50.496 C 296.669 49.225,296.025 49.590,296.235 51.171 C 296.671 54.462,299.261 54.281,301.927 50.772 C 302.461 50.068,302.485 50.034,303.854 47.986 C 305.783 45.100,307.028 44.497,309.000 45.493 C 310.494 46.247,310.782 46.561,310.908 47.576 C 311.030 48.548,311.792 49.886,312.423 50.236 C 312.602 50.335,312.936 50.537,313.166 50.683 C 314.150 51.311,316.960 51.542,318.862 51.151 C 322.245 50.455,324.470 49.706,325.850 48.798 C 326.088 48.641,326.613 48.401,327.017 48.264 C 327.420 48.127,328.387 47.668,329.167 47.245 C 330.852 46.329,331.305 46.327,332.633 47.224 C 334.362 48.393,338.139 47.947,340.069 46.345 C 340.178 46.255,340.579 46.131,340.961 46.070 C 341.415 45.998,341.740 45.829,341.901 45.583 C 342.037 45.377,342.354 45.156,342.605 45.093 C 342.857 45.030,343.255 44.844,343.490 44.681 C 345.061 43.590,346.852 42.907,347.209 43.264 C 347.362 43.418,346.923 44.695,346.297 45.917 C 346.109 46.283,345.781 46.932,345.568 47.359 C 345.356 47.785,345.121 48.160,345.046 48.192 C 344.972 48.224,344.582 48.813,344.179 49.500 C 343.775 50.188,343.239 51.087,342.986 51.500 C 342.734 51.913,342.395 52.531,342.233 52.875 C 342.071 53.219,341.877 53.500,341.802 53.500 C 341.728 53.500,341.667 53.575,341.667 53.667 C 341.667 53.958,340.562 56.033,338.345 59.908 C 336.841 62.537,334.835 64.113,332.083 64.828 C 330.829 65.154,328.942 66.099,327.102 67.322 C 326.196 67.924,325.183 68.596,324.852 68.816 C 324.521 69.035,323.950 69.467,323.583 69.774 C 323.217 70.081,322.662 70.539,322.351 70.791 C 320.541 72.257,316.349 76.496,316.337 76.872 C 316.335 76.939,316.152 77.202,315.930 77.455 C 314.628 78.941,314.285 79.391,313.408 80.750 C 312.322 82.433,310.667 85.307,310.667 85.507 C 310.667 85.580,310.604 85.664,310.526 85.694 C 310.228 85.812,307.346 92.801,307.338 93.425 C 307.335 93.613,307.268 93.838,307.187 93.925 C 306.390 94.790,305.268 101.420,305.256 105.333 C 305.240 111.185,306.423 113.268,309.515 112.831 C 311.005 112.621,311.956 111.547,314.087 107.667 C 314.616 106.704,315.239 105.579,315.473 105.167 C 315.707 104.754,316.735 102.758,317.757 100.731 C 318.779 98.704,319.806 96.791,320.038 96.481 C 320.271 96.171,320.517 95.729,320.584 95.500 C 320.652 95.271,320.951 94.783,321.248 94.416 C 321.546 94.048,321.939 93.469,322.121 93.129 C 322.414 92.583,323.052 91.580,324.026 90.135 C 324.193 89.888,324.518 89.288,324.749 88.801 C 324.980 88.315,325.470 87.429,325.836 86.833 C 326.203 86.237,326.595 85.563,326.706 85.333 C 326.818 85.104,327.292 84.272,327.759 83.485 C 328.227 82.698,328.740 81.727,328.899 81.328 C 329.059 80.929,329.334 80.399,329.511 80.151 C 329.688 79.902,329.833 79.632,329.833 79.551 C 329.833 79.470,330.055 79.144,330.327 78.827 C 330.598 78.510,330.823 78.133,330.827 77.990 C 330.830 77.847,331.096 77.294,331.417 76.762 C 331.737 76.229,332.000 75.759,332.000 75.718 C 332.000 75.677,332.225 75.316,332.500 74.917 C 332.775 74.517,333.000 74.115,333.000 74.024 C 333.000 73.933,333.175 73.647,333.388 73.388 C 333.602 73.129,333.824 72.787,333.882 72.629 C 334.277 71.545,338.508 65.833,338.915 65.833 C 339.002 65.833,339.227 65.654,339.415 65.435 C 339.930 64.836,340.833 64.669,343.561 64.668 L 346.039 64.667 345.924 64.292 C 345.860 64.085,345.767 63.560,345.716 63.125 L 345.624 62.333 344.770 62.339 C 344.286 62.342,343.777 62.450,343.593 62.589 C 343.172 62.907,341.504 62.909,340.745 62.592 C 340.035 62.295,339.956 61.545,340.528 60.547 C 340.727 60.200,341.049 59.617,341.243 59.250 C 341.607 58.565,342.779 56.719,343.042 56.419 C 343.122 56.326,343.427 55.844,343.719 55.349 C 344.758 53.586,344.869 53.413,345.183 53.073 C 345.357 52.883,345.500 52.663,345.500 52.584 C 345.500 52.504,345.901 51.834,346.392 51.095 C 346.882 50.355,347.463 49.443,347.683 49.067 C 347.903 48.691,348.205 48.204,348.354 47.983 C 348.502 47.763,349.175 46.646,349.849 45.500 C 350.523 44.354,351.226 43.178,351.412 42.885 C 351.598 42.593,351.919 42.068,352.126 41.719 C 352.332 41.369,352.773 40.633,353.106 40.083 C 353.439 39.533,353.797 38.926,353.902 38.735 C 354.233 38.127,356.403 34.958,356.750 34.575 C 356.933 34.374,357.287 33.955,357.537 33.646 C 357.786 33.336,358.986 31.871,360.203 30.389 C 362.169 27.995,363.333 26.403,363.333 26.108 C 363.333 25.694,364.401 23.784,364.673 23.713 C 365.240 23.565,365.059 23.167,364.425 23.167 C 364.108 23.167,363.658 23.080,363.425 22.973 C 362.723 22.654,361.571 23.129,360.513 24.176 C 359.521 25.156,358.295 26.591,358.061 27.045 C 357.909 27.341,357.608 27.815,357.392 28.099 C 357.176 28.383,357.000 28.688,357.000 28.778 C 357.000 28.868,356.813 29.118,356.583 29.333 C 356.354 29.549,356.162 29.805,356.157 29.904 C 356.110 30.784,350.979 36.523,348.616 38.340 C 342.131 43.324,337.784 45.760,336.919 44.895 C 336.760 44.736,336.694 44.512,336.761 44.354 C 336.823 44.205,337.045 43.633,337.254 43.083 C 337.718 41.860,338.388 40.342,338.919 39.310 C 339.555 38.074,340.000 36.578,340.000 35.672 C 340.000 34.727,339.969 34.702,339.379 35.167 C 339.146 35.350,338.868 35.500,338.762 35.500 C 338.544 35.500,337.441 36.626,336.804 37.500 C 336.275 38.226,332.848 41.694,331.806 42.557 C 330.541 43.606,327.580 45.620,326.553 46.131 C 326.203 46.305,325.692 46.573,325.417 46.725 C 324.899 47.012,323.125 47.799,322.250 48.131 C 316.614 50.266,312.238 47.263,317.583 44.929 C 317.950 44.769,318.438 44.529,318.667 44.396 C 318.896 44.262,319.346 44.025,319.667 43.868 C 319.987 43.711,320.287 43.546,320.333 43.500 C 320.448 43.385,321.418 42.702,322.417 42.033 C 323.951 41.005,326.903 38.275,327.947 36.917 C 329.454 34.958,329.509 30.371,328.042 29.056 C 326.940 28.069,325.945 28.128,323.946 29.299 C 322.042 30.413,319.343 33.125,315.751 37.531 C 315.625 37.685,315.386 38.023,315.221 38.281 C 315.055 38.539,314.787 38.895,314.626 39.073 C 314.465 39.251,314.333 39.462,314.333 39.543 C 314.333 40.293,311.797 42.929,310.917 43.094 C 309.591 43.343,307.316 42.166,306.823 40.975 C 306.560 40.339,306.693 38.386,307.047 37.683 C 307.205 37.371,307.333 36.873,307.333 36.576 C 307.333 36.249,307.432 35.998,307.583 35.940 C 307.738 35.881,307.833 35.627,307.833 35.278 C 307.833 34.330,308.141 33.023,308.477 32.540 C 308.675 32.257,308.869 31.528,308.988 30.624 C 309.093 29.821,309.317 28.843,309.485 28.451 C 309.654 28.058,309.843 27.477,309.905 27.160 C 309.968 26.843,310.086 26.433,310.167 26.250 C 311.607 22.997,311.936 20.567,311.001 20.084 C 310.393 19.769,310.517 19.730,309.811 20.458 M279.604 31.330 C 279.730 31.721,279.738 32.069,279.629 32.412 C 279.407 33.105,278.344 35.322,277.984 35.843 C 277.821 36.078,277.638 36.472,277.576 36.718 C 277.515 36.965,277.282 37.335,277.059 37.542 C 276.836 37.748,276.550 38.156,276.423 38.448 C 276.296 38.741,275.868 39.405,275.471 39.926 C 275.074 40.446,274.631 41.051,274.485 41.270 C 274.339 41.490,274.021 41.875,273.778 42.126 C 273.535 42.378,273.100 42.846,272.812 43.167 C 271.261 44.893,268.415 47.702,267.999 47.917 C 266.983 48.443,266.792 47.454,267.596 45.833 C 267.801 45.421,268.065 44.746,268.183 44.333 C 268.302 43.921,268.571 43.351,268.783 43.068 C 268.994 42.784,269.167 42.477,269.167 42.385 C 269.167 42.293,269.311 42.088,269.487 41.928 C 269.664 41.769,269.992 41.251,270.217 40.777 C 270.442 40.304,270.785 39.774,270.980 39.599 C 271.174 39.425,271.333 39.219,271.333 39.142 C 271.333 39.066,271.596 38.659,271.917 38.239 C 272.237 37.818,272.502 37.386,272.504 37.279 C 272.506 37.171,272.918 36.638,273.420 36.094 C 273.923 35.550,274.335 35.063,274.338 35.011 C 274.340 34.959,274.680 34.542,275.092 34.083 C 275.505 33.625,276.084 32.936,276.380 32.552 C 276.675 32.168,277.179 31.733,277.500 31.586 C 277.821 31.438,278.271 31.172,278.500 30.993 C 279.068 30.551,279.382 30.647,279.604 31.330 M326.494 31.698 C 327.109 32.359,326.849 34.212,325.948 35.583 C 322.976 40.107,318.078 43.820,316.521 42.729 C 315.716 42.166,316.394 40.057,317.914 38.398 C 318.007 38.296,318.308 37.925,318.583 37.572 C 321.165 34.263,323.828 31.826,325.226 31.492 C 326.047 31.297,326.132 31.310,326.494 31.698 M74.621 38.164 C 75.656 38.176,74.483 43.401,73.198 44.500 C 72.930 44.729,72.588 45.157,72.439 45.450 C 72.289 45.743,72.068 46.043,71.948 46.117 C 71.828 46.190,71.615 46.419,71.474 46.626 C 69.601 49.373,65.027 53.130,63.843 52.894 C 63.038 52.733,63.394 49.655,64.400 48.083 C 64.517 47.900,64.746 47.397,64.909 46.966 C 65.072 46.536,65.347 46.055,65.520 45.899 C 65.692 45.743,65.833 45.554,65.833 45.480 C 65.833 45.286,67.123 43.313,67.508 42.917 C 67.686 42.733,68.484 41.890,69.281 41.042 C 70.078 40.194,70.817 39.500,70.923 39.500 C 71.028 39.500,71.251 39.350,71.417 39.167 C 71.583 38.983,71.789 38.833,71.875 38.833 C 71.961 38.833,72.232 38.691,72.476 38.517 C 72.971 38.164,73.579 38.007,74.083 38.100 C 74.267 38.134,74.508 38.163,74.621 38.164 M136.862 38.609 C 137.451 39.143,137.137 40.175,136.066 41.221 C 135.298 41.971,133.974 43.019,133.553 43.211 C 132.656 43.619,133.432 44.137,134.625 43.926 C 137.087 43.491,137.590 43.804,136.667 45.198 C 135.767 46.556,132.146 49.725,130.900 50.246 C 130.549 50.393,130.134 50.629,129.977 50.771 C 128.832 51.807,127.765 51.325,127.873 49.819 C 128.007 47.946,129.214 46.520,131.976 44.973 C 133.006 44.396,132.926 44.234,131.417 43.835 C 130.313 43.544,130.271 43.513,130.553 43.192 C 130.685 43.040,130.840 42.767,130.895 42.583 C 131.412 40.886,136.000 37.829,136.862 38.609 M72.899 49.097 C 73.066 49.533,73.016 49.763,72.667 50.167 C 72.483 50.378,72.333 50.610,72.333 50.683 C 72.333 51.512,67.924 55.000,66.875 55.000 C 65.834 55.000,66.607 53.235,68.263 51.833 C 68.750 51.421,69.233 50.933,69.336 50.750 C 69.439 50.567,70.005 50.118,70.595 49.753 C 71.184 49.387,71.667 49.031,71.667 48.961 C 71.667 48.704,72.796 48.829,72.899 49.097 M185.833 56.653 C 185.833 56.946,185.930 56.997,186.458 56.980 C 187.064 56.961,187.068 56.957,186.583 56.854 C 186.308 56.795,186.108 56.674,186.137 56.586 C 186.167 56.497,186.111 56.398,186.012 56.365 C 185.914 56.332,185.833 56.462,185.833 56.653 M332.768 68.292 C 333.097 68.726,333.045 69.509,332.641 70.167 C 332.213 70.867,331.757 71.655,331.195 72.667 C 330.965 73.079,330.378 74.031,329.889 74.783 C 329.400 75.534,329.000 76.194,329.000 76.249 C 329.000 76.304,328.344 77.552,327.542 79.022 C 325.509 82.750,325.169 83.378,324.265 85.083 C 323.828 85.908,323.269 86.921,323.024 87.333 C 322.449 88.299,322.133 88.862,321.505 90.042 C 321.225 90.569,320.933 91.000,320.856 91.000 C 320.780 91.000,320.591 91.281,320.436 91.625 C 319.977 92.644,319.169 94.044,318.928 94.237 C 318.804 94.336,318.609 94.717,318.494 95.083 C 318.379 95.450,318.108 95.963,317.891 96.223 C 317.674 96.484,317.338 97.065,317.144 97.515 C 316.951 97.965,316.739 98.333,316.673 98.333 C 316.607 98.333,316.451 98.642,316.327 99.020 C 316.202 99.397,315.957 99.888,315.782 100.110 C 315.607 100.333,315.249 100.943,314.985 101.466 C 314.722 101.989,314.319 102.717,314.090 103.083 C 313.862 103.450,313.513 104.050,313.315 104.417 C 313.117 104.783,312.759 105.324,312.519 105.617 C 312.279 105.911,311.746 106.573,311.333 107.090 C 310.645 107.952,309.938 108.500,309.514 108.500 C 308.540 108.500,308.350 101.577,309.228 98.045 C 309.360 97.516,309.512 96.820,309.567 96.497 C 309.705 95.691,310.410 93.524,310.733 92.917 C 310.878 92.642,310.998 92.361,310.999 92.292 C 311.000 92.224,311.262 91.600,311.583 90.905 C 311.904 90.211,312.167 89.585,312.167 89.514 C 312.167 89.443,312.721 88.305,313.399 86.984 C 315.419 83.051,316.178 81.802,317.724 79.869 C 320.014 77.006,322.172 74.855,326.262 71.356 C 328.947 69.059,332.191 67.531,332.768 68.292 " stroke="none" fill="#e96421" fill-rule="evenodd"></path></g></svg>