<svg xmlns="http://www.w3.org/2000/svg" width="1428" height="1422" style=""><rect id="backgroundrect" width="100%" height="100%" x="0" y="0" fill="none" stroke="none"/>














































































































































































<g class="currentLayer" style=""><title>Layer 1</title><path style="fill: rgb(159, 5, 117);" d="M712 169.424C698.488 171.198 684.602 170.709 671 172.166C645.993 174.845 621.618 179.676 597 184.6C580.653 187.87 564.14 190.646 548 194.884C463.791 216.999 385.075 258.815 319 315.428C287.265 342.619 258.658 374.389 233.884 408C222.664 423.223 212.998 439.323 202.481 455C183.366 483.493 163.089 510.328 147.258 541C109.302 614.539 90.0346 695.549 88.0147 778C87.06 816.968 92.104 856.861 100.003 895C102.848 908.737 108.381 922.232 110.674 936C111.334 939.958 110.814 944.017 111.285 948C113.591 967.476 116.188 986.822 120.424 1006C133.717 1066.18 160.731 1123.61 197.478 1173C252.086 1246.39 330.884 1300.47 416 1332.57C437.241 1340.59 458.986 1347.12 481 1352.63C492.759 1355.57 505.585 1357.15 517 1361.1C526.238 1364.3 535.095 1369.63 544 1373.69C561.137 1381.52 579.078 1388.45 597 1394.25C674.385 1419.31 759.123 1429.35 840 1418.72C916.881 1408.61 990.535 1385.17 1058 1346.57C1084.43 1331.45 1108.13 1313.1 1133 1295.72C1145.91 1286.7 1159.3 1278.48 1172 1269.12C1194.9 1252.24 1216.45 1233.61 1237 1213.96C1307.56 1146.49 1359.85 1058.77 1386.57 965C1401.41 912.938 1408.33 857.087 1405.96 803C1405.02 781.586 1402.58 760.263 1399.72 739C1398.59 730.622 1396.01 722.4 1395.17 714C1394.44 706.721 1395.28 699.303 1394.96 692C1394.19 674.336 1392.43 656.506 1389.73 639C1381.48 585.605 1362.89 533.887 1336.13 487C1303.08 429.11 1255.76 379.769 1201 342.026C1186.53 332.054 1171.46 322.671 1156 314.309C1147.53 309.728 1138.14 306.089 1130 301.046C1120.19 294.968 1111.56 286.849 1102 280.344C1076.12 262.724 1049.31 246.591 1021 233.219C989.29 218.241 956.885 205.427 923 196.152C900.91 190.106 878.495 186.368 856 182.385C838.667 179.316 821.515 175.71 804 173.834C787.264 172.041 770.753 171.058 754 169.911C740.317 168.973 725.684 167.628 712 169.424z" id="svg_2" class="" stroke="none" stroke-width="18"/><path style="fill:#ff0000; stroke:none;" d="M652 174L653 175L652 174z" id="svg_3"/><path style="stroke: none;" d="M710 176C713.493 177.466 717.257 176.833 721 177.089C731.53 177.811 741.497 177.007 752 177C747.785 175.231 742.535 176 738 176L710 176z" id="svg_4" class="" fill="#ffffff" fill-opacity="1"/><path style="fill:#ff0000; stroke:none;" d="M829 177L830 178L829 177z" id="svg_5"/><path style="stroke: none;" d="M662 187L663 188L662 187M805.667 187.333C805.222 187.778 806.278 187.722 806.333 187.667C806.778 187.222 805.722 187.278 805.667 187.333M353 320C378.247 306 402.69 291.356 429 279.309C446.188 271.438 465.336 266.643 482 257.88C498.726 249.083 514.953 239.506 532 231.259C558.649 218.365 586.608 207.88 615 199.576C628.79 195.542 643.629 190.174 658 189C652.404 186.652 645.863 188.776 640 188.989C621.917 189.647 603.803 193.594 586 196.586C525.066 206.828 467.534 238.245 416 270.947C401.02 280.453 386.848 291.121 373 302.2C366.185 307.652 358.198 312.938 353 320M532 242C536.399 243.005 541.602 240.695 546 239.801C556.667 237.633 567.271 235.114 578 233.25C611.881 227.364 646.641 223.412 681 223.004C715.955 222.588 751.376 224.415 786 229.428C804.813 232.152 823.399 236.145 842 240.003C847.029 241.046 851.918 242.968 857 243.7C871.621 245.807 887.232 244.078 902 245.089C919.577 246.293 937.409 249.637 955 250C948.271 244.425 938.905 241.375 931 237.769C911.131 228.705 890.685 221.536 870 214.667C841.567 205.224 812.528 198.674 783 193.753C767.382 191.15 750.856 188.008 735 188.008C722.645 188.008 710.245 190.375 698 191.845C655.94 196.894 614.559 208.491 575 223.425C560.375 228.946 546.406 236.002 532 242M810 188C818.791 192.226 830.489 193.098 840 195.475C857.53 199.858 875.069 205.094 892 211.424C909.881 218.11 927.878 224.747 945 233.248C954.344 237.887 963.729 242.474 973 247.259C978.314 250.001 983.372 253.587 989 255.672C994.702 257.785 1001.09 258.296 1007 259.651C1018.37 262.258 1029.63 265.4 1041 268C1026.17 255.065 1006.21 246.937 989 237.692C946.137 214.663 899.136 198.561 851 191.87C837.455 189.987 823.684 188.001 810 188z" id="svg_6" class="" fill="#ffffff" fill-opacity="1"/><path style="fill:#ff0000; stroke:none;" d="M832 189L833 190L832 189M685 193L686 194L685 193M632 194L633 195L632 194M873 195L874 196L873 195M621 197L622 198L621 197M572 199L573 200L572 199M818 200L819 201L818 200M646 201L647 202L646 201M862 201L863 202L862 201M553 204L554 205L553 204M950 204L951 205L950 204M842 206L843 207L842 206M501 209L502 210L501 209M606 212L607 213L606 212M872 215L873 216L872 215M875 216L876 217L875 216M583 220L584 221L583 220M916 220L917 221L916 220M930 226L931 227L930 226M565 227L566 228L565 227M492 228L493 229L492 228z" id="svg_7"/><path style="stroke: none;" d="M309,429.5 C315.406,426.513 319.948,420.37 325,415.539 C333.574,407.341 342.793,399.442 352,391.96 C382.385,367.268 414.812,345.434 449,326.362 C519.352,287.115 600.09,260.986 680,250.786 C720.062,245.672 759.715,245.472 800,244.485 C809.67,244.249 819.314,242.527 829,242.5 C820.207,238.266 808.575,237.692 799,236.086 C772.377,231.622 745.821,230.248 719,228.411 C665.2,224.726 609.63,230.515 557,242.076 C537.172,246.431 515.695,250.213 497,258.376 C475.658,267.694 455.523,283.734 437,297.627 C407.185,319.988 380.217,345.192 354.911,372.5 C338.585,390.117 321.733,409.053 309,429.5 z" id="svg_8" class="" fill="#ffffff" fill-opacity="1"/><path style="fill:#ff0000; stroke:none;" d="M992 231L993 232L992 231z" id="svg_9"/><path style="fill:#000000; stroke:none;" d="M994 232L995 233L994 232z" id="svg_10"/><path style="fill:#ff0000; stroke:none;" d="M627 233L628 234L627 233M980 233L981 234L980 233z" id="svg_11"/><path style="fill:#000000; stroke:none;" d="M996 233L997 234L996 233z" id="svg_12"/><path style="fill:#ff0000; stroke:none;" d="M479 234L480 235L479 234M618 234L619 235L618 234z" id="svg_13"/><path style="stroke: none;" d="M998 234C1006.53 241.064 1018.43 245.663 1028 251.4C1040.74 259.04 1052.74 268.995 1066 275.623C1072.29 278.768 1079.44 280.468 1086 283C1079.17 275.546 1068.61 270.766 1060 265.6C1045.15 256.69 1029.82 248.19 1014 241.139C1008.65 238.756 1003.64 235.626 998 234z" id="svg_14" class="" fill="#ffffff" fill-opacity="1"/><path style="fill:#ff0000; stroke:none;" d="M544 236L545 237L544 236M986 236L987 237L986 236M556 237L557 238L556 237M594 237L595 238L594 237M432 239L433 240L432 239M934 239L935 240L934 239M848 241L849 242L848 241M534 242L535 243L534 242z" id="svg_15"/><path style="fill:#000000; stroke:none;" d="M446 243L447 244L446 243M530 243L531 244L530 243z" id="svg_16"/><path style="fill:#ff0000; stroke:none;" d="M445 244L446 245L445 244z" id="svg_17"/><path style="fill:#000000; stroke:none;" d="M443 245L444 246L443 245z" id="svg_18"/><path style="fill:#ff0000; stroke:none;" d="M458 245L459 246L458 245z" id="svg_19"/><path style="stroke: none;" d="M441 246L442 247L441 246M439 247C416.814 259.949 394.296 271.845 373 286.344C345.718 304.918 320.305 326.695 297 350C283.421 363.579 268.627 377.931 258 394C268.038 386.929 276.697 377.338 286 369.289C295.039 361.467 305.09 354.782 314 346.826C327.639 334.648 340.19 321.333 354 309.286C380.687 286.005 409.872 266.439 440 248L439 247z" id="svg_20" class="" fill="#ffffff" fill-opacity="1"/><path style="fill:#ff0000; stroke:none;" d="M1048 247L1049 248L1048 247M539 248L540 249L539 248M1023 248L1024 249L1023 248M715 249L716 250L715 249M449 250L450 251L449 250M492 251L493 252L492 251z" id="svg_21"/><path style="stroke: none;" d="M852 251C854.331 251.984 856.457 251.981 859 252C856.668 251.015 854.543 251.019 852 251M884 251C888.71 253.96 894.739 254.898 900 256.667C915.419 261.853 931.265 264.747 947 268.884C965.517 273.753 983.958 279.271 1002 285.692C1012.28 289.349 1022.5 294.128 1033 297C1026.44 289.612 1016.38 284.325 1008 279.189C998.127 273.137 988.03 265.04 977 261.248C968.845 258.444 959.503 258.052 951 256.87C928.708 253.771 906.226 253.809 884 251z" id="svg_22" class="" fill="#ffffff" fill-opacity="1"/><path style="fill:#ff0000; stroke:none;" d="M524 252L525 253L524 252z" id="svg_23"/><path style="fill:#000000; stroke:none;" d="M861 252L862 253L861 252z" id="svg_24"/><path style="fill:#ff0000; stroke:none;" d="M919 253L920 254L919 253M425 254L426 255L425 254M487 254L488 255L487 254z" id="svg_25"/><path style="" d="M262 1091C263.414 1087.61 261.841 1083.71 263.372 1080.44C265.196 1076.55 270.178 1074.18 273 1071C276.015 1074.04 280.617 1076.9 283.067 1080.32C284.707 1082.61 283.661 1085.47 284.614 1087.98C286.997 1094.24 296.218 1102.53 303 1102C307.528 1113.31 321.096 1123.02 331 1129.66C335.265 1132.52 338.816 1135.75 344 1134C345.431 1129.35 351.874 1128.7 356 1126.99C364.208 1123.59 372.238 1119.37 380.09 1115.25C383.816 1113.29 386.812 1110.76 391 1110C396.654 1104.28 405.831 1102.41 413 1098.98C422.738 1094.32 432.395 1089.17 441.999 1084.22C445.675 1082.33 449.075 1079.09 453 1078C454.571 1075.87 455.481 1074.75 458 1074C459.371 1072.23 459.89 1071.6 462 1071C463.966 1068.16 466.856 1065.45 467.678 1062C468.544 1058.37 466.722 1054.51 469.473 1051.39C475.123 1045.01 487.328 1043.71 490 1053C503.479 1059.59 484.35 1073.71 483 1082C479.468 1082.58 478.385 1083.73 477 1087C469.951 1086.76 463.674 1094.26 458 1098C454.694 1100.17 451.224 1101.68 449 1105L447 1104C443.228 1107.6 434.204 1111.46 429 1112C421.975 1118.63 411.479 1121.06 403 1125.37C392.98 1130.47 382.177 1138.97 371 1141C367.345 1144.3 362.333 1146.6 358 1149C359.177 1154.69 364.561 1156.84 368.299 1160.99C380.283 1174.32 395.709 1183.15 409 1194.96C412.123 1197.73 417.664 1198.64 419.836 1202.15C426.75 1213.31 412.118 1227.37 401.09 1221.06C394.971 1217.55 391.98 1209.97 386.791 1205.47C384.328 1203.34 381.002 1202.63 378.594 1200.45C365.202 1188.34 354.748 1174.69 339 1165L340 1163C325.735 1152.13 312.844 1139.65 299 1128.26C293.558 1123.78 287.49 1120.02 282.039 1115.54C278.048 1112.27 275.246 1108.02 271 1105C273.591 1113.99 279.621 1122.03 284.4 1130C295.448 1148.41 307.748 1165.83 320.627 1183C346.577 1217.6 375.948 1249.07 413 1271.94C424.139 1278.81 436.877 1283.75 449 1288.6C466.804 1295.73 484.682 1302.33 503 1308.03C600.69 1338.38 703.346 1344.02 804 1327.25C1016.14 1291.89 1207.08 1140.8 1269.72 932C1279.12 900.66 1285.73 868.578 1288.83 836C1291.1 812.179 1290.08 787.84 1289.04 764C1286.81 713.202 1278.78 661.417 1262.65 613C1221.62 489.926 1129.28 385.169 1019 319C994.307 304.185 968.618 290.974 942 279.989C930.919 275.416 919.687 269.889 908 267.039C887.414 262.02 865.996 260.082 845 257.834C828.055 256.02 810.047 253.524 793 254.375C755.893 256.226 717.962 264.751 682 273.626C566.271 302.186 456.216 356.997 364 432.576C330.783 459.799 299.906 489.59 271.718 522C259.924 535.561 246.682 549.582 237.336 565C231.09 575.305 228.125 588.624 224.333 600C214.875 628.374 207.533 657.501 202.586 687C186.152 785.003 190.24 886.416 218.721 982C226.44 1007.91 236.196 1033.18 246.85 1058C251.603 1069.07 258.117 1079.6 262 1091z" id="svg_26" class="" stroke="none" fill="#ffffff" fill-opacity="1"/><path style="fill:#ff0000; stroke:none;" d="M1019 254L1020 255L1019 254z" id="svg_27"/><path style="fill:#000000; stroke:none;" d="M731.667 255.333C731.222 255.778 732.278 255.722 732.333 255.667C732.778 255.222 731.722 255.278 731.667 255.333z" id="svg_28"/><path style="fill:#ff0000; stroke:none;" d="M783 255L784 256L783 255z" id="svg_29"/><path style="stroke: none;" d="M248 539C253.043 534.623 256.746 528.978 261.167 524C269.791 514.289 278.459 504.627 287.17 495C305.856 474.348 326.966 455.483 348 437.282C426.431 369.417 520.729 317.424 619 284.667C641.735 277.088 664.688 270.642 688 265.116C700.751 262.093 713.905 258.042 727 257C722.867 255.266 718.348 256.194 714 256.714C707.356 257.509 700.658 258.121 694 258.834C661.8 262.281 630.398 268.775 599 276.627C504.394 300.285 414.1 348.585 341 412.845C321.672 429.836 301.611 447.694 285.669 468C274.96 481.64 267.262 498.468 259.742 514C255.74 522.266 250.967 530.287 248 539z" id="svg_30" class="" fill="#ffffff" fill-opacity="1"/><path style="fill:#ff0000; stroke:none;" d="M727 256L728 257L727 256M482 257L483 258L482 257M1038 257L1039 258L1038 257M1045 257L1046 258L1045 257M416 259L417 260L416 259M432 260L433 261L432 260M678 260L679 261L678 260M974 260L975 261L974 260M1072 261L1073 262L1072 261M414 263L415 264L414 263M467 263L468 264L467 263M981 263L982 264L981 263M618 264L619 265L618 264M1027 264L1028 265L1027 264M1077 264L1078 265L1077 264M411 265L412 266L411 265M1037 265L1038 266L1037 265M638 267L639 268L638 267z" id="svg_31"/><path style="fill:#000000; stroke:none;" d="M1008 267L1009 268L1008 267z" id="svg_32"/><path style="fill:#ff0000; stroke:none;" d="M703 268L704 269L703 268z" id="svg_33"/><path style="stroke: none;" d="M1010 268C1018.83 276.448 1031.02 282.567 1041 289.71C1052.89 298.22 1063.9 308.266 1076 316.402C1086.28 323.315 1098.23 328.249 1109 334.421C1117.44 339.259 1125.76 344.262 1134 349.424C1138.91 352.495 1143.45 356.23 1149 358C1139.06 343.883 1123.92 332.052 1111 320.715C1099.95 311.023 1088.76 301.461 1077 292.627C1072.21 289.032 1067.37 284.786 1062 282.099C1057.07 279.633 1051.25 278.59 1046 276.975C1034.28 273.373 1022.18 269.573 1010 268z" id="svg_34" class="" fill="#ffffff" fill-opacity="1"/><path style="fill:#ff0000; stroke:none;" d="M1013 268L1014 269L1013 268M949 269L950 270L949 269M449 270L450 271L449 270M415 271L416 272L415 271M394 272L395 273L394 272M477 272L478 273L477 272M998 273L999 274L998 273M391 274L392 275L391 274M678 274L679 275L678 274M928 274L929 275L928 274M577 275L578 276L577 275M1065 275L1066 276L1065 275M388 276L389 277L388 276z" id="svg_35"/><path style="fill:#000000; stroke:none;" d="M449 278L450 279L449 278z" id="svg_36"/><path style="fill:#ff0000; stroke:none;" d="M1006 278L1007 279L1006 278z" id="svg_37"/><path style="stroke: none;" d="M155 692C164.072 680.771 166.447 663.349 171.218 650C180.769 623.273 191.791 596.994 205.309 572C217.093 550.211 230.115 529.217 244.424 509C251.411 499.13 259.459 489.987 266.254 480C272.851 470.304 278.345 459.859 284.692 450C294.863 434.202 306.031 418.877 317.5 404C353.896 356.787 398.656 313.566 448 280C444.799 279.464 441.987 281.181 439 282.397C432.85 284.899 427.025 287.925 421 290.691C394.613 302.807 369.165 317.224 345 333.333C335.958 339.361 326.261 345.271 318.09 352.464C301.29 367.254 287.265 386.402 273.576 404C227.303 463.483 191.394 534.015 172.116 607C166.952 626.548 161.937 646.03 158.586 666C157.148 674.577 155.072 683.285 155 692z" id="svg_38" class="" fill="#ffffff" fill-opacity="1"/><path style="fill:#ff0000; stroke:none;" d="M564 279L565 280L564 279M588 279L589 280L588 279z" id="svg_39"/><path style="stroke: none;" d="M959 279L960 280L959 279M961 280C966.46 284.524 973.661 286.737 980 289.784C989.835 294.511 999.561 299.946 1009 305.424C1039.58 323.174 1068.64 342.999 1096 365.424C1120.12 385.195 1143.27 407.308 1163.57 431C1171.98 440.814 1180.02 450.844 1188 461C1192.18 466.315 1195.79 472.694 1201 477C1193.76 463.402 1184.43 450.471 1175.42 438C1155.59 410.53 1133.96 384.957 1110 361C1095.1 346.105 1079.03 328.596 1061 317.468C1050.9 311.235 1038.93 307.5 1028 302.989C1006.41 294.08 983.814 285.23 961 280z" id="svg_40" class="" fill="#ffffff" fill-opacity="1"/><path style="fill:#ff0000; stroke:none;" d="M442 283L443 284L442 283M549 284L550 285L549 284M357 285L358 286L357 285M438 286L439 287L438 286M982 286L983 287L982 286M559 288L560 289L559 288M434 289L435 290L434 289z" id="svg_41"/><path style="stroke: none;" d="M1087 291C1091.93 297.091 1099.03 301.4 1105 306.439C1115.71 315.473 1126.1 325.097 1136 335C1150.14 349.143 1162.73 365.045 1177.04 378.91C1189.37 390.864 1204.07 400.891 1217 412.286C1225.04 419.37 1232.23 427.822 1241 434C1233.98 422.728 1225.14 412.314 1216.8 402C1196.15 376.443 1173.49 352.706 1149 330.834C1130.33 314.161 1111.66 297.743 1087 291z" id="svg_42" class="" fill="#ffffff" fill-opacity="1"/><path style="fill:#ff0000; stroke:none;" d="M430 292L431 293L430 292z" id="svg_43"/><path style="fill:#ffffff; stroke:none;" d="M646 371C645.917 376.911 642.483 383.49 640.351 388.999C635.11 402.544 629.017 418.818 617 428C619.754 434.801 612.678 442.499 618.318 448.852C622.139 453.156 628.892 452.069 632.823 448.36C634.826 446.47 635.413 443.866 636.78 441.576C640.743 434.936 645.388 428.72 647 421L649 422C652.52 415.02 662.253 416.721 669.015 414.895C672.109 414.06 674.821 412.429 678 412C683.709 406.609 694.022 409.766 699 403L704 405C705.498 404.129 707.634 402.365 709.491 402.466C712.376 402.624 714.789 406.998 716.349 409.001C720.377 414.172 724.383 419.261 731 420.99C739.585 423.233 750.17 420.227 757.96 416.361C763.04 413.84 765.458 408.717 761.35 404.152C756.894 399.2 750.073 401.997 744.424 401.852C741.562 401.778 738.653 399.963 736 399L736 397C738.732 396.42 741.204 395.867 744 396L745 395C744.873 391.88 746.867 385.899 744.346 383.525C740.913 380.291 734.163 383.861 729.964 383.131C723.192 381.954 718.404 370.177 718 364L716 364C715.889 358.682 712.136 353.943 710.134 349.039C708.675 345.464 708.679 341.549 707.196 337.999C703.444 329.018 696.606 319.724 695 310L693 310C693.084 305.368 691.299 298.477 686.895 296.028C684.551 294.724 681.573 294.991 679 294.536C674.292 293.704 670.584 292.271 667.596 297.059C664.846 301.466 664.911 308.872 663.793 314.004C661.789 323.201 658.643 331.916 656.414 340.999C654.025 350.733 653.325 363.485 646 371z" id="svg_44"/><path style="fill:#ff0000; stroke:none;" d="M971 293L972 294L971 293M371 294L372 295L371 294M397 294L398 295L397 294M1098 295L1099 296L1098 295M1033 297L1034 298L1033 297z" id="svg_45"/><path style="fill:#000000; stroke:none;" d="M1034 297L1035 298L1034 297z" id="svg_46"/><path style="fill:#ff0000; stroke:none;" d="M983 299L984 300L983 299M595 300L596 301L595 300M1128 300L1129 301L1128 300M399 301L400 302L399 301M1002 301L1003 302L1002 301M351 302L352 303L351 302M417 302L418 303L417 302M1026 302L1027 303L1026 302M380 303L381 304L380 303M519 303L520 304L519 303M1115 303L1116 304L1115 303M1134 303L1135 304L1134 303M1091 304L1092 305L1091 304M1119 306L1120 307L1119 306M489 308L490 309L489 308M1000 308L1001 309L1000 308M572 309L573 310L572 309M551 310L552 311L551 310M1007 312L1008 313L1007 312M1021 312L1022 313L1021 312M1102 313L1103 314L1102 313M358 316L359 317L358 316z" id="svg_47"/><path style="fill:#ffffff; stroke:none;" d="M799 337C803.957 357.81 791.237 378.163 794.927 398.83C796.718 408.856 801.028 419.576 812 421C817.999 415.59 826.25 416.31 831.321 409C833.483 405.882 835.711 396.687 832.681 393.682C829.719 390.743 824.373 391.723 821 393C818.631 381.032 822.889 367.956 824.028 355.914C824.544 350.454 826.472 346.187 824 341C830.071 342.583 835.819 340.457 842.025 341.121C846.095 341.557 850.037 343.232 854.089 343.491C857.204 343.69 860.295 342.793 863.424 342.866C876.617 343.171 889.75 344 903 344L904 348C908.097 346.916 911.735 346.038 916 346C917.704 339.447 923.807 336.175 926 330L922 329C921.82 325.704 921.392 321.684 917.891 320.157C915.162 318.965 911.83 320.83 909 320.907C901.881 321.101 895.173 321.181 888.086 321.681C862.337 323.495 835.633 320.494 809.996 317.767C800.891 316.798 792.202 317.005 783.039 316.635C777.897 316.427 772.016 315.772 767.089 317.724C758.646 321.07 759.402 332.424 767.04 336.231C772.691 339.049 779.005 337.563 784.996 337.673C790.087 337.766 793.944 338.516 799 337z" id="svg_48"/><path style="fill:#ff0000; stroke:none;" d="M553 317L554 318L553 317M330 319L331 320L330 319M466 319L467 320L466 319M1166 320L1167 321L1166 320M544 321L545 322L544 321M1111 321L1112 322L1111 321M1089 323L1090 324L1089 323z" id="svg_49"/><path style="stroke: none;" d="M1156 323C1161.84 331.288 1170.82 337.819 1178 345C1192.14 359.138 1205.79 373.625 1218.59 389C1234.79 408.467 1249.81 428.793 1263.66 450C1270.28 460.144 1275.83 471.08 1282.77 481C1292.98 495.589 1304.58 509.145 1314.48 524C1337.77 558.917 1357.39 596.677 1372.05 636C1377.26 649.986 1382.97 664.351 1386 679C1388.98 671.824 1385.22 659.622 1384.28 652C1381.35 628.213 1376.15 604.999 1369.42 582C1344.61 497.183 1291.34 421.163 1222 366.79C1207.55 355.456 1192.66 344.786 1177 335.189C1170.13 330.98 1163.42 326.196 1156 323z" id="svg_50" class="" fill="#ffffff" fill-opacity="1"/><path style="fill:#ff0000; stroke:none;" d="M324 324L325 325L324 324M1069 324L1070 325L1069 324M308 325L309 326L308 325z" id="svg_51"/><path style="fill:#ffffff; stroke:none;" d="M599 328C599 329.797 599.014 329.521 600 331C596.625 332.602 593.622 335.132 590 336C584.899 341.367 577.731 350.176 570 351L569 352C566.949 358.908 556.971 360.324 553 366C550.491 366.409 550.225 366.729 549 369C542.749 369.782 538.546 375.321 533.089 378.158C517.325 386.354 502.47 395.903 488 406.425C482.388 410.506 472.498 419.529 480.173 426.405C489.719 434.958 500.141 424.361 508 418.695C510.766 416.701 515.016 412.15 518.714 414.006C523.895 416.607 527.059 424.104 529.475 429C535.92 442.064 542.019 457.691 554 466.584C559.708 470.821 567.994 478.403 574.671 471.772C576.618 469.837 577.718 467.363 579.18 465.089C580.954 462.331 583.211 460.301 583.931 456.989C585.088 451.662 584.786 437.637 576.896 437.257C572.65 437.053 569.136 442.552 565.043 440.365C560.728 438.059 559.753 432.745 557.632 428.83C553.347 420.921 544.614 411.252 544 402L543 401L540 401C542.515 398.006 545.226 394.195 549 393L550 390L552 391C552.986 389.521 553 389.797 553 388C560.488 387.489 569.774 381.049 574 375C581.001 374.42 586.556 368.166 592 364.156C595.031 361.923 598.436 358.978 602 357.674C604.061 356.919 606.507 357.616 608.375 356.363C610.78 354.75 612.592 351.821 615 350C614.226 343.345 616.599 336.328 615 330L610 332C607.341 327.517 603.875 325.967 599 328z" id="svg_52"/><path style="fill:#ff0000; stroke:none;" d="M1120 329L1121 330L1120 329M459 331L460 332L459 331z" id="svg_53"/><path style="stroke: none;" d="M678 332C678.676 337.573 675.724 340.83 674.414 345.999C670.409 361.81 660.482 378.656 660 395C665.312 394.971 671.206 395.551 676.424 394.522C685.081 392.814 694.102 389.819 703 390C702.52 385.58 700.293 382.188 698.885 378.039C695.62 368.419 691.67 359.366 687.759 350C685.305 344.122 682.858 336.223 678 332z" id="svg_54" class="" fill="#ffffff" fill-opacity="1"/><path style="fill:#ff0000; stroke:none;" d="M1175 334L1176 335L1175 334M312 335L313 336L312 335M1044 335L1045 336L1044 335M378 336L379 337L378 336M497 336L498 337L497 336z" id="svg_55"/><path style="fill:#ffffff; stroke:none;" d="M901 423L903 423C904.307 430.042 919.291 435.986 923.968 428.606C926.337 424.869 924.994 412.912 920 413C920.999 396.048 929.267 382.138 935.611 366.715C938.248 360.306 942.901 350.45 940.221 343.439C935.217 330.351 922.523 338.547 919.569 348C918.419 351.682 918.873 355.57 917.481 359.246C910.928 376.551 899.646 390.924 898.728 410.17C898.521 414.513 900.845 418.653 901 423z" id="svg_56"/><path style="stroke: none;" d="M1101 338C1105.9 344.661 1113.13 350.126 1119 356C1128.98 365.976 1138.42 376.386 1147.72 387C1176 419.302 1201.22 455.245 1221.69 493C1296.7 631.369 1322.07 796.146 1279.58 949C1269.57 984.982 1257.02 1020.35 1240.74 1054C1231.99 1072.09 1220.47 1088.86 1212 1107C1216.16 1103.16 1218.83 1097.8 1221.81 1093C1227.51 1083.8 1232.79 1074.4 1238.15 1065C1261.4 1024.25 1278.9 979.236 1291.15 934C1330.33 789.336 1315.37 633.238 1248.25 499C1235.35 473.216 1220.38 448.719 1204.03 425C1194.92 411.797 1185.48 397.291 1173.99 386.039C1163.07 375.359 1148.84 367.095 1136 358.947C1124.57 351.697 1113.3 343.741 1101 338z" id="svg_57" class="" fill="#ffffff" fill-opacity="1"/><path style="fill:#ff0000; stroke:none;" d="M1116 338L1117 339L1116 338M428 340L429 341L428 340M497 344L498 345L497 344M480 345L481 346L480 345M1093 345L1094 346L1093 345M418 346L419 347L418 346M473 349L474 350L473 349M1076 349L1077 350L1076 349M1221 357L1222 358L1221 357M413 358L414 359L413 358M1148.67 358.333C1148.22 358.777 1149.28 358.722 1149.33 358.667C1149.78 358.222 1148.72 358.278 1148.67 358.333M1136 359L1137 360L1136 359M1179 360L1180 361L1179 360M272 361L273 362L272 361M1180 361L1181 362L1180 361M1181 362L1182 363L1181 362M1182 363L1183 364L1182 363M291 364L292 365L291 364M282 365L283 366L282 365M286 368L287 369L286 368M453 369L454 370L453 369M1236 369L1237 370L1236 369M264 370L265 371L264 370M301 370L302 371L301 370M395 370L396 371L395 370M1102 370L1103 371L1102 370M274 374L275 375L274 374M1206 374L1207 375L1206 374M388 375L389 376L388 375M277 376L278 377L277 376M1194 376L1195 377L1194 376M381 380L382 381L381 380z" id="svg_58"/><path style="stroke: none;" d="M280 383C261.092 401.895 239.542 419.332 223.605 441C205.834 465.161 192.22 493.677 180.14 521C146.733 596.559 130 678.557 130 761C133.275 754.974 134.826 747.523 137 741C139.407 733.778 142.885 726.432 144.482 719C146.155 711.217 146.311 702.902 147.285 695C148.936 681.599 151.124 668.273 153.611 655C162.568 607.197 178.029 560.172 198.309 516C212.808 484.418 229.974 453.323 250.141 425C257.105 415.22 264.042 405.475 271.424 396C274.396 392.187 279.367 387.895 280 383z" id="svg_59" class="" fill="#ffffff" fill-opacity="1"/><path style="fill:#ffffff; stroke:none;" d="M946 448C946.686 458.905 957.727 464.884 966.576 468.884C983.951 476.74 1003.55 479.656 1022.58 478.465C1027.94 478.129 1032.47 474.213 1038 474L1038 472C1044.41 471.848 1047.64 466.482 1052.28 462.749C1059.38 457.047 1067.64 450.79 1073.62 443.91C1077.82 439.086 1079.75 433.969 1085 430C1085.3 420.553 1086.84 409.5 1081.27 401.004C1072.74 387.981 1057.43 384.669 1043 384.272C1029.7 383.907 1017.22 385.289 1004 387.384C1000.87 387.881 997.457 387.313 994.424 388.258C991.587 389.141 989.249 391.146 986.424 392.108C976.729 395.412 967.245 398.311 959 404.68C948.621 412.697 945.733 421.451 943.68 434.05C942.902 438.825 941.69 444.892 946 448z" id="svg_60"/><path style="fill:#ff0000; stroke:none;" d="M271 391L272 392L271 391M416 393L417 394L416 393M1223 394L1224 395L1223 394z" id="svg_61"/><path style="fill:#000000; stroke:none;" d="M1076 397L1077 398L1076 397z" id="svg_62"/><path style="fill:#ff0000; stroke:none;" d="M344 400L345 401L344 400M317 403L318 404L317 403M273 404L274 405L273 404M1208 404L1209 405L1208 404z" id="svg_63"/><path style="stroke: none;" d="M1198 405C1209.63 423.673 1223.19 441.073 1234.55 460C1254.46 493.188 1270.63 528.689 1283.95 565C1331.76 695.411 1331.84 845.254 1285.31 976C1275.36 1003.94 1263.81 1031.89 1249.69 1058C1241.26 1073.59 1231.31 1088.38 1223 1104C1233.35 1096.69 1241.04 1084.69 1249.08 1075C1268.84 1051.19 1286.68 1025.53 1302.6 999C1312.99 981.681 1322.23 964.038 1331.25 946C1336.32 935.86 1342.68 925.049 1345.49 914C1348.61 901.675 1349.65 888.589 1351.16 876C1354.76 845.833 1356.37 815.287 1355.04 785C1354.34 768.941 1354.36 753.023 1352.83 737C1346.47 670.425 1329.2 605.4 1302.85 544C1292.24 519.287 1280.41 493.199 1265.1 471C1254.85 456.146 1240.13 443.141 1227 430.911C1217.58 422.14 1208.57 412.414 1198 405M995 414C983.407 413.912 964.932 425.857 967.557 439.039C968.95 446.036 975.817 451.573 982 454.446C998.545 462.132 1022.95 461.208 1038 450.696C1043.01 447.197 1048.53 443.382 1052.71 438.91C1055.9 435.489 1057.81 431.223 1062 429C1061.57 423.58 1056.68 421.111 1056 416L1053 415C1053.56 412.644 1053.83 410.419 1054 408C1039.27 407.877 1025.08 405.316 1010.29 408.086C1005.03 409.07 998.361 409.417 995 414z" id="svg_64" class="" fill="#ffffff" fill-opacity="1"/><path style="fill:#ff0000; stroke:none;" d="M261 408L262 409L261 408M1192 409L1193 410L1192 409M379 411L380 412L379 411M1205 411L1206 412L1205 411M1270 411L1271 412L1270 411M323 412L324 413L323 412M339 414L340 415L339 414M1213 418L1214 419L1213 418M1208 419L1209 420L1208 419M1144 420L1145 421L1144 420M331 421L332 422L331 421M1280 422L1281 423L1280 422M239 423L240 424L239 423M249 425L250 426L249 425M1167 427L1168 428L1167 427M1205 427L1206 428L1205 427M1249 428L1250 429L1249 428M309 432L310 433L309 432M1217 432L1218 433L1217 432M1229 433L1230 434L1229 433z" id="svg_65"/><path style="stroke: none;" d="M399 561L401 561C401.677 568.605 408.971 574.096 415.576 576.903C427.392 581.923 439.16 585.845 451.015 578.645C458.81 573.911 462.112 565.389 469 560C467.062 563.698 466.999 568.229 464.976 571.714C462.548 575.897 457.78 580.176 454.491 583.791C450.038 588.685 441.167 594.462 440 601C433.12 604.167 423.243 612.195 420 619C416.741 619.565 415.117 621.599 412.385 623.437C407.387 626.798 402.331 629.814 399 635C393.955 635.777 390.75 640.343 386.961 643.541C379.733 649.64 371.014 656.253 362 659C363.467 653.043 362.855 647.968 363.099 642.004C363.476 632.772 365.359 623.144 364.856 613.911C364.441 606.301 361.229 597.364 364 590C359.842 582.441 360.789 573.286 359.438 564.866C358.644 559.914 356.559 555.56 354.576 551C349.747 539.9 343.369 525.252 331 520.724C311.287 513.508 291.215 535.518 281.344 550C266.647 571.564 256.932 594.825 249.316 619.424C247.892 624.023 245.18 628.352 243.98 633C243.264 635.771 243.686 638.747 243.161 641.576C241.029 653.067 239.09 664.39 237.489 676.004C235.616 689.593 226.463 707.563 235 720C239.816 719.06 245.404 721.301 248.852 716.852C251.146 713.891 250.805 710.494 251.299 707C252.151 700.983 252.421 695.184 253.013 689.17C254.153 677.587 255.302 665.989 257.617 654.282C258.985 647.361 261.392 641.202 262 634C277.105 641.346 290.381 650.577 303.925 660.383C313.588 667.378 323.782 673.411 332.985 681.095C337.916 685.213 339.95 691.914 345.043 695.593C348.52 698.104 353.148 696.748 357 698.603C365.784 702.835 374.205 709.203 382 715.002C388.157 719.581 392.785 725.944 398.999 730.523C402.054 732.774 405.732 733.937 409.09 735.65C415.742 739.042 422.435 740.231 427 733C425.521 732.014 425.797 732 424 732C425.036 730.813 425.339 730.397 426 729L428 730C428.989 726.634 428.761 723.466 429 720C420.628 714.056 411.24 709.769 402.88 704.048C393.444 697.59 384.718 690.071 375 684C389.356 668.469 407.618 657.138 424 643.829C430.422 638.612 435.943 632.719 442.015 627.174C445.04 624.41 448.74 622.393 451.65 619.525C454.05 617.16 455.178 613.842 457.602 611.48C465.971 603.324 475.035 594.723 480.392 584C482.83 579.12 482.885 573.009 483.859 567.714C484.598 563.695 486.413 560.104 487 556C483.295 552.256 480.603 549.546 475 551C474.708 542.377 478.204 535.333 480.38 527.246C481.191 524.235 480.859 521.066 481.3 518C483.213 504.712 482.218 485.835 470 477C469.993 471.817 466.541 468.938 463.515 465C458.214 458.104 455.156 451.231 447 447C446.278 439.642 437.859 439.452 431.965 438.945C428.956 438.687 425.932 437.682 422.91 438.086C412.114 439.528 402.551 449.123 398.072 458.576C394.284 466.569 391.49 478.088 390.485 486.83C390.157 489.678 391.221 492.424 390.943 495.282C390.097 503.987 388.628 514.145 389.799 522.83C390.996 531.707 392.911 541.381 395.323 550.039C396.359 553.76 398.38 557.227 399 561z" id="svg_66" class="" fill="#ffffff" fill-opacity="1"/><path style="fill:#ff0000; stroke:none;" d="M291 439L292 440L291 439M289 442L290 443L289 442M1243 447L1244 448L1243 447M1313 452L1314 453L1313 452M1173 453L1174 454L1173 453z" id="svg_67"/><path style="fill:#ffffff; stroke:none;" d="M1097 481C1090.95 486.466 1082.42 489.861 1075 493.14C1071.46 494.703 1067.88 496.746 1064 497C1060.05 500.567 1054.12 501.55 1051 506C1046.63 506.101 1043.49 508.598 1040 511.155C1032.1 516.948 1017.7 527.688 1018.91 538.995C1019.73 546.543 1032.12 552.889 1039 554C1042.67 548.813 1042.46 544.983 1044.4 539.424C1046.48 533.436 1053.86 527.137 1060 526C1061.55 524.333 1062.9 522.979 1064 521C1066.9 520.478 1067.54 519.596 1069 517C1072.93 518.044 1074.85 517.499 1077 514L1085 513L1085 511C1087.56 510.849 1088.75 510.317 1091 509C1089.93 516.279 1085.73 522.04 1084.01 529.015C1082.27 536.07 1079.64 542.915 1077.78 549.92C1074.81 561.094 1076.36 573.844 1078 585C1078.75 590.117 1079.79 596.738 1083.52 600.632C1087.51 604.8 1099.53 606.466 1105 606.196C1110.22 605.938 1114.52 605.476 1119.29 603.171C1130.11 597.938 1141.46 588.943 1149.42 579.985C1153.65 575.227 1158.93 564.93 1165 563C1171.62 553.61 1181.73 541.949 1194 544C1195.91 542.34 1198.68 541.131 1199.96 538.86C1203.02 533.44 1198.98 524.487 1196.03 520.001C1194.4 517.509 1192.56 512.885 1188.95 513.137C1183.81 513.494 1181.58 518.961 1178.57 522.181C1172.85 528.305 1167.73 534.824 1161.91 540.996C1158.45 544.667 1154.23 547.423 1152 552C1147.19 552.899 1144.99 557.797 1143 562L1141 561C1137.15 566.045 1129.84 570 1128 576C1122.26 576.12 1114.28 581.306 1111 586C1107.45 585.031 1105.31 585.413 1102 587C1097.35 575.585 1099.71 567.517 1101.66 555.911C1104.68 537.918 1110.73 520.188 1121.53 505.075C1128.22 495.729 1137 487.595 1143.24 478C1147.28 471.774 1144.58 459.598 1135.99 458.769C1120.59 457.285 1111.24 478.365 1097 481z" id="svg_68" class=""/><path style="fill:#ff0000; stroke:none;" d="M292 460L293 461L292 460M319 462L320 463L319 462M196 463L197 464L196 463z" id="svg_69"/><path style="stroke: none;" d="M418 469C417.833 472.902 415.955 476.234 415.052 480C413.444 486.716 412.143 494.105 411.749 501C411.381 507.442 411.202 515.662 412.389 522.014C413.528 528.111 415.907 533.691 416 540C418.747 543.164 419.559 547.681 422.035 551.115C426.611 557.462 432.757 558.305 440 559C444.356 554.851 449.391 551.763 453.079 546.754C459.699 537.762 463.097 522.114 462.735 511.116C462.533 504.992 459.88 499.147 460 493C455.143 487.851 453.329 480.824 449.573 474.964C446.677 470.446 442.284 467.221 439 463C431.198 465.031 426.532 469.474 418 469z" id="svg_70" class="" fill="#ffffff" fill-opacity="1"/><path style="fill:#ff0000; stroke:none;" d="M1238 466L1239 467L1238 466M1314 466L1315 467L1314 466M285 468L286 469L285 468M1200 477L1201 478L1200 477z" id="svg_71"/><path style="fill:#000000; stroke:none;" d="M1201 478L1202 479L1201 478z" id="svg_72"/><path style="fill:#ff0000; stroke:none;" d="M266 479L267 480L266 479M276 482L277 483L276 482M1240 484L1241 485L1240 484M195 489L196 490L195 489M1290 490L1291 491L1290 490M1340 495L1341 496L1340 495M285 496L286 497L285 496M1279 496L1280 497L1279 496M294 497L295 498L294 497M1297 499L1298 500L1297 499M1334 499L1335 500L1334 499M212 502L213 503L212 502M211 504L212 505L211 504M210 506L211 507L210 506z" id="svg_73"/><path style="fill:#000000; stroke:none;" d="M174 508L175 509L174 508z" id="svg_74"/><path style="fill:#ff0000; stroke:none;" d="M209 508L210 509L209 508M244 508L245 509L244 508z" id="svg_75"/><path style="fill:#000000; stroke:none;" d="M173 510L174 511L173 510z" id="svg_76"/><path style="fill:#ff0000; stroke:none;" d="M208 510L209 511L208 510M261 510L262 511L261 510M173 511L174 512L173 511z" id="svg_77"/><path style="stroke: none;" d="M172 512C121.554 594.407 92.6408 693.103 95.0147 790C95.6192 814.676 97.6343 839.563 101.424 864C103.501 877.388 107.196 890.605 109 904C111.534 897.961 109.855 889.503 110.015 883C110.323 870.4 111.783 857.525 113.285 845C115.162 829.362 119.819 813.656 120.91 798C121.265 792.919 120.138 788.046 120.015 783C119.649 768.059 119.649 752.941 120.015 738C120.885 702.465 125.675 665.636 133.884 631C140.551 602.873 148.214 575.077 158.425 548C161.585 539.622 164.905 531.232 168.427 523C169.935 519.477 172.644 515.864 172 512z" id="svg_78" class="" fill="#ffffff" fill-opacity="1"/><path style="fill:#ff0000; stroke:none;" d="M207 512L208 513L207 512M260 512L261 513L260 512M206 514L207 515L206 514M197 517L198 518L197 517M1344 518L1345 519L1344 518z" id="svg_79"/><path style="stroke: none;" d="M1303 520L1304 521L1303 520M244 521C229.071 543.13 215.688 566.13 203.753 590C197.69 602.125 190.736 614.933 187 628C194.296 620.233 199.234 609.084 204.811 600C210.451 590.813 217.552 582.376 222.826 573C227.011 565.559 229.478 556.854 232.85 549L240.579 531C241.953 527.789 244.038 524.498 244 521M1304 522C1316.16 553.35 1330.31 583.531 1339.57 616C1356.48 675.231 1365.29 736.501 1366 798C1366.27 821.621 1363.86 845.473 1362 869C1365.65 863.033 1367.1 854.753 1368.88 848C1372.31 835.031 1375.42 822.124 1378.21 809C1383.18 785.626 1386 761.825 1387.04 738C1387.39 729.995 1388.69 722.063 1387.83 714C1386.33 700.052 1381.18 685.357 1377.03 672C1368.4 644.24 1358.27 617.038 1345.25 591C1336.72 573.95 1327.74 557 1317.34 541C1313.2 534.622 1309.64 527.17 1304 522z" id="svg_80" class="" fill="#ffffff" fill-opacity="1"/><path style="fill:#ff0000; stroke:none;" d="M1314 523L1315 524L1314 523M1260 525L1261 526L1260 525M1305 525L1306 526L1305 525M1308 527L1309 528L1308 527M250 536L251 537L250 536M1360 536L1361 537L1360 536z" id="svg_81"/><path style="stroke: none;" d="M311.36065578460693,545 L309.36065578460693,544 C305.67465578460695,548.63 300.62665578460695,551.706 296.8206557846069,556.17 C283.34865578460693,571.97 273.4646557846069,590.711 269.36065578460693,611 C293.25265578460693,626.29 314.86565578460693,647.295 340.36065578460693,660 C346.23965578460695,628.799 344.48465578460696,593.901 337.53765578460695,563 C336.0896557846069,556.558 331.82665578460694,546.334 326.86565578460693,541.815 C322.0586557846069,537.436 314.5776557846069,540.217 311.36065578460693,545 z" id="svg_82" class="" fill="#ffffff" fill-opacity="1"/><path style="fill:#ff0000; stroke:none;" d="M187 540L188 541L187 540M1267 541L1268 542L1267 541M1356 545L1357 546L1356 545M141 553L142 554L141 553M182 553L183 554L182 553M1272 554L1273 555L1272 554M148 555L149 556L148 555M244 555L245 556L244 555M147 557L148 558L147 557M1361 558L1362 559L1361 558M227 561L228 562L227 561M224 569L225 570L224 569M1248 577L1249 578L1248 577M217 580L218 581L217 580M215 583L216 584L215 583M1372 592L1373 593L1372 592M131 593L132 594L131 593M1373 596L1374 597L1373 596z" id="svg_83"/><path style="stroke: none;" d="M1162 651C1161.06 657.301 1162.87 666.772 1164.32 673C1165.53 678.161 1167.29 685.042 1163.27 689.566C1158.06 695.441 1152.63 687.845 1149.55 684C1141.88 674.433 1132.84 662.808 1132 650C1127.84 648.869 1125.06 650.378 1121 651C1119.35 652.512 1118.11 653.181 1116 654C1116.32 658.123 1113.73 662.23 1114.75 666.17C1118.84 682.011 1134.04 697.964 1147 707.057C1159.39 715.749 1178.65 713.117 1184.6 698C1190.47 683.085 1186.48 664.713 1182.29 649.83C1180.22 642.469 1175.76 629.761 1182.3 623.383C1186.7 619.093 1191.94 621.582 1196.72 623.6C1200.13 625.043 1204.09 625.974 1207.29 627.782C1212.99 631.004 1217.94 635.355 1224 638C1222.72 639.915 1222.72 639.085 1224 641C1225.8 641 1225.52 640.986 1227 640C1228.91 643.572 1231.08 645.791 1231 650C1235.52 652.683 1240.51 655.412 1246 654.276C1260.14 651.355 1260.72 638.935 1248 633C1247.12 626.158 1238.9 623.271 1234 619.167C1226.92 613.242 1217.53 609.702 1209 606.421C1195.02 601.046 1180.43 593.662 1167.2 604.764C1156.87 613.429 1156.99 627.531 1158.74 639.985C1159.32 644.148 1158.15 648.515 1162 651z" id="svg_84" class="" fill="#ffffff" fill-opacity="1"/><path style="stroke: none;" d="M213 599C201.815 619.167 189.09 638.328 178.753 659C175.487 665.531 171.537 672.066 169.206 679C164.518 692.943 161.877 707.615 159 722C154.368 745.161 150.593 769.376 150.015 793C149.325 821.155 153.586 850.324 158.576 878C169.082 936.271 187.257 992.008 213.753 1045C229.94 1077.37 248.822 1108.1 270.626 1137C279.444 1148.69 288.564 1162.78 300 1172C293.534 1160.65 285.322 1150.13 278.424 1139C264.702 1116.85 252.184 1093.69 241.309 1070C210.676 1003.28 192.116 930.991 185.17 858C182.52 830.16 182.671 801.99 183.004 774C183.499 732.399 191.309 690.577 200 650C202.591 637.901 206.032 625.895 209.427 614C210.748 609.372 214.004 603.781 213 599z" id="svg_85" class="" fill="#ffffff" fill-opacity="1"/><path style="fill:#ff0000; stroke:none;" d="M1374 600L1375 601L1374 600M128 601L129 602L128 601M190 601L191 602L190 601M1351 604L1352 605L1351 604M1375 604L1376 605L1375 604M119 605L120 606L119 605M196 605L197 606L196 605M1376 608L1377 609L1376 608M124 612L125 613L124 612M137 615L138 616L137 615M115 616L116 617L115 616M1367 623L1368 624L1367 623M180 624L181 625L180 624M159 627L160 628L159 627M1295 627L1296 628L1295 627M144 629L145 630L144 629z" id="svg_86"/><path style="fill:#000000; stroke:none;" d="M186 629L187 630L186 629M185 631L186 632L185 631z" id="svg_87"/><path style="fill:#ff0000; stroke:none;" d="M1279 635L1280 636L1279 635M1297 636L1298 637L1297 636M141 643L142 644L141 643M1306 644L1307 645L1306 644M1299 645L1300 646L1299 645M130 647L131 648L130 647M160 655L161 656L160 655M208 657L209 658L208 657M1351 663L1352 664L1351 663M196 665L197 666L196 665M1342 669L1343 670L1342 669M1311 671L1312 672L1311 671M1386 671L1387 672L1386 671M1393 671L1394 672L1393 671M150 672L151 673L150 672M161 678L162 679L161 678M203 681L204 682L203 681M1290 685L1291 686L1290 685M104 686L105 687L104 686M192 686L193 687L192 686M1280 686L1281 687L1280 686M202 687L203 688L202 687M1281 691L1282 692L1281 691M191 692L192 693L191 692M201 693L202 694L201 693M154 694L155 695L154 694M190 698L191 699L190 698M200 699L201 700L200 699M189 704L190 705L189 704M160 714L161 715L160 714M144 719L145 720L144 719M1310 720L1311 721L1310 720z" id="svg_88"/><path style="fill:#000000; stroke:none;" d="M151 723L152 724L151 723z" id="svg_89"/><path style="fill:#ff0000; stroke:none;" d="M1387 733L1388 734L1387 733z" id="svg_90"/><path style="stroke: none;" d="M142 747C138.819 760.748 131.583 774.797 130.749 789C130.144 799.318 131.84 809.768 132.83 820C135.11 843.557 138.928 866.787 143.6 890C145.214 898.02 147.909 905.896 149 914C150.555 910.016 149.038 905.165 148.421 901C147.157 892.457 145.267 883.635 145.014 875C144.516 858.018 142.756 840.982 142.039 824C141.527 811.857 143 799.247 143 787C143 782.006 142.127 776.945 142.259 772C142.465 764.291 145.068 754.312 142 747M1393 751C1392.99 764.69 1390.49 778.523 1388.25 792C1384.49 814.558 1379.75 837.121 1372.97 859C1368.39 873.81 1362.21 888.18 1357.77 903C1355.26 911.388 1354.61 920.433 1352.79 929C1348.93 947.128 1344.66 965.172 1339.57 983C1325.68 1031.69 1304.97 1079.24 1279.58 1123C1260.67 1155.58 1238.77 1186.16 1214.56 1215C1207.97 1222.85 1201.04 1230.59 1193.96 1238C1188.61 1243.6 1182.47 1248.65 1178 1255C1203.54 1238.12 1226.01 1214.99 1247.04 1193C1328.1 1108.22 1379.02 1001.95 1395.13 886C1399.5 854.573 1398.38 823.545 1398 792C1397.9 783.283 1396.88 774.671 1396.07 766C1395.62 761.118 1395.81 755.108 1393 751z" id="svg_91" class="" fill="#ffffff" fill-opacity="1"/><path style="fill:#ff0000; stroke:none;" d="M1289 768L1290 769L1289 768M1381 790L1382 791L1381 790M120 801L121 802L120 801M1386 803L1387 804L1386 803M1378 807L1379 808L1378 807M150 808L151 809L150 808M1385 808L1386 809L1385 808z" id="svg_92"/><path style="fill:#ffffff; stroke:none;" d="M273 897C273.582 903.531 279.954 911.514 286 914C285.588 918.395 288.461 923.206 293.41 923.519C301.58 924.034 309.795 919.776 318 920.529C323.125 921 327.761 924.357 332.91 924.119C336.701 923.943 340.176 922.128 344 922.083C362.712 921.86 390.232 923.196 401.517 904.282C407.389 894.44 405.271 885.593 406 875C400.977 870.132 398.122 863.408 393.678 858C383.59 845.724 365.556 833.575 349 835C344.855 839.392 344.464 842.111 344 848C346.953 849.318 349.153 851.58 352.015 852.981C355.201 854.542 358.769 854.646 362 856.349C371.088 861.138 381.571 872.566 383.587 883C384.163 885.978 383.049 889.027 383 892C372.108 896.29 362.901 899.625 351 900.437C347.134 900.7 342.6 901.804 339.448 898.852C337.293 896.833 337.235 893.721 336.725 891.011C335.722 885.674 334.081 880.453 334 875C330.876 871.979 330.229 867.989 328.652 864C326.658 858.956 324.236 854.136 322.439 849C321.424 846.1 321.333 842.149 318.853 840.05C310.008 832.567 302.859 840.582 304.21 850C304.755 853.804 306.643 857.262 307.486 861C309.447 869.693 311.021 878.19 312.187 886.999C312.572 889.91 314.658 893.125 314.298 896.061C313.627 901.532 302.018 902.183 298.326 899.973C293.128 896.861 290.636 887.262 288.641 881.911C286.87 877.158 284.297 872.719 282.573 868.004C281.608 865.367 281.855 862.538 281.153 859.845C280.344 856.744 278.534 854.052 277.702 850.961C276.407 846.147 276.315 840.924 275.576 836.001C274.72 830.294 275.596 814.072 266.985 813.853C256.967 813.597 260.802 828.298 260.997 833.996C261.366 844.752 261.647 855.78 263.352 866.424C263.872 869.67 265.535 872.567 266.022 875.83C267.007 882.44 267.133 892.68 273 897z" id="svg_93"/><path style="fill:#ff0000; stroke:none;" d="M1375 821L1376 822L1375 821M1382 822L1383 823L1382 822z" id="svg_94"/><path style="stroke: none;" d="M123 828C117.237 851.391 117 877.051 117 901C117 911.252 115.455 922.938 117.515 933C121.291 951.451 129.757 969.774 137.15 987C154.92 1028.4 177.803 1067.2 205.116 1103C221.032 1123.86 238.449 1143.45 257 1162C266.682 1171.68 276.785 1182.11 288 1190C284.158 1183.35 278.388 1177.83 273.421 1172C264.623 1161.67 255.87 1151.09 248.035 1140C218.172 1097.74 190.82 1052.65 170.427 1005C155.021 969.002 142.373 931.328 134.211 893C131.174 878.739 128.556 864.421 126.421 850C125.404 843.13 125.665 834.338 123 828z" id="svg_95" class="" fill="#ffffff" fill-opacity="1"/><path style="fill:#ff0000; stroke:none;" d="M183 831L184 832L183 831M114 835L115 836L114 835M185 860L186 861L185 860M195 860L196 861L195 860M1312 867L1313 868L1312 867M139 868L140 869L139 868M129 869L130 870L129 869M117 876L118 877L117 876M1303 878L1304 879L1303 878M1282 879L1283 880L1282 879M162 898L163 899L162 898M1359 898L1360 899L1359 898M155 899L156 900L155 899z" id="svg_96"/><path style="fill:#000000; stroke:none;" d="M155.333 900.667C155.278 900.722 155.222 901.778 155.667 901.333C155.722 901.278 155.778 900.222 155.333 900.667M156 904L156 908C156.71 906.241 156.71 905.759 156 904z" id="svg_97"/><path style="fill:#ff0000; stroke:none;" d="M164 907L165 908L164 907M156.667 908.333C156.222 908.778 157.278 908.722 157.333 908.667C157.778 908.222 156.722 908.278 156.667 908.333z" id="svg_98"/><path style="stroke: none;" d="M157 909C157.661 924.366 162.913 940.144 166.627 955C178.554 1002.71 198.939 1047.95 226.003 1089C233.344 1100.13 240.696 1111.27 248.629 1122C252.749 1127.57 256.456 1133.76 262 1138C256.872 1125.87 246.436 1115.2 239.424 1104C224.687 1080.46 210.91 1056.27 199.309 1031C187.533 1005.35 177.401 978.95 169.025 952C166.054 942.439 163.427 932.684 160.884 923C159.672 918.382 159.246 913.218 157 909z" id="svg_99" class="" fill="#ffffff" fill-opacity="1"/><path style="fill:#ff0000; stroke:none;" d="M1288 910L1289 911L1288 910M1398 911L1399 912L1398 911M150 914L151 915L150 914z" id="svg_100"/><path style="fill:#000000; stroke:none;" d="M150 915L150 918C150.696 916.446 150.696 916.554 150 915z" id="svg_101"/><path style="fill:#ff0000; stroke:none;" d="M166 916L167 917L166 916M159 917L160 918L159 917z" id="svg_102"/><path style="fill:#000000; stroke:none;" d="M151.333 920.667C151.278 920.722 151.222 921.778 151.667 921.333C151.722 921.278 151.778 920.222 151.333 920.667z" id="svg_103"/><path style="fill:#ff0000; stroke:none;" d="M1387 931L1388 932L1387 931z" id="svg_104"/><path style="fill:#ffffff; stroke:none;" d="M377 939C374.495 944.097 370.527 944.511 365.961 947.133C355.968 952.87 344.084 962.355 332 962C330.622 954.572 320.396 952.335 316.057 958.888C313.066 963.405 316.428 968.831 311.913 972.311C307.937 975.376 302.488 977.665 298.001 979.911C294.961 981.432 292.708 981.53 292 985L291 986L289 985L285 990C277.486 990.963 276.082 996.501 277.67 1003C278.257 1005.41 278.628 1008.63 281.228 1009.76C284.695 1011.27 289.943 1007.68 293 1006.31C300.355 1002.99 307.635 999.428 314.996 996.203C318.823 994.526 322.438 994.373 326 992C327.808 995.655 330.563 998.792 334 1001L333 1003C334.995 1004.84 336.642 1006.68 339 1008C339.465 1014.6 345.14 1021.02 348 1027C339.55 1027.2 324.02 1031.82 319 1039C315.949 1038.98 313.802 1039.88 311 1041.14C308.279 1042.37 305.504 1043.56 303.742 1046.11C300.947 1050.15 301.139 1059.41 306.21 1061.79C310.863 1063.98 318.511 1059.7 321 1056C325.529 1056.03 329.692 1053.63 333.961 1052.13C339.499 1050.18 345.327 1048.69 351 1047.15C358.386 1045.15 362.936 1043.32 368 1050C369.797 1050 369.522 1049.99 371 1049C374.028 1055.83 379.007 1060.06 385 1064.29C387.352 1065.95 389.997 1068.27 393 1068.48C396.111 1068.7 398.986 1066.5 402 1066C405.121 1055.31 391.308 1044.39 384 1038C390.79 1036.39 398.927 1033.24 404.83 1029.49C409.306 1026.64 412.577 1022 418 1021C420.706 1016.97 424.949 1011.93 425.607 1007C426.159 1002.87 424.09 998.247 424 994C419.226 992.797 412.291 987.889 407.364 990.992C403.658 993.325 405.199 1000.39 403.062 1003.96C399.094 1010.6 388.829 1013.15 382 1015.68C379.251 1016.7 376.015 1018.38 373 1017.97C368.201 1017.31 364.564 1012.36 361.576 1009.01C354.057 1000.59 348.591 992.074 342 983C349.327 980.085 356.763 977.758 364 974.575C368.001 972.815 371.711 969.79 376 969C377.371 967.226 377.89 966.599 380 966C381.571 963.871 382.481 962.75 385 962L386 959L388 960C389.841 958.005 391.684 956.358 393 954C397.32 953.348 407.054 948.652 408.208 943.958C409.459 938.864 401.944 934.47 397.91 933.274C394.949 932.396 390.887 931.705 388 933.039C383.949 934.91 381.696 938.637 377 939z" id="svg_105"/><path style="fill:#ff0000; stroke:none;" d="M1283 933L1284 934L1283 933M161 934L162 935L161 934M162 938L163 939L162 938M208 941L209 942L208 941M1338 947L1339 948L1338 947z" id="svg_106"/><path style="stroke: none;" d="M1337 950C1328.62 970.128 1316.6 989.552 1305.05 1008C1286.91 1036.98 1267 1065.03 1244.71 1091C1228.88 1109.45 1211.81 1126.43 1195.04 1144C1186.71 1152.72 1179.56 1162.81 1171.73 1172C1158.39 1187.64 1144.05 1202.89 1129 1216.91C1055.83 1285.07 966.202 1335.22 869 1359.52C814.484 1373.16 759.101 1378.36 703 1376.99C684.92 1376.54 667.021 1373.32 649 1372.09C639.413 1371.43 629.609 1372 620 1372C624.837 1374.33 630.743 1374.95 636 1376C645.311 1377.86 654.632 1379.53 664 1381.08C701.773 1387.34 739.756 1390 778 1390C856.546 1390 934.091 1375 1008 1348.69C1040.15 1337.25 1074.22 1323.46 1103 1304.91C1119.77 1294.11 1135.21 1280.48 1150 1267.17C1189.24 1231.85 1223.37 1191.94 1252.67 1148C1282.73 1102.9 1309.09 1051.26 1324.14 999C1327.41 987.632 1331.06 976.43 1334.15 965C1335.4 960.37 1338.09 954.754 1337 950z" id="svg_107" class="" fill="#ffffff" fill-opacity="1"/><path style="fill:#ff0000; stroke:none;" d="M1327 953L1328 954L1327 953M1326 955L1327 956L1326 955z" id="svg_108"/><path style="stroke: none;" d="M120 964L121 965L120 964M121 967C121.293 981.182 125.197 996.282 128.627 1010C135.143 1036.06 143.496 1061.55 154.691 1086C175.686 1131.85 203.472 1173.29 238.17 1209.96C289.301 1264 357.312 1303.89 427 1328.69C448.209 1336.24 469.914 1343.44 492 1348C486.094 1341.91 477.188 1338.05 470 1333.57C458.03 1326.12 446.297 1318.06 435 1309.63C415.047 1294.73 393.929 1281.57 374 1266.62C359.245 1255.56 345.73 1242.94 331 1231.9C307.273 1214.1 283.491 1196.51 262 1175.96C221.669 1137.4 185.964 1093.64 158.424 1045C148.857 1028.1 140.282 1010.7 132.306 993C128.539 984.644 126.047 974.603 121 967z" id="svg_109" class="" fill="#ffffff" fill-opacity="1"/><path style="fill:#ff0000; stroke:none;" d="M125 977L126 978L125 977M1275 982L1276 983L1275 982M179 983L180 984L179 983M128 984L129 985L128 984z" id="svg_110"/><path style="fill:#000000; stroke:none;" d="M1257 986L1258 987L1257 986M1256 989L1257 990L1256 989z" id="svg_111"/><path style="fill:#ff0000; stroke:none;" d="M131 991L132 992L131 991z" id="svg_112"/><path style="stroke: none;" d="M1255 991C1249.9 1005.98 1241.83 1020.13 1234.31 1034C1211.82 1075.49 1184.24 1113.48 1152.09 1148C1031.58 1277.38 855.351 1348.31 679 1343.99C633.383 1342.87 586.384 1337.2 542 1326.1C524.133 1321.64 506.537 1316.42 489 1310.81C482.307 1308.66 475.838 1305.62 469 1304C473.992 1308.67 480.823 1311.11 487 1313.86C495.013 1317.43 502.846 1321.34 511 1324.6C542.93 1337.38 575.188 1348.44 609 1355.2C628.997 1359.2 649.563 1363.67 670 1364.41C688.188 1365.06 706.979 1362.5 725 1360.28C754.954 1356.59 784.61 1351.85 814 1344.88C923.627 1318.89 1025.46 1269.62 1116 1202.88C1126.19 1195.38 1136.92 1187.84 1145.99 1178.96C1158.64 1166.56 1169.45 1151.4 1179.71 1137C1199.26 1109.57 1216.19 1081.12 1231.25 1051C1238.09 1037.32 1243.92 1023.2 1249.6 1009C1251.67 1003.83 1256.18 996.604 1255 991z" id="svg_113" class="" fill="#ffffff" fill-opacity="1"/><path style="fill:#ff0000; stroke:none;" d="M125 995L126 996L125 995M184 996L185 997L184 996M1368 997L1369 998L1368 997M1276 999L1277 1000L1276 999M119 1001L120 1002L119 1001M170 1005L171 1006L170 1005M196 1007L197 1008L196 1007M1319 1012L1320 1013L1319 1012M152 1019L153 1020L152 1019M1316 1020L1317 1021L1316 1020M153 1021L154 1022L153 1021M1259 1021L1260 1022L1259 1021M146 1023L147 1024L146 1023M1295 1023L1296 1024L1295 1023M147 1025L148 1026L147 1025M1265 1025L1266 1026L1265 1025M1357 1025L1358 1026L1357 1025M1293 1026L1294 1027L1293 1026M1241 1028L1242 1029L1241 1028M1313 1028L1314 1029L1313 1028M1363 1029L1364 1030L1363 1029M159 1032L160 1033L159 1032M153 1036L154 1037L153 1036M1310 1036L1311 1037L1310 1036M186 1039L187 1040L186 1039M198 1040L199 1041L198 1040z" id="svg_114"/><path style="fill:#ffffff; stroke:none;" d="M462 1071C459.491 1071.41 459.225 1071.73 458 1074C455.031 1074.51 454.366 1075.29 453 1078C448.396 1078.71 444.251 1082.62 440 1084.73C429.353 1090.02 418.834 1095.84 408 1100.71C402.439 1103.2 394.505 1104.79 391 1110C386.315 1109.83 383.238 1113.08 379.17 1115.17C371.222 1119.24 363.266 1123.56 355 1126.99C350.901 1128.69 344.952 1129.24 344 1134C338.747 1135.26 335.216 1131.85 331 1129C320.892 1122.16 309.007 1112.7 303 1102C296.107 1101.27 288.082 1094.2 285.062 1087.96C283.903 1085.56 284.836 1082.75 283.596 1080.41C281.795 1077.02 276.72 1073.81 274 1071C270.204 1073.16 265.27 1075.86 263.158 1079.87C259.309 1087.18 265.791 1099.22 270.47 1104.58C278.976 1114.31 289.333 1120.77 299 1129.11C308.946 1137.7 318.575 1146.62 329.001 1154.6C332.748 1157.46 335.783 1160.81 340 1163L339 1165C344.954 1170.21 351.881 1174.14 357.791 1179.45C365.009 1185.94 370.777 1193.82 377.862 1200.45C380.201 1202.64 383.428 1203.44 385.896 1205.47C391.29 1209.92 394.152 1217.26 400.17 1221.13C411.905 1228.68 426.34 1214.16 420.297 1202.15C418.532 1198.64 412.94 1197.57 410 1194.96C396.295 1182.78 380.848 1173.55 368.285 1160.02C364.547 1155.99 359.846 1154.42 358 1149C362.341 1147.36 368.237 1144.77 371 1141C377.721 1140.46 384.162 1135.86 390 1132.7C397.51 1128.65 405.208 1124.82 413 1121.31C418.33 1118.9 425.539 1116.93 429 1112C433.857 1111.9 444.131 1108.02 447 1104L449 1105C453.777 1100.15 460.538 1097.22 466 1093.1C469.48 1090.48 472.458 1087.14 477 1087C478.73 1084.2 479.842 1082.94 483 1082C483.442 1080.34 483.768 1078.87 484.769 1077.43C488.558 1071.98 502.801 1056.81 490 1053C488.39 1042.81 475.339 1044.94 469.438 1050.65C466.3 1053.69 468.402 1057.32 467.643 1061C466.877 1064.71 463.573 1067.6 462 1071z" id="svg_115"/><path style="fill:#ff0000; stroke:none;" d="M1280 1045L1281 1046L1280 1045M1316 1048L1317 1049L1316 1048M1265 1053L1266 1054L1265 1053M195 1056L196 1057L195 1056M237 1061L238 1062L237 1061M137 1062L138 1063L137 1062M223 1063L224 1064L223 1063M240 1068L241 1069L240 1068M1306 1071L1307 1072L1306 1071M1231 1072L1232 1073L1231 1072M150 1076L151 1077L150 1076M1198 1079L1199 1080L1198 1079M1206 1080L1207 1081L1206 1080M226 1083L227 1084L226 1083M260 1086L261 1087L260 1086M1285 1091L1286 1092L1285 1091M150 1093L151 1094L150 1093z" id="svg_116"/><path style="fill:#e5bfdc; stroke:none;" d="M266 1098L267 1099L266 1098z" id="svg_117"/><path style="fill:#ff0000; stroke:none;" d="M203 1100L204 1101L203 1100z" id="svg_118"/><path style="fill:#000000; stroke:none;" d="M268 1101L269 1102L268 1101z" id="svg_119"/><path style="fill:#ff0000; stroke:none;" d="M197 1104L198 1105L197 1104z" id="svg_120"/><path style="fill:#000000; stroke:none;" d="M1222 1105L1221 1107C1222.26 1106.03 1222.39 1106.31 1222 1105z" id="svg_121"/><path style="fill:#ff0000; stroke:none;" d="M1231 1106L1232 1107L1231 1106z" id="svg_122"/><path style="fill:#000000; stroke:none;" d="M1211 1108L1210 1110C1211.26 1109.03 1211.39 1109.31 1211 1108z" id="svg_123"/><path style="fill:#ff0000; stroke:none;" d="M1209 1111L1210 1112L1209 1111z" id="svg_124"/><path style="fill:#000000; stroke:none;" d="M1208 1112L1209 1113L1208 1112z" id="svg_125"/><path style="fill:#ff0000; stroke:none;" d="M1172 1114L1173 1115L1172 1114z" id="svg_126"/><path style="fill:#000000; stroke:none;" d="M1206 1115L1207 1116L1206 1115z" id="svg_127"/><path style="fill:#ff0000; stroke:none;" d="M247 1116L248 1117L247 1116M162 1117L163 1118L162 1117M1221 1117L1222 1118L1221 1117z" id="svg_128"/><path style="fill:#000000; stroke:none;" d="M1204 1118L1205 1119L1204 1118z" id="svg_129"/><path style="fill:#ff0000; stroke:none;" d="M266 1119L267 1120L266 1119z" id="svg_130"/><path style="fill:#000000; stroke:none;" d="M1202 1121L1203 1122L1202 1121z" id="svg_131"/><path style="fill:#ff0000; stroke:none;" d="M212 1123L213 1124L212 1123M237 1125L238 1126L237 1125M224 1126L225 1127L224 1126M1309 1127L1310 1128L1309 1127M1185 1128L1186 1129L1185 1128M256 1129L257 1130L256 1129M1167 1131L1168 1132L1167 1131M257 1133L258 1134L257 1133M1296 1133L1297 1134L1296 1133z" id="svg_132"/><path style="fill:#000000; stroke:none;" d="M262 1138C262.936 1139.95 263.392 1140.55 265 1142C264.064 1140.05 263.608 1139.45 262 1138z" id="svg_133"/><path style="fill:#ff0000; stroke:none;" d="M249 1142L250 1143L249 1142z" id="svg_134"/><path style="fill:#000000; stroke:none;" d="M265 1142L266 1143L265 1142M266 1143C266.684 1144.58 266.805 1144.78 268 1146C267.316 1144.42 267.195 1144.22 266 1143z" id="svg_135"/><path style="fill:#ff0000; stroke:none;" d="M277 1145L278 1146L277 1145z" id="svg_136"/><path style="fill:#000000; stroke:none;" d="M268 1146L269 1147L268 1146z" id="svg_137"/><path style="fill:#ff0000; stroke:none;" d="M188 1147L189 1148L188 1147z" id="svg_138"/><path style="fill:#000000; stroke:none;" d="M269 1147L270 1148L269 1147M270 1148C270.684 1149.58 270.805 1149.78 272 1151C271.316 1149.42 271.195 1149.22 270 1148M272 1151L273 1152L272 1151M273 1152L274 1153L273 1152M274.333 1153.67C274.278 1153.72 274.222 1154.78 274.667 1154.33C274.722 1154.28 274.778 1153.22 274.333 1153.67z" id="svg_139"/><path style="fill:#ff0000; stroke:none;" d="M1280 1154L1281 1155L1280 1154M185 1155L186 1156L185 1155z" id="svg_140"/><path style="fill:#000000; stroke:none;" d="M275 1155L276 1156L275 1155z" id="svg_141"/><path style="fill:#ff0000; stroke:none;" d="M285 1155L286 1156L285 1155z" id="svg_142"/><path style="fill:#000000; stroke:none;" d="M276 1156L277 1157L276 1156M277 1157L278 1158L277 1157M278 1158L279 1159L278 1158z" id="svg_143"/><path style="fill:#ff0000; stroke:none;" d="M1183 1158L1184 1159L1183 1158M1286 1158L1287 1159L1286 1158z" id="svg_144"/><path style="fill:#000000; stroke:none;" d="M279 1159L280 1160L279 1159z" id="svg_145"/><path style="fill:#ff0000; stroke:none;" d="M263 1160L264 1161L263 1160z" id="svg_146"/><path style="fill:#000000; stroke:none;" d="M281 1162C282.33 1163.75 283.247 1164.67 285 1166C283.67 1164.25 282.753 1163.33 281 1162z" id="svg_147"/><path style="fill:#ff0000; stroke:none;" d="M306 1163L307 1164L306 1163M295 1165L296 1166L295 1165M296 1168L297 1169L296 1168z" id="svg_148"/><path style="fill:#000000; stroke:none;" d="M289 1171L290 1172L289 1171z" id="svg_149"/><path style="fill:#ff0000; stroke:none;" d="M1172 1171L1173 1172L1172 1171M290 1172L291 1173L290 1172M1151 1172L1152 1173L1151 1172M1166 1178L1167 1179L1166 1178M279 1179L280 1180L279 1179M279 1182L280 1183L279 1182M320 1182L321 1183L320 1182M323 1186L324 1187L323 1186M1113 1186L1114 1187L1113 1186M1232 1193L1233 1194L1232 1193M1218 1194L1219 1195L1218 1194M283 1195L284 1196L283 1195M1243 1196L1244 1197L1243 1196M1117 1201L1118 1202L1117 1201M336 1202L337 1203L336 1202M1113 1204L1114 1205L1113 1204M1229 1210L1230 1211L1229 1210M1204 1211L1205 1212L1204 1211M1082 1212L1083 1213L1082 1212M1069 1213L1070 1214L1069 1213M1231 1218L1232 1219L1231 1218z" id="svg_150"/><path style="stroke: none;" d="M1107.5,1219 C1087.2,1236.3 1062.45,1249.61 1039.5,1263.01 C975.489,1300.4 904.773,1330.73 832.5,1347.88 C809.619,1353.32 786.793,1358.84 763.5,1362.27 C754.243,1363.64 744.874,1365.92 735.5,1366 C743.233,1369.24 755.315,1366.95 763.5,1366.17 C780.867,1364.52 798.229,1363.63 815.5,1360.75 C893.423,1347.77 969.463,1320.61 1035.5,1276.67 C1054.19,1264.23 1072.19,1251.06 1089.5,1236.75 C1094.79,1232.38 1105.84,1225.82 1107.5,1219 z" id="svg_151" class="" fill="#ffffff" fill-opacity="1"/><path style="fill:#ff0000; stroke:none;" d="M1207 1223L1208 1224L1207 1223M1066 1224L1067 1225L1066 1224M1213 1225L1214 1226L1213 1225M1098 1226L1099 1227L1098 1226M1055 1232L1056 1233L1055 1232M1216 1232L1217 1233L1216 1232M1183 1234L1184 1235L1183 1234M1197 1234L1198 1235L1197 1234M1182 1235L1183 1236L1182 1235M336 1236L337 1237L336 1236M1181 1236L1182 1237L1181 1236M1180 1237L1181 1238L1180 1237M1179 1238L1180 1239L1179 1238M1030 1240L1031 1241L1030 1240M373 1242L374 1243L373 1242M1079 1242L1080 1243L1079 1242M264 1243L265 1244L264 1243M276 1244L277 1245L276 1244M1029 1249L1030 1250L1029 1249M1182 1251L1183 1252L1182 1251M1055 1252L1056 1253L1055 1252M1163 1254L1164 1255L1163 1254M1005 1255L1006 1256L1005 1255M360 1256L361 1257L360 1256M297 1260L298 1261L297 1260M398 1261L399 1262L398 1261M297 1269L298 1270L297 1269M977 1270L978 1271L977 1270M1007 1271L1008 1272L1007 1271M1015 1275L1016 1276L1015 1275M1056 1275L1057 1276L1056 1275M1053 1277L1054 1278L1053 1277M960 1278L961 1279L960 1278M1130 1283L1131 1284L1130 1283M340 1288L341 1289L340 1288M1011 1289L1012 1290L1011 1289M969 1290L970 1291L969 1290M456 1291L457 1292L456 1291M347 1292L348 1293L347 1292M412 1293L413 1294L412 1293M1026 1294L1027 1295L1026 1294M1115 1295L1116 1296L1115 1295M999 1296L1000 1297L999 1296M1111 1298L1112 1299L1111 1298M903 1301L904 1302L903 1301z" id="svg_152"/><path style="fill:#000000; stroke:none;" d="M467 1303L468 1304L467 1303z" id="svg_153"/><path style="fill:#ff0000; stroke:none;" d="M470 1305L471 1306L470 1305M935 1305L936 1306L935 1305M953 1305L954 1306L953 1305M430 1306L431 1307L430 1306M434 1309L435 1310L434 1309M438 1312L439 1313L438 1312M968 1312L969 1313L968 1312M486 1313L487 1314L486 1313M393 1315L394 1316L393 1315M499 1319L500 1320L499 1319M899 1319L900 1320L899 1319M1073 1320L1074 1321L1073 1320M539 1325L540 1326L539 1325M572 1325L573 1326L572 1325M903 1325L904 1326L903 1325M518 1327L519 1328L518 1327M584 1327L585 1328L584 1327M590 1328L591 1329L590 1328M1056 1328L1057 1329L1056 1328M429 1329L430 1330L429 1329M596 1329L597 1330L596 1329z" id="svg_154"/><path style="fill:#000000; stroke:none;" d="M496 1330L497 1331L496 1330z" id="svg_155"/><path style="fill:#ff0000; stroke:none;" d="M602 1330L603 1331L602 1330M824 1330L825 1331L824 1330M413 1331L414 1332L413 1331z" id="svg_156"/><path style="fill:#000000; stroke:none;" d="M498 1331L499 1332L498 1331z" id="svg_157"/><path style="fill:#ff0000; stroke:none;" d="M619 1332L620 1333L619 1332z" id="svg_158"/><path style="fill:#000000; stroke:none;" d="M503 1333L504 1334L503 1333M505.667 1334.33C505.222 1334.78 506.278 1334.72 506.333 1334.67C506.778 1334.22 505.722 1334.28 505.667 1334.33z" id="svg_159"/><path style="fill:#ff0000; stroke:none;" d="M1077 1334L1078 1335L1077 1334M507 1335L508 1336L507 1335z" id="svg_160"/><path style="fill:#000000; stroke:none;" d="M508 1335L509 1336L508 1335M510 1336C511.458 1337.08 512.248 1337.44 514 1338C512.542 1336.92 511.752 1336.56 510 1336z" id="svg_161"/><path style="fill:#ff0000; stroke:none;" d="M940 1336L941 1337L940 1336M1038 1336L1039 1337L1038 1336M1072 1337L1073 1338L1072 1337z" id="svg_162"/><path style="stroke: none;" d="M515,1335.5 C522.707,1341.33 533.958,1343.96 543,1347.19 C561.501,1353.8 580.108,1361.45 600,1361.5 C590.22,1356.26 576.712,1355.13 566,1352.08 C548.937,1347.21 532.166,1339.57 515,1335.5 z" id="svg_163" class="" fill="#ffffff" fill-opacity="1"/><path style="fill:#ff0000; stroke:none;" d="M460 1339L461 1340L460 1339M619 1339L620 1340L619 1339M482 1341L483 1342L482 1341z" id="svg_164"/><path style="fill:#000000; stroke:none;" d="M505 1342L506 1343L505 1342z" id="svg_165"/><path style="fill:#ff0000; stroke:none;" d="M527 1342L528 1343L527 1342M850 1342L851 1343L850 1342M892 1342L893 1343L892 1342z" id="svg_166"/><path style="fill:#000000; stroke:none;" d="M1043 1342L1044 1343L1043 1342z" id="svg_167"/><path style="fill:#ff0000; stroke:none;" d="M448 1343L449 1344L448 1343z" id="svg_168"/><path style="stroke: none;" d="M507 1343L508 1344L507 1343M556 1367C565.355 1374.07 579.93 1377.61 591 1381.33C615.982 1389.74 641.125 1396.91 667 1402C759.202 1420.14 855.467 1414.26 945 1385.66C964.297 1379.49 983.577 1372.13 1002 1363.69C1015.47 1357.53 1028.37 1349.68 1042 1344C1036.64 1343.06 1030 1347.67 1025 1349.58C1011.15 1354.85 997.231 1360.41 983 1364.58C935.862 1378.38 888.895 1388.6 840 1393.83C777.057 1400.57 713.337 1396.44 651 1385.92C619.216 1380.55 588.296 1368.39 556 1367z" id="svg_169" class="" fill="#ffffff" fill-opacity="1"/><path style="fill:#ff0000; stroke:none;" d="M487 1344L488 1345L487 1344z" id="svg_170"/><path style="stroke: none;" d="M509 1344C517.647 1352.74 532.206 1356.51 544 1358C540.217 1355.17 535.393 1354.23 531 1352.57C523.637 1349.8 516.456 1346.52 509 1344z" id="svg_171" class="" fill="#ffffff" fill-opacity="1"/><path style="fill:#ff0000; stroke:none;" d="M510 1344L511 1345L510 1344M843 1344L844 1345L843 1344M836 1346L837 1347L836 1346M542 1347L543 1348L542 1347M1005 1349L1006 1350L1005 1349M1048 1351L1049 1352L1048 1351M772 1353L773 1354L772 1353M841 1355L842 1356L841 1355M746 1357L747 1358L746 1357M626 1358L627 1359L626 1358M1035 1358L1036 1359L1035 1358M998 1359L999 1360L998 1359M669 1364L670 1365L669 1364z" id="svg_172"/><path style="fill:#000000; stroke:none;" d="M725.667 1367.33C725.222 1367.78 726.278 1367.72 726.333 1367.67C726.778 1367.22 725.722 1367.28 725.667 1367.33z" id="svg_173"/><path style="fill:#ff0000; stroke:none;" d="M970 1368L971 1369L970 1368M537 1370L538 1371L537 1370M932 1371L933 1372L932 1371M801 1372L802 1373L801 1372M624 1373L625 1374L624 1373M909 1376L910 1377L909 1376M553 1377L554 1378L553 1377M933 1378L934 1379L933 1378M992 1378L993 1379L992 1378M887 1380L888 1381L887 1380M980 1383L981 1384L980 1383M600 1384L601 1385L600 1384M972 1386L973 1387L972 1386M581 1388L582 1389L581 1388M875 1389L876 1390L875 1389M623 1391L624 1392L623 1391M943 1396L944 1397L943 1396M933 1399L934 1400L933 1399M664 1401L665 1402L664 1401M878 1402L879 1403L878 1402M923 1402L924 1403L923 1402M657 1410L658 1411L657 1410M885 1411L886 1412L885 1411M874 1413L875 1414L874 1413z" id="svg_174"/></g></svg>